  0
SECTION
  2
BLOCKS
  0
ENDSEC
  0
SECTION
  2
ENTITIES
  0
LINE
  8
0
 10
131.727
 20
19
 11
131.727
 21
0
  0
LINE
  8
0
 10
131.727
 20
0
 11
155.727
 21
0
  0
LINE
  8
0
 10
155.727
 20
0
 11
155.727
 21
19
  0
LINE
  8
0
 10
155.727
 20
19
 11
269.727
 21
19
  0
LINE
  8
0
 10
269.727
 20
19
 11
269.727
 21
38
  0
LINE
  8
0
 10
269.727
 20
38
 11
279.477
 21
38
  0
LINE
  8
0
 10
279.477
 20
38
 11
279.477
 21
62
  0
LINE
  8
0
 10
279.477
 20
62
 11
275.227
 21
62
  0
LINE
  8
0
 10
275.227
 20
62
 11
275.227
 21
81
  0
LINE
  8
0
 10
275.227
 20
81
 11
265.977
 21
81
  0
LINE
  8
0
 10
265.977
 20
81
 11
265.977
 21
100
  0
LINE
  8
0
 10
265.977
 20
100
 11
12.9766
 21
100
  0
LINE
  8
0
 10
12.9766
 20
100
 11
12.9766
 21
81
  0
LINE
  8
0
 10
12.9766
 20
81
 11
3.47658
 21
81.0001
  0
LINE
  8
0
 10
3.47658
 20
81.0001
 11
3.47658
 21
57.0001
  0
LINE
  8
0
 10
3.47658
 20
57.0001
 11
8.47658
 21
56.9992
  0
LINE
  8
0
 10
8.47658
 20
56.9992
 11
8.47658
 21
38
  0
LINE
  8
0
 10
8.47658
 20
38
 11
17.7266
 21
38
  0
LINE
  8
0
 10
17.7266
 20
38
 11
17.7266
 21
19
  0
LINE
  8
0
 10
17.7266
 20
19
 11
131.727
 21
19
  0
LINE
  8
0
 10
36.7266
 20
24
 11
22.7266
 21
24
  0
LINE
  8
0
 10
22.7266
 20
24
 11
22.7266
 21
38
  0
LINE
  8
0
 10
22.7266
 20
38
 11
36.7266
 21
38
  0
LINE
  8
0
 10
36.7266
 20
38
 11
36.7266
 21
24
  0
LINE
  8
0
 10
18.4766
 20
81
 11
18.4766
 21
95
  0
LINE
  8
0
 10
18.4766
 20
95
 11
32.4766
 21
95
  0
LINE
  8
0
 10
32.4766
 20
95
 11
32.4766
 21
81
  0
LINE
  8
0
 10
32.4766
 20
81
 11
18.4766
 21
81
  0
LINE
  8
0
 10
208.477
 20
81
 11
208.477
 21
95
  0
LINE
  8
0
 10
208.477
 20
95
 11
222.477
 21
95
  0
LINE
  8
0
 10
222.477
 20
95
 11
222.477
 21
81
  0
LINE
  8
0
 10
222.477
 20
81
 11
208.477
 21
81
  0
LINE
  8
0
 10
75.4766
 20
81
 11
75.4766
 21
95
  0
LINE
  8
0
 10
75.4766
 20
95
 11
89.4766
 21
95
  0
LINE
  8
0
 10
89.4766
 20
95
 11
89.4766
 21
81
  0
LINE
  8
0
 10
89.4766
 20
81
 11
75.4766
 21
81
  0
LINE
  8
0
 10
113.477
 20
81
 11
113.477
 21
95
  0
LINE
  8
0
 10
113.477
 20
95
 11
127.477
 21
95
  0
LINE
  8
0
 10
127.477
 20
95
 11
127.477
 21
81
  0
LINE
  8
0
 10
127.477
 20
81
 11
113.477
 21
81
  0
LINE
  8
0
 10
132.477
 20
81
 11
132.477
 21
95
  0
LINE
  8
0
 10
132.477
 20
95
 11
146.477
 21
95
  0
LINE
  8
0
 10
146.477
 20
95
 11
146.477
 21
81
  0
LINE
  8
0
 10
146.477
 20
81
 11
132.477
 21
81
  0
LINE
  8
0
 10
94.4766
 20
81
 11
94.4766
 21
95
  0
LINE
  8
0
 10
94.4766
 20
95
 11
108.477
 21
95
  0
LINE
  8
0
 10
108.477
 20
95
 11
108.477
 21
81
  0
LINE
  8
0
 10
108.477
 20
81
 11
94.4766
 21
81
  0
LINE
  8
0
 10
151.477
 20
81
 11
151.477
 21
95
  0
LINE
  8
0
 10
151.477
 20
95
 11
165.477
 21
95
  0
LINE
  8
0
 10
165.477
 20
95
 11
165.477
 21
81
  0
LINE
  8
0
 10
165.477
 20
81
 11
151.477
 21
81
  0
LINE
  8
0
 10
170.477
 20
81
 11
170.477
 21
95
  0
LINE
  8
0
 10
170.477
 20
95
 11
184.477
 21
95
  0
LINE
  8
0
 10
184.477
 20
95
 11
184.477
 21
81
  0
LINE
  8
0
 10
184.477
 20
81
 11
170.477
 21
81
  0
LINE
  8
0
 10
203.477
 20
81
 11
189.477
 21
81
  0
LINE
  8
0
 10
189.477
 20
81
 11
189.477
 21
95
  0
LINE
  8
0
 10
189.477
 20
95
 11
203.477
 21
95
  0
LINE
  8
0
 10
203.477
 20
95
 11
203.477
 21
81
  0
LINE
  8
0
 10
227.477
 20
81
 11
227.477
 21
95
  0
LINE
  8
0
 10
227.477
 20
95
 11
241.477
 21
95
  0
LINE
  8
0
 10
241.477
 20
95
 11
241.477
 21
81
  0
LINE
  8
0
 10
241.477
 20
81
 11
227.477
 21
81
  0
LINE
  8
0
 10
246.477
 20
81
 11
246.477
 21
95
  0
LINE
  8
0
 10
246.477
 20
95
 11
260.477
 21
95
  0
LINE
  8
0
 10
260.477
 20
95
 11
260.477
 21
81
  0
LINE
  8
0
 10
260.477
 20
81
 11
246.477
 21
81
  0
LINE
  8
0
 10
37.4766
 20
81
 11
37.4766
 21
95
  0
LINE
  8
0
 10
37.4766
 20
95
 11
51.4766
 21
95
  0
LINE
  8
0
 10
51.4766
 20
95
 11
51.4766
 21
81
  0
LINE
  8
0
 10
51.4766
 20
81
 11
37.4766
 21
81
  0
LINE
  8
0
 10
56.4766
 20
81
 11
56.4766
 21
95
  0
LINE
  8
0
 10
56.4766
 20
95
 11
70.4766
 21
95
  0
LINE
  8
0
 10
70.4766
 20
95
 11
70.4766
 21
81
  0
LINE
  8
0
 10
70.4766
 20
81
 11
56.4766
 21
81
  0
LINE
  8
0
 10
28.2266
 20
62.0165
 11
28.2266
 21
76.0165
  0
LINE
  8
0
 10
28.2266
 20
76.0165
 11
42.2266
 21
76.0165
  0
LINE
  8
0
 10
42.2266
 20
76.0165
 11
42.2266
 21
62.0165
  0
LINE
  8
0
 10
42.2266
 20
62.0165
 11
28.2266
 21
62.0165
  0
LINE
  8
0
 10
104.227
 20
62.0165
 11
104.227
 21
76.0165
  0
LINE
  8
0
 10
104.227
 20
76.0165
 11
118.227
 21
76.0165
  0
LINE
  8
0
 10
118.227
 20
76.0165
 11
118.227
 21
62.0165
  0
LINE
  8
0
 10
118.227
 20
62.0165
 11
104.227
 21
62.0165
  0
LINE
  8
0
 10
47.2266
 20
62.0165
 11
47.2266
 21
76.0165
  0
LINE
  8
0
 10
47.2266
 20
76.0165
 11
61.2266
 21
76.0165
  0
LINE
  8
0
 10
61.2266
 20
76.0165
 11
61.2266
 21
62.0165
  0
LINE
  8
0
 10
61.2266
 20
62.0165
 11
47.2266
 21
62.0165
  0
LINE
  8
0
 10
256.227
 20
62.0165
 11
256.227
 21
76.0165
  0
LINE
  8
0
 10
256.227
 20
76.0165
 11
270.227
 21
76.0165
  0
LINE
  8
0
 10
270.227
 20
76.0165
 11
270.227
 21
62.0165
  0
LINE
  8
0
 10
270.227
 20
62.0165
 11
256.227
 21
62.0165
  0
LINE
  8
0
 10
66.2266
 20
62.0165
 11
66.2266
 21
76.0165
  0
LINE
  8
0
 10
66.2266
 20
76.0165
 11
80.2266
 21
76.0165
  0
LINE
  8
0
 10
80.2266
 20
76.0165
 11
80.2266
 21
62.0165
  0
LINE
  8
0
 10
80.2266
 20
62.0165
 11
66.2266
 21
62.0165
  0
LINE
  8
0
 10
161.227
 20
62.0165
 11
161.227
 21
76.0165
  0
LINE
  8
0
 10
161.227
 20
76.0165
 11
175.227
 21
76.0165
  0
LINE
  8
0
 10
175.227
 20
76.0165
 11
175.227
 21
62.0165
  0
LINE
  8
0
 10
175.227
 20
62.0165
 11
161.227
 21
62.0165
  0
LINE
  8
0
 10
123.227
 20
62.0165
 11
123.227
 21
76.0165
  0
LINE
  8
0
 10
123.227
 20
76.0165
 11
137.227
 21
76.0165
  0
LINE
  8
0
 10
137.227
 20
76.0165
 11
137.227
 21
62.0165
  0
LINE
  8
0
 10
137.227
 20
62.0165
 11
123.227
 21
62.0165
  0
LINE
  8
0
 10
142.227
 20
62.0165
 11
142.227
 21
76.0165
  0
LINE
  8
0
 10
142.227
 20
76.0165
 11
156.227
 21
76.0165
  0
LINE
  8
0
 10
156.227
 20
76.0165
 11
156.227
 21
62.0165
  0
LINE
  8
0
 10
156.227
 20
62.0165
 11
142.227
 21
62.0165
  0
LINE
  8
0
 10
180.227
 20
62.0165
 11
180.227
 21
76.0165
  0
LINE
  8
0
 10
180.227
 20
76.0165
 11
194.227
 21
76.0165
  0
LINE
  8
0
 10
194.227
 20
76.0165
 11
194.227
 21
62.0165
  0
LINE
  8
0
 10
194.227
 20
62.0165
 11
180.227
 21
62.0165
  0
LINE
  8
0
 10
85.2266
 20
62.0165
 11
85.2266
 21
76.0165
  0
LINE
  8
0
 10
85.2266
 20
76.0165
 11
99.2266
 21
76.0165
  0
LINE
  8
0
 10
99.2266
 20
76.0165
 11
99.2266
 21
62.0165
  0
LINE
  8
0
 10
99.2266
 20
62.0165
 11
85.2266
 21
62.0165
  0
LINE
  8
0
 10
237.227
 20
62.0165
 11
237.227
 21
76.0165
  0
LINE
  8
0
 10
237.227
 20
76.0165
 11
251.227
 21
76.0165
  0
LINE
  8
0
 10
251.227
 20
76.0165
 11
251.227
 21
62.0165
  0
LINE
  8
0
 10
251.227
 20
62.0165
 11
237.227
 21
62.0165
  0
LINE
  8
0
 10
218.227
 20
62.0165
 11
218.227
 21
76.0165
  0
LINE
  8
0
 10
218.227
 20
76.0165
 11
232.227
 21
76.0165
  0
LINE
  8
0
 10
232.227
 20
76.0165
 11
232.227
 21
62.0165
  0
LINE
  8
0
 10
232.227
 20
62.0165
 11
218.227
 21
62.0165
  0
LINE
  8
0
 10
9.22656
 20
62.0165
 11
9.22656
 21
76
  0
LINE
  8
0
 10
9.22656
 20
76
 11
23.2266
 21
76.0165
  0
LINE
  8
0
 10
23.2266
 20
76.0165
 11
23.2266
 21
62.0165
  0
LINE
  8
0
 10
23.2266
 20
62.0165
 11
9.22656
 21
62.0165
  0
LINE
  8
0
 10
213.227
 20
62.0165
 11
199.227
 21
62.0165
  0
LINE
  8
0
 10
199.227
 20
62.0165
 11
199.227
 21
76.0165
  0
LINE
  8
0
 10
199.227
 20
76.0165
 11
213.227
 21
76.0165
  0
LINE
  8
0
 10
213.227
 20
76.0165
 11
213.227
 21
62.0165
  0
LINE
  8
0
 10
70.4766
 20
43
 11
70.4766
 21
57
  0
LINE
  8
0
 10
70.4766
 20
57
 11
84.4766
 21
57
  0
LINE
  8
0
 10
84.4766
 20
57
 11
84.4766
 21
43
  0
LINE
  8
0
 10
84.4766
 20
43
 11
70.4766
 21
43
  0
LINE
  8
0
 10
146.477
 20
43
 11
146.477
 21
57
  0
LINE
  8
0
 10
146.477
 20
57
 11
160.477
 21
57
  0
LINE
  8
0
 10
160.477
 20
57
 11
160.477
 21
43
  0
LINE
  8
0
 10
160.477
 20
43
 11
146.477
 21
43
  0
LINE
  8
0
 10
89.4766
 20
43
 11
89.4766
 21
57
  0
LINE
  8
0
 10
89.4766
 20
57
 11
103.477
 21
57
  0
LINE
  8
0
 10
103.477
 20
57
 11
103.477
 21
43
  0
LINE
  8
0
 10
103.477
 20
43
 11
89.4766
 21
43
  0
LINE
  8
0
 10
108.477
 20
43
 11
108.477
 21
57
  0
LINE
  8
0
 10
108.477
 20
57
 11
122.477
 21
57
  0
LINE
  8
0
 10
122.477
 20
57
 11
122.477
 21
43
  0
LINE
  8
0
 10
122.477
 20
43
 11
108.477
 21
43
  0
LINE
  8
0
 10
127.477
 20
43
 11
127.477
 21
57
  0
LINE
  8
0
 10
127.477
 20
57
 11
141.477
 21
57
  0
LINE
  8
0
 10
141.477
 20
57
 11
141.477
 21
43
  0
LINE
  8
0
 10
141.477
 20
43
 11
127.477
 21
43
  0
LINE
  8
0
 10
51.4766
 20
43
 11
51.4766
 21
57
  0
LINE
  8
0
 10
51.4766
 20
57
 11
65.4766
 21
57
  0
LINE
  8
0
 10
65.4766
 20
57
 11
65.4766
 21
43
  0
LINE
  8
0
 10
65.4766
 20
43
 11
51.4766
 21
43
  0
LINE
  8
0
 10
203.477
 20
43
 11
203.477
 21
57
  0
LINE
  8
0
 10
203.477
 20
57
 11
217.477
 21
57
  0
LINE
  8
0
 10
217.477
 20
57
 11
217.477
 21
43
  0
LINE
  8
0
 10
217.477
 20
43
 11
203.477
 21
43
  0
LINE
  8
0
 10
222.477
 20
43
 11
222.477
 21
57
  0
LINE
  8
0
 10
222.477
 20
57
 11
236.477
 21
57
  0
LINE
  8
0
 10
236.477
 20
57
 11
236.477
 21
43
  0
LINE
  8
0
 10
236.477
 20
43
 11
222.477
 21
43
  0
LINE
  8
0
 10
241.477
 20
43
 11
241.477
 21
57
  0
LINE
  8
0
 10
241.477
 20
57
 11
255.477
 21
57
  0
LINE
  8
0
 10
255.477
 20
57
 11
255.477
 21
43
  0
LINE
  8
0
 10
255.477
 20
43
 11
241.477
 21
43
  0
LINE
  8
0
 10
13.4766
 20
43
 11
13.4766
 21
56.9992
  0
LINE
  8
0
 10
13.4766
 20
56.9992
 11
27.4766
 21
57
  0
LINE
  8
0
 10
27.4766
 20
57
 11
27.4766
 21
43
  0
LINE
  8
0
 10
27.4766
 20
43
 11
13.4766
 21
43
  0
LINE
  8
0
 10
165.477
 20
43
 11
165.477
 21
57
  0
LINE
  8
0
 10
165.477
 20
57
 11
179.477
 21
57
  0
LINE
  8
0
 10
179.477
 20
57
 11
179.477
 21
43
  0
LINE
  8
0
 10
179.477
 20
43
 11
165.477
 21
43
  0
LINE
  8
0
 10
184.477
 20
43
 11
184.477
 21
57
  0
LINE
  8
0
 10
184.477
 20
57
 11
198.477
 21
57
  0
LINE
  8
0
 10
198.477
 20
57
 11
198.477
 21
43
  0
LINE
  8
0
 10
198.477
 20
43
 11
184.477
 21
43
  0
LINE
  8
0
 10
260.477
 20
43
 11
260.477
 21
57
  0
LINE
  8
0
 10
260.477
 20
57
 11
274.477
 21
57
  0
LINE
  8
0
 10
274.477
 20
57
 11
274.477
 21
43
  0
LINE
  8
0
 10
274.477
 20
43
 11
260.477
 21
43
  0
LINE
  8
0
 10
32.4766
 20
43
 11
32.4766
 21
57
  0
LINE
  8
0
 10
32.4766
 20
57
 11
46.4766
 21
57
  0
LINE
  8
0
 10
46.4766
 20
57
 11
46.4766
 21
43
  0
LINE
  8
0
 10
46.4766
 20
43
 11
32.4766
 21
43
  0
LINE
  8
0
 10
41.7266
 20
24
 11
41.7266
 21
38
  0
LINE
  8
0
 10
41.7266
 20
38
 11
55.7266
 21
38
  0
LINE
  8
0
 10
55.7266
 20
38
 11
55.7266
 21
24
  0
LINE
  8
0
 10
55.7266
 20
24
 11
41.7266
 21
24
  0
LINE
  8
0
 10
155.727
 20
24
 11
155.727
 21
38
  0
LINE
  8
0
 10
155.727
 20
38
 11
169.727
 21
38
  0
LINE
  8
0
 10
169.727
 20
38
 11
169.727
 21
24
  0
LINE
  8
0
 10
169.727
 20
24
 11
155.727
 21
24
  0
LINE
  8
0
 10
174.727
 20
24
 11
174.727
 21
38
  0
LINE
  8
0
 10
174.727
 20
38
 11
188.727
 21
38
  0
LINE
  8
0
 10
188.727
 20
38
 11
188.727
 21
24
  0
LINE
  8
0
 10
188.727
 20
24
 11
174.727
 21
24
  0
LINE
  8
0
 10
193.727
 20
24
 11
193.727
 21
38
  0
LINE
  8
0
 10
193.727
 20
38
 11
207.727
 21
38
  0
LINE
  8
0
 10
207.727
 20
38
 11
207.727
 21
24
  0
LINE
  8
0
 10
207.727
 20
24
 11
193.727
 21
24
  0
LINE
  8
0
 10
136.727
 20
24
 11
136.727
 21
38
  0
LINE
  8
0
 10
136.727
 20
38
 11
150.727
 21
38
  0
LINE
  8
0
 10
150.727
 20
38
 11
150.727
 21
24
  0
LINE
  8
0
 10
150.727
 20
24
 11
136.727
 21
24
  0
LINE
  8
0
 10
250.727
 20
24
 11
250.727
 21
38
  0
LINE
  8
0
 10
250.727
 20
38
 11
264.727
 21
38
  0
LINE
  8
0
 10
264.727
 20
38
 11
264.727
 21
24
  0
LINE
  8
0
 10
264.727
 20
24
 11
250.727
 21
24
  0
LINE
  8
0
 10
212.727
 20
24
 11
212.727
 21
38
  0
LINE
  8
0
 10
212.727
 20
38
 11
226.727
 21
38
  0
LINE
  8
0
 10
226.727
 20
38
 11
226.727
 21
24
  0
LINE
  8
0
 10
226.727
 20
24
 11
212.727
 21
24
  0
LINE
  8
0
 10
231.727
 20
24
 11
231.727
 21
38
  0
LINE
  8
0
 10
231.727
 20
38
 11
245.727
 21
38
  0
LINE
  8
0
 10
245.727
 20
38
 11
245.727
 21
24
  0
LINE
  8
0
 10
245.727
 20
24
 11
231.727
 21
24
  0
LINE
  8
0
 10
60.7266
 20
24
 11
60.7266
 21
38
  0
LINE
  8
0
 10
60.7266
 20
38
 11
74.7266
 21
38
  0
LINE
  8
0
 10
74.7266
 20
38
 11
74.7266
 21
24
  0
LINE
  8
0
 10
74.7266
 20
24
 11
60.7266
 21
24
  0
LINE
  8
0
 10
79.7266
 20
24
 11
79.7266
 21
38
  0
LINE
  8
0
 10
79.7266
 20
38
 11
93.7266
 21
38
  0
LINE
  8
0
 10
93.7266
 20
38
 11
93.7266
 21
24
  0
LINE
  8
0
 10
93.7266
 20
24
 11
79.7266
 21
24
  0
LINE
  8
0
 10
98.7266
 20
24
 11
98.7266
 21
38
  0
LINE
  8
0
 10
98.7266
 20
38
 11
112.727
 21
38
  0
LINE
  8
0
 10
112.727
 20
38
 11
112.727
 21
24
  0
LINE
  8
0
 10
112.727
 20
24
 11
98.7266
 21
24
  0
LINE
  8
0
 10
131.727
 20
24
 11
117.727
 21
24
  0
LINE
  8
0
 10
117.727
 20
24
 11
117.727
 21
38
  0
LINE
  8
0
 10
117.727
 20
38
 11
131.727
 21
38
  0
LINE
  8
0
 10
131.727
 20
38
 11
131.727
 21
24
  0
LINE
  8
0
 10
136.727
 20
5
 11
136.727
 21
19
  0
LINE
  8
0
 10
136.727
 20
19
 11
150.727
 21
19
  0
LINE
  8
0
 10
150.727
 20
19
 11
150.727
 21
5
  0
LINE
  8
0
 10
150.727
 20
5
 11
136.727
 21
5
  0
ENDSEC
  0
SECTION
  2
OBJECTS
  0
DICTIONARY
  0
ENDSEC
  0
EOF
