<?xml version="1.0" encoding="UTF-8" standalone="no"?>
<!-- Created with Inkscape (http://www.inkscape.org/) -->

<svg
   width="210mm"
   height="297mm"
   viewBox="0 0 210 297"
   version="1.1"
   id="svg204725"
   inkscape:version="1.1.2 (0a00cf5339, 2022-02-04)"
   sodipodi:docname="logo.svg"
   xmlns:inkscape="http://www.inkscape.org/namespaces/inkscape"
   xmlns:sodipodi="http://sodipodi.sourceforge.net/DTD/sodipodi-0.dtd"
   xmlns="http://www.w3.org/2000/svg"
   xmlns:svg="http://www.w3.org/2000/svg">
  <sodipodi:namedview
     id="namedview204727"
     pagecolor="#ffffff"
     bordercolor="#666666"
     borderopacity="1.0"
     inkscape:pageshadow="2"
     inkscape:pageopacity="0.0"
     inkscape:pagecheckerboard="0"
     inkscape:document-units="mm"
     showgrid="false"
     inkscape:zoom="0.5894754"
     inkscape:cx="316.38301"
     inkscape:cy="616.64999"
     inkscape:window-width="1850"
     inkscape:window-height="1016"
     inkscape:window-x="70"
     inkscape:window-y="27"
     inkscape:window-maximized="1"
     inkscape:current-layer="layer1" />
  <defs
     id="defs204722" />
  <g
     inkscape:label="Capa 1"
     inkscape:groupmode="layer"
     id="layer1">
    <path
       style="fill:#000000;stroke-width:0.14204"
       d="m 33.16295,18.779904 c -0.806285,-0.28813 -1.355071,-0.74918 -1.670006,-1.40299 -0.264354,-0.54881 -0.292628,-0.90139 -0.316307,-3.94445 -0.02163,-2.78005 0.01107,-3.41277 0.194414,-3.7640704 0.935274,-1.79194 3.480628,-2.25943 4.804577,-0.88243 0.734659,0.7641 0.950027,1.7595504 0.867824,4.0111304 -0.0058,0.15619 -0.0204,1.2109 -0.03266,2.34367 -0.02436,2.25083 -0.160064,2.78149 -0.830666,3.248 -0.844463,0.58748 -2.035635,0.74191 -3.017176,0.39114 z m 2.29119,-0.63685 c 0.831486,-0.44459 0.968771,-0.8443 1.006752,-2.93126 l 0.0336,-1.84653 -1.302509,-0.0408 c -0.795554,-0.025 -1.30251,0.0134 -1.30251,0.10034 0,0.0777 0.463407,0.15989 1.029795,0.18289 0.950909,0.0386 1.033333,0.0666 1.075974,0.36737 0.05665,0.39944 -0.873282,1.38467 -1.441598,1.5273 -1.04858,0.26318 -2.200302,-0.48717 -2.509332,-1.63481 -0.395522,-1.46884 0.618335,-2.98792 1.994191,-2.98792 0.632163,0 1.375833,0.38966 1.659229,0.86942 0.160584,0.27187 0.357111,0.40895 0.586271,0.40895 0.337935,0 0.342909,-0.0175 0.253009,-0.88776 -0.115136,-1.11462 -0.594759,-2.0712204 -1.222201,-2.4376804 -1.03519,-0.60457 -2.649572,-0.16356 -3.314373,0.90534 -0.302021,0.4856104 -0.310931,0.6098304 -0.264438,3.6869004 0.02645,1.75139 0.110792,3.34924 0.187416,3.55076 0.45789,1.20434 2.314017,1.81814 3.53072,1.16758 z m -0.605888,-3.42685 c 0.253898,-0.15484 0.461632,-0.34339 0.461632,-0.41911 0,-0.0757 -0.431448,-0.15653 -0.958774,-0.17963 l -0.958775,-0.0419 -0.04519,-0.47091 c -0.06965,-0.7256 0.151978,-0.87848 1.273587,-0.87848 h 0.980539 l -0.215896,-0.4175 c -0.64585,-1.24892 -2.200872,-1.13073 -2.711412,0.2061 -0.311173,0.81479 -0.124464,1.57722 0.518787,2.11849 0.520288,0.43779 1.031616,0.46344 1.655514,0.0831 z m 3.231424,4.10346 c -0.626352,-0.35982 -0.639183,-0.44509 -0.639183,-4.24843 0,-3.98197 0.105386,-4.7091304 0.802593,-5.5377004 0.624224,-0.74186 1.368245,-1.03261 2.481411,-0.96971 1.236664,0.0699 1.992541,0.55903 2.569011,1.66254 l 0.396772,0.7595104 v 3.95059 3.95063 l -0.374258,0.29438 c -0.417622,0.32852 -0.861388,0.37248 -1.378961,0.13673 -0.467663,-0.21309 -0.648836,-0.61669 -0.694303,-1.54676 l -0.03818,-0.78121 -0.532651,-0.0441 c -0.292959,-0.0241 -0.540565,0.009 -0.550236,0.0709 -0.0097,0.0633 -0.03041,0.48563 -0.0461,0.93848 -0.02119,0.61167 -0.102621,0.89748 -0.316672,1.11153 -0.341807,0.34181 -1.278582,0.4827 -1.679228,0.25254 z m 1.268219,-0.63516 c 0.152112,-0.15216 0.223207,-0.48824 0.223207,-1.05516 0,-1.03101 0.208093,-1.27837 1.07545,-1.27837 0.914599,0 1.197199,0.33411 1.197199,1.41541 0,0.71444 0.04661,0.87218 0.297313,1.00636 0.16352,0.0876 0.451152,0.12046 0.639183,0.0733 l 0.34187,-0.0858 -0.0032,-3.79687 c -0.0029,-3.40097 -0.0308,-3.85784 -0.268621,-4.38155 -0.395367,-0.8706104 -1.139071,-1.3748104 -2.134062,-1.4467704 -1.251176,-0.0906 -2.062349,0.45121 -2.489798,1.6627204 -0.283121,0.80245 -0.324089,7.6628 -0.04741,7.93947 0.24133,0.24133 0.904645,0.21141 1.168791,-0.0527 z m 0.511553,-3.08341 c -0.477569,-0.24165 -0.99855,-1.04947 -0.99855,-1.54834 0,-1.9929 2.388586,-2.58266 3.307209,-0.81657 0.749661,1.44124 -0.865104,3.09535 -2.308659,2.36491 z m 1.393502,-0.61383 c 0.781431,-0.54734 0.667325,-1.76706 -0.199179,-2.12911 -1.344717,-0.56184 -2.245636,1.27092 -1.068856,2.17443 0.316591,0.24305 0.885314,0.22274 1.268035,-0.0452 z m 3.212098,4.13995 -0.348647,-0.34863 v -4.97289 c 0,-5.6421204 -0.08599,-5.2669504 1.207346,-5.2669504 1.257879,0 1.207346,-0.14881 1.207346,3.5560004 v 3.26194 h 0.923264 c 1.418499,0 1.726291,0.48701 1.609882,2.54721 -0.08551,1.5134 -0.17566,1.57197 -2.419576,1.57197 -1.754605,0 -1.845511,-0.0152 -2.179615,-0.34865 z m 3.907577,-0.49426 c 0.207425,-0.38758 0.185261,-2.17693 -0.03051,-2.46343 -0.132115,-0.1754 -0.450197,-0.24596 -1.242857,-0.27572 l -1.065305,-0.0399 -0.03808,-3.37346 -0.03808,-3.3734604 h -0.636612 -0.636612 v 4.7299504 c 0,3.48947 0.04471,4.77464 0.170449,4.9004 0.112402,0.1124 0.715406,0.17045 1.770511,0.17045 1.436559,0 1.615086,-0.028 1.7471,-0.27475 z m 1.754279,0.70715 c -0.570813,-0.24335 -0.612958,-0.54721 -0.612958,-4.41923 0,-4.13065 0.05731,-4.5036204 0.830918,-5.4074004 0.605662,-0.70758 1.195447,-0.97473 2.151935,-0.97473 1.264717,0 2.261921,0.61279 2.889329,1.7755 0.289418,0.5363404 0.309025,0.7874404 0.350157,4.4840904 0.04138,3.71875 0.02949,3.93333 -0.236021,4.26123 -0.220874,0.27275 -0.41334,0.34528 -0.916413,0.34528 -0.930896,0 -1.234223,-0.32757 -1.236984,-1.33589 -0.0027,-1.00744 -0.115489,-1.18284 -0.722922,-1.12484 l -0.482248,0.0461 -0.07101,0.954 c -0.04538,0.60967 -0.15369,1.03655 -0.300051,1.18272 -0.275537,0.27518 -1.213111,0.39681 -1.643723,0.21323 z m 1.205161,-0.60284 c 0.09375,-0.0938 0.170449,-0.54117 0.170449,-0.99429 0,-1.05585 0.289072,-1.392 1.197037,-1.392 0.85015,0 1.217654,0.44734 1.217654,1.48217 0,0.79059 0.168913,1.07456 0.639182,1.07456 0.613766,0 0.639183,-0.1582 0.639183,-3.97765 0,-3.6306 -5.67e-4,-3.63801 -0.368832,-4.37691 -0.518453,-1.0404104 -1.315764,-1.5023704 -2.451189,-1.4202504 -0.977219,0.0706 -1.571392,0.43942 -1.956337,1.21407 -0.236503,0.4759304 -0.270764,0.9593104 -0.308185,4.3480404 -0.03041,2.75511 0.004,3.8681 0.123928,4.01265 0.202971,0.24456 0.864304,0.26242 1.097113,0.0295 z m 0.420806,-3.16879 c -0.867457,-0.48856 -1.111425,-1.9725 -0.45295,-2.75506 1.102101,-1.30977 3.041335,-0.52494 3.042875,1.2315 7.09e-4,0.87086 -0.677977,1.60003 -1.566795,1.6832 -0.407184,0.0381 -0.773529,-0.0191 -1.02313,-0.1597 z m 1.673647,-0.70248 c 0.484249,-0.48424 0.481752,-1.32331 -0.0054,-1.78087 -0.762714,-0.71654 -1.918707,-0.18491 -1.918707,0.88238 0,0.69853 0.499863,1.24714 1.136325,1.24714 0.276748,0 0.567909,-0.12885 0.78768,-0.34865 z m 3.047418,4.50634 c -0.117184,-0.0446 -0.26002,-0.15149 -0.317416,-0.23735 -0.149126,-0.22329 -0.129649,-10.2011904 0.02037,-10.4381004 0.161792,-0.25546 1.392122,-0.36852 1.895002,-0.17413 0.280346,0.10842 0.390612,0.2503 0.390612,0.50281 v 0.35181 l 0.727568,-0.37747 c 0.596138,-0.30929 0.92329,-0.37862 1.81102,-0.38381 l 1.083449,-0.007 v 1.69405 1.6940504 l -1.021615,0.25113 c -1.23711,0.30409 -1.770129,0.56654 -2.161757,1.06442 -0.855169,1.08717 0.208295,2.24612 2.246007,2.44769 l 0.937365,0.0928 v 1.77551 1.77551 l -0.710204,-0.009 c -0.823745,-0.009 -1.509128,-0.30523 -2.328727,-1.00677 l -0.583106,-0.49912 v 0.70472 c 0,0.61072 -0.04261,0.71612 -0.319591,0.79033 -0.391113,0.10488 -1.378608,0.0965 -1.668978,-0.0134 z m 1.420406,-1.46337 c 0,-1.32754 0.207322,-1.40596 1.098045,-0.41525 0.643357,0.71556 1.796084,1.40954 2.346441,1.4126 0.218135,0.001 0.248571,-0.15266 0.248571,-1.25719 v -1.25859 l -0.737108,-0.0873 c -0.995867,-0.11795 -2.202534,-0.7269 -2.541312,-1.28249 -0.364301,-0.59743 -0.345988,-1.35775 0.04699,-1.95123 0.368877,-0.55706 1.574453,-1.21421 2.524,-1.37578 l 0.636403,-0.1082 0.0413,-1.2573504 0.0413,-1.25734 -0.765385,0.0634 c -0.682568,0.0565 -1.360095,0.31522 -2.199822,0.83963 -0.439427,0.27443 -0.739438,0.0653 -0.739438,-0.51556 v -0.50976 l -0.603672,0.0436 -0.603674,0.0436 -0.03746,4.7573504 c -0.0206,2.61654 -0.0067,4.83771 0.03105,4.93592 0.03934,0.10245 0.312349,0.17855 0.641143,0.17855 h 0.572619 z m 6.46163,1.31095 c -0.700066,-0.32904 -1.402243,-1.10672 -1.634384,-1.81011 -0.209228,-0.63396 -0.121915,-2.69609 0.124598,-2.94261 0.130438,-0.13034 0.319527,-0.0134 0.831173,0.51256 1.036481,1.06633 1.847143,1.34036 2.090332,0.70661 0.144563,-0.3767 -0.302125,-0.87201 -1.191118,-1.32076 -1.285498,-0.64893 -1.998612,-1.81339 -1.991777,-3.25248 0.0085,-1.7853904 1.235252,-2.8153804 3.203923,-2.6900204 1.670957,0.10631 2.677453,1.19359 2.660396,2.8737104 -0.0097,0.95446 -0.342852,1.92927 -0.65937,1.92927 -0.112185,0 -0.307804,-0.15854 -0.434708,-0.35216 -0.4979,-0.75989 -1.66117,-0.9893 -1.858812,-0.3666 -0.14369,0.4527 0.220894,0.83235 1.338551,1.39388 1.459475,0.73326 1.641587,1.01923 1.641587,2.57776 0,1.14392 -0.03194,1.28538 -0.39884,1.76641 -0.803176,1.05303 -2.570159,1.51574 -3.721557,0.97454 z m 2.279745,-0.5792 c 0.315721,-0.14344 0.747169,-0.46651 0.958773,-0.71798 0.335602,-0.39884 0.384737,-0.58039 0.384737,-1.42147 0,-1.20787 -0.269911,-1.59532 -1.499852,-2.15301 -0.973522,-0.4414 -1.625043,-1.09939 -1.625043,-1.64114 0,-0.20645 0.181271,-0.5364 0.432979,-0.78811 0.37386,-0.37385 0.508253,-0.42288 0.984281,-0.35903 0.303218,0.0406 0.771128,0.2416 1.039801,0.44654 l 0.488495,0.37259 0.09677,-0.72939 c 0.08004,-0.60338 0.04031,-0.84185 -0.229923,-1.3801504 -0.458273,-0.91289 -0.923379,-1.20847 -2.010488,-1.27769 -1.966745,-0.12516 -2.955252,1.24706 -2.306109,3.2014304 0.269548,0.81155 0.699841,1.2554 1.770677,1.82648 0.419988,0.224 0.855587,0.54762 0.967997,0.71918 0.318186,0.48561 0.185652,1.31815 -0.262928,1.65161 -0.53364,0.39669 -1.204996,0.23683 -2.020722,-0.4812 l -0.655305,-0.57683 v 0.83421 c 0,2.08201 1.697126,3.28647 3.485871,2.47396 z m 2.728405,0.61187 -0.390612,-0.21192 v -5.03463 -5.0346304 l 0.357412,-0.23418 c 0.256584,-0.16811 0.555782,-0.21512 1.060593,-0.16659 1.205209,0.11576 1.138976,-0.18748 1.136789,5.2055104 -0.0011,2.62708 -0.03943,4.91628 -0.08526,5.08715 -0.150972,0.56293 -1.346295,0.78678 -2.07893,0.38933 z m 1.415006,-0.52244 c 0.08076,-0.10554 0.13104,-2.07934 0.123927,-4.86488 l -0.01192,-4.6873404 h -0.639183 -0.639183 l -0.03746,4.7487804 c -0.02923,3.70459 0.002,4.77382 0.142046,4.8627 0.275368,0.17481 0.909787,0.13941 1.061851,-0.0592 z m 1.354787,0.53598 c -0.304011,-0.22115 -0.319592,-0.32545 -0.319592,-2.13929 v -1.90678 l 0.390611,-0.0802 c 0.214836,-0.0441 0.630305,-0.14378 0.923264,-0.22147 l 0.532652,-0.14126 v -2.88874 c 0,-3.3250404 -0.01543,-3.2833604 1.21642,-3.2713704 1.259366,0.0117 1.198272,-0.23648 1.198272,4.8789304 0,3.85546 -0.03177,4.54167 -0.222949,4.8146 -0.589409,0.84151 -3.017725,1.46549 -3.718678,0.95557 z m 2.398706,-0.71874 c 1.036357,-0.52532 0.974758,-0.21025 0.974758,-4.98551 V 8.7543536 l -0.343867,-0.0862 c -0.870985,-0.21862 -0.856146,-0.26579 -0.941791,2.9944404 -0.04307,1.63963 -0.09102,2.99017 -0.106526,3.00122 -0.183961,0.13103 -1.237015,0.47706 -1.451499,0.47706 -0.262942,0 -0.281207,0.10001 -0.281207,1.53877 0,0.84632 0.04793,1.58801 0.106526,1.6482 0.16748,0.17207 1.516088,-0.0134 2.043606,-0.28037 z m 2.3433,0.63409 -0.374258,-0.29438 8.53e-4,-3.86032 c 4.26e-4,-2.28309 0.06236,-4.08202 0.151491,-4.40299 0.183627,-0.6612704 1.033017,-1.6336604 1.654171,-1.8937004 0.25133,-0.10521 0.780708,-0.19134 1.176339,-0.19134 1.264716,0 2.261922,0.61279 2.88933,1.7755 0.288272,0.5342304 0.309229,0.7924404 0.350882,4.3230704 0.02436,2.0652 0.0074,3.90169 -0.03756,4.08107 -0.113913,0.45387 -0.843852,0.80526 -1.440311,0.69336 -0.633161,-0.11878 -0.909605,-0.55011 -0.912265,-1.4234 -0.0029,-0.92448 -0.125236,-1.10131 -0.722923,-1.04423 -0.472062,0.0451 -0.483032,0.0611 -0.519364,0.75624 -0.05714,1.09331 -0.146542,1.32689 -0.597071,1.55987 -0.577455,0.29861 -1.176612,0.26947 -1.619306,-0.0787 z m 1.339568,-0.4208 c 0.224489,-0.12013 0.274742,-0.30201 0.274742,-0.99429 0,-1.07251 0.285172,-1.41643 1.171836,-1.41324 0.33202,10e-4 0.674002,0.0491 0.759959,0.10654 0.302148,0.20175 0.482897,0.73176 0.482897,1.416 0,0.75011 0.174608,1.03204 0.639183,1.03204 0.613764,0 0.639183,-0.15821 0.639183,-3.97766 0,-3.6306 -5.69e-4,-3.63801 -0.368834,-4.37691 -0.518453,-1.0404104 -1.315763,-1.5023704 -2.451188,-1.4202504 -1.00644,0.0728 -1.586483,0.44985 -1.997169,1.29821 -0.277471,0.5731904 -0.296271,0.8507204 -0.296271,4.3738604 0,2.73649 0.04645,3.8083 0.170448,3.9323 0.209402,0.2094 0.609726,0.219 0.975214,0.0235 z m 0.5251,-3.20022 c -0.861475,-0.46742 -1.112006,-1.9638 -0.45877,-2.74011 1.098912,-1.306 3.049226,-0.52267 3.049226,1.22468 0,0.5481 -0.07537,0.71027 -0.551452,1.18633 -0.454356,0.45436 -0.64818,0.55045 -1.100815,0.54577 -0.30215,-0.003 -0.724335,-0.10067 -0.938189,-0.21667 z m 1.673647,-0.69446 c 0.890186,-0.89017 -0.01877,-2.46134 -1.188122,-2.0537 -1.208067,0.42113 -0.877822,2.40235 0.400444,2.40235 0.276747,0 0.567909,-0.12885 0.787678,-0.34865 z m 6.914485,3.18887 c -0.255845,-0.15603 -0.522886,-0.43541 -0.593421,-0.62093 -0.221163,-0.5817 -0.49367,-6.5891 -0.316529,-6.9778804 0.326848,-0.71736 0.531348,-0.75316 4.594453,-0.80432 3.662104,-0.0461 3.800834,-0.0377 4.190194,0.25021 0.54544,0.40348 0.67958,1.0197704 0.97087,4.4604904 0.18257,2.15636 0.20401,2.96074 0.0859,3.22007 -0.30745,0.67476 -0.83019,0.75708 -4.804141,0.7565 -3.409568,-4.2e-4 -3.694185,-0.0201 -4.127279,-0.28414 z m 8.348437,-0.42552 c 0.34029,-0.34031 0.34209,-0.43283 0.0713,-3.65046 -0.26621,-3.16251 -0.308,-3.40424 -0.64734,-3.7435704 -0.25911,-0.25912 -0.50025,-0.27616 -3.905252,-0.27616 -3.834185,0 -4.34262,0.0763 -4.499291,0.6754304 -0.03749,0.14345 0.01874,1.69229 0.124951,3.44204 0.177454,2.92322 0.218109,3.20795 0.500999,3.50909 0.306972,0.32675 0.319261,0.3277 4.18924,0.3277 3.691963,0 3.895203,-0.0134 4.165443,-0.28407 z m -4.451404,-1.5159 c -0.02632,-0.0263 -0.795432,-0.0709 -1.709135,-0.0994 -0.913701,-0.0283 -1.701415,-0.0916 -1.750475,-0.14075 -0.08401,-0.0841 0.532337,-1.35588 0.859941,-1.77452 0.224963,-0.28747 1.700333,-0.14713 2.174418,0.20681 l 0.375043,0.28002 0.65284,-0.33082 c 0.458584,-0.23237 0.840952,-0.31844 1.284958,-0.28921 0.579714,0.038 0.682244,0.10631 1.237094,0.82281 0.33275,0.42969 0.60758,0.85567 0.61075,0.94666 0.005,0.15703 -0.56827,0.23211 -2.870704,0.37532 -0.44929,0.028 -0.838409,0.0292 -0.86473,0.003 z m 3.148154,-0.54392 c 0.0253,-0.0247 -0.127,-0.30626 -0.33846,-0.62592 -0.36003,-0.54405 -0.42755,-0.58121 -1.05613,-0.58121 -0.479858,0 -0.819044,0.10012 -1.188462,0.35083 l -0.516969,0.35081 -0.526407,-0.35721 c -0.421811,-0.28626 -0.668016,-0.34891 -1.239119,-0.31532 -0.667423,0.0393 -0.732947,0.078 -1.031137,0.61008 l -0.318424,0.56817 1.593053,0.0709 c 1.528235,0.0682 4.525965,0.022 4.622055,-0.0714 z m -4.395098,-2.32674 c -0.701116,-0.70112 -0.742334,-1.26808 -0.136258,-1.87416 0.82308,-0.82308 2.34891,-0.4431 2.718579,0.677 0.313065,0.94862 -0.38403,1.74862 -1.523701,1.74862 -0.399749,0 -0.623968,-0.11676 -1.058623,-0.55146 z m 2.005278,-0.1587 c 0.411459,-0.41145 0.356902,-0.94332 -0.14864,-1.44884 -0.369954,-0.36996 -0.506423,-0.42076 -0.940885,-0.35025 -1.028975,0.16693 -1.380205,1.04676 -0.692452,1.73452 0.450242,0.45024 1.363204,0.48333 1.78196,0.0646 z m -72.388825,3.66688 c -0.73164,-0.71747 -1.330254,-1.42057 -1.330254,-1.56245 0,-0.23767 0.166523,-0.2579 2.12412,-0.2579 h 2.12412 l 0.042,0.91158 0.04201,0.91161 1.175552,-1.0715 1.175553,-1.07148 -0.680062,-0.72787 c -0.374034,-0.40031 -0.917761,-1.01548 -1.208283,-1.36704 l -0.528221,-0.63918 -0.0029,1.17184 -0.0029,1.17183 h -2.135067 c -1.820152,0 -2.147846,-0.0334 -2.221697,-0.22574 -0.122787,-0.31998 2.455398,-2.89915 2.898043,-2.89915 0.529914,0 0.375593,0.30994 -0.671889,1.34938 -0.546855,0.54268 -0.994283,1.03632 -0.994283,1.097 0,0.0607 0.575264,0.11041 1.278366,0.11041 h 1.278365 v -1.27836 c 0,-1.25671 0.0059,-1.27837 0.342855,-1.27837 0.254157,0 0.741063,0.42577 1.882039,1.6457 0.846551,0.90512 1.558236,1.72769 1.581522,1.8279 0.0537,0.23111 -3.169978,3.25779 -3.534741,3.31873 -0.249936,0.0418 -0.271675,-0.052 -0.271675,-1.17183 v -1.21723 h -1.310322 -1.310319 l 1.026239,1.03315 c 0.997712,1.0044 1.268289,1.52358 0.794045,1.52358 -0.127703,0 -0.830809,-0.58704 -1.562447,-1.30454 z M 6.3335967,13.791434 v -3.19592 h 3.195914 3.1959143 v 3.19592 3.19591 H 9.5295107 6.3335967 Z m 5.6816263,0 v -2.48571 H 9.5295107 7.0437987 v 2.48571 2.48572 h 2.485712 2.4857123 z m -4.2612203,1.42041 c 0,-0.28409 0.07101,-0.3551 0.355101,-0.3551 0.284082,0 0.355103,0.0709 0.355103,0.3551 0,0.28408 -0.07101,0.35509 -0.355103,0.35509 -0.28408,0 -0.355101,-0.0709 -0.355101,-0.35509 z m 1.420406,0 c 0,-0.28409 0.07101,-0.3551 0.355102,-0.3551 0.284081,0 0.355102,0.0709 0.355102,0.3551 0,0.28408 -0.07101,0.35509 -0.355102,0.35509 -0.284081,0 -0.355102,-0.0709 -0.355102,-0.35509 z m 1.4204063,0 c 0,-0.28409 0.07101,-0.3551 0.355102,-0.3551 0.284081,0 0.355101,0.0709 0.355101,0.3551 0,0.28408 -0.07101,0.35509 -0.355101,0.35509 -0.284082,0 -0.355102,-0.0709 -0.355102,-0.35509 z m -2.8408123,-1.42041 c 0,-0.28407 0.07101,-0.35511 0.355101,-0.35511 0.284082,0 0.355103,0.0709 0.355103,0.35511 0,0.28408 -0.07101,0.35511 -0.355103,0.35511 -0.28408,0 -0.355101,-0.0709 -0.355101,-0.35511 z m 1.420406,-1.42041 c 0,-0.28408 0.07101,-0.35509 0.355102,-0.35509 0.284081,0 0.355102,0.0709 0.355102,0.35509 0,0.28409 -0.07101,0.35511 -0.355102,0.35511 -0.284081,0 -0.355102,-0.0709 -0.355102,-0.35511 z"
       id="path204990" />
  </g>
</svg>
