999
FreeCAD v0.21 33694 (Git)
  0
SECTION
  2
HEADER
  9
$ACADVER
  1
AC1014
  9
$ACADMAINTVER
 70
     9
  9
$DWGCODEPAGE
  3
ANSI_1252
  9
$TEXTSTYLE
  7
STANDARD
  9
$DIMSTYLE
  2
STANDARD
  9
$DIMTXSTY
  7
STANDARD
  9
$CMLSTYLE
  2
STANDARD
  9
$LUNITS
 70
2
  9
$INSUNITS
 70
4
  9
$PEXTMAX
 10
50
 20
50
 30
50
  9
$PEXTMIN
 10
0
 20
0
 30
0
  9
$HANDSEED
  5
FFFF
  0
ENDSEC
  0
SECTION
  2
CLASSES
  0
CLASS
  1
ACDBDICTIONARYWDFLT
  2
AcDbDictionaryWithDefault
  3
ObjectDBX Classes
 90
        0
280
     0
281
     0
  0
CLASS
  1
XRECORD
  2
AcDbXrecord
  3
ObjectDBX Classes
 90
        0
280
     0
281
     0
  0
CLASS
  1
LWPOLYLINE
  2
AcDbPolyline
  3
ObjectDBX Classes
 90
        0
280
     0
281
     1
  0
ENDSEC
  0
SECTION
  2
TABLES
  0
TABLE
  2
VPORT
  5
20
330
0
100
AcDbSymbolTable
 70
     1
  0
VPORT
  5
21
330
20
100
AcDbSymbolTableRecord
100
AcDbViewportTableRecord
  2
*ACTIVE
 70
     0
  0
ENDTAB
  0
TABLE
  2
LTYPE
  5
22
330
0
100
AcDbSymbolTable
 70
     1
  0
LTYPE
  5
23
330
21
100
AcDbSymbolTableRecord
100
AcDbLinetypeTableRecord
  2
BYBLOCK
 70
     0
  3

 72
    65
 73
     0
 40
0.0
  0
LTYPE
  5
24
330
21
100
AcDbSymbolTableRecord
100
AcDbLinetypeTableRecord
  2
BYLAYER
 70
     0
  3

 72
    65
 73
     0
 40
0.0
  0
LTYPE
  5
25
330
21
100
AcDbSymbolTableRecord
100
AcDbLinetypeTableRecord
  2
CONTINUOUS
 70
     0
  3
Solid line
 72
    65
 73
     0
 40
0.0
  0
ENDTAB
  0
TABLE
  2
LAYER
  5
B9E
330
0
100
AcDbSymbolTable
 70
3
  0
LAYER
  5
B9F
330
B9E
100
AcDbSymbolTableRecord
100
AcDbLayerTableRecord
  2
0
 70
   0
 62
   7
  6
CONTINUOUS
  0
LAYER
  5
BA0
330
B9E
100
AcDbSymbolTableRecord
100
AcDbLayerTableRecord
  2
none
 70
    0
 62
    7
  6
CONTINUOUS
  0
LAYER
  5
BA1
330
B9E
100
AcDbSymbolTableRecord
100
AcDbLayerTableRecord
  2
Sketch007
 70
    0
 62
    7
  6
CONTINUOUS
  0
ENDTAB
  0
TABLE
  2
STYLE
  5
70
330
0
100
AcDbSymbolTable
 70
     2
  0
STYLE
  5
71
330
70
100
AcDbSymbolTableRecord
100
AcDbTextStyleTableRecord
  2
STANDARD
 70
     0
 40
0.0
 41
1.0
 50
0.0
 71
     0
 42
2.5
  3
arial.ttf
  4

  0
STYLE
  5
72
330
70
100
AcDbSymbolTableRecord
100
AcDbTextStyleTableRecord
  2
ANNOTATIVE
 70
     0
 40
0.0
 41
1.0
 50
0.0
 71
     0
 42
2.5
  3
arial.ttf
  4

  0
ENDTAB
  0
TABLE
  2
VIEW
  5
73
330
0
100
AcDbSymbolTable
 70
     0
  0
ENDTAB
  0
TABLE
  2
UCS
  5
74
330
0
100
AcDbSymbolTable
 70
     0
  0
ENDTAB
  0
TABLE
  2
APPID
  5
75
330
0
100
AcDbSymbolTable
 70
     2
  0
APPID
  5
76
330
75
100
AcDbSymbolTableRecord
100
AcDbRegAppTableRecord
  2
ACAD
 70
     0
  0
APPID
  5
77
330
75
100
AcDbSymbolTableRecord
100
AcDbRegAppTableRecord
  2
ACADANNOTATIVE
 70
     0
  0
ENDTAB
  0
TABLE
  2
DIMSTYLE
  5
78
330
0
100
AcDbSymbolTable
 70
     2
  0
DIMSTYLE
105
79
330
78
100
AcDbSymbolTableRecord
100
AcDbDimStyleTableRecord
  2
STANDARD
 70
     0
  3

  4

  5

  6

  7

 40
0.0
 41
2.5
 42
0.625
 43
3.75
 44
1.25
 45
0.0
 46
0.0
 47
0.0
 48
0.0
140
2.5
141
2.5
142
0.0
143
0.03937007874016
144
1.0
145
0.0
146
1.0
147
0.625
 71
     0
 72
     0
 73
     0
 74
     0
 75
     0
 76
     0
 77
     1
 78
     8
170
     0
171
     3
172
     1
173
     0
174
     0
175
     0
176
     0
177
     0
178
     0
270
     2
271
     2
272
     2
273
     2
274
     3
340
71
275
     0
280
     0
281
     0
282
     0
283
     0
284
     8
285
     0
286
     0
287
     3
288
     0
  0
ENDTAB
  0
TABLE
  2
BLOCK_RECORD
  5
A01
330
0
100
AcDbSymbolTable
  70
5
  0
BLOCK_RECORD
  5
A02
330
A01
100
AcDbSymbolTableRecord
100
AcDbBlockTableRecord
  2
*MODEL_SPACE
  0
BLOCK_RECORD
  5
A03
330
A01
100
AcDbSymbolTableRecord
100
AcDbBlockTableRecord
  2
*PAPER_SPACE
  0
ENDTAB
  0
ENDSEC
  0
SECTION
  2
BLOCKS
  0
BLOCK
  5
A04
330
A02
100
AcDbEntity
  8
0
100
AcDbBlockBegin
  2
*MODEL_SPACE
 70
   0
 10
0
 20
0
 30
0
  3
*MODEL_SPACE
  1
 
  0
ENDBLK
  5
A05
330
A02
100
AcDbEntity
  8
0
100
AcDbBlockEnd
  0
BLOCK
  5
A06
330
A03
100
AcDbEntity
 67
1
  8
0
100
AcDbBlockBegin
  2
*PAPER_SPACE
 70
   0
 10
0
 20
0
 30
0
  3
*PAPER_SPACE
  1
 
  0
ENDBLK
  5
A07
330
A03
100
AcDbEntity
 67
    1
  8
0
100
AcDbBlockEnd
  0
ENDSEC
  0
SECTION
  2
ENTITIES
  0
SPLINE
  5
A08
330
A02
100
AcDbEntity
  8
Sketch007
100
AcDbSpline
210
0
220
0
230
1
 70
8
 71
2
 72
6
 73
3
 74
0
 40
0
 40
0
 40
0
 40
1
 40
1
 40
1
 10
28.7356
 20
-285.704
 30
0
 10
28.0183
 20
-285.449
 30
0
 10
27.7402
 20
-284.867
 30
0
  0
SPLINE
  5
A09
330
A02
100
AcDbEntity
  8
Sketch007
100
AcDbSpline
210
0
220
0
230
1
 70
8
 71
3
 72
8
 73
4
 74
0
 40
0
 40
0
 40
0
 40
0
 40
1
 40
1
 40
1
 40
1
 10
27.7402
 20
-284.867
 30
0
 10
27.5826
 20
-284.54
 30
0
 10
27.5658
 20
-284.33
 30
0
 10
27.5516
 20
-282.516
 30
0
  0
SPLINE
  5
A0A
330
A02
100
AcDbEntity
  8
Sketch007
100
AcDbSpline
210
0
220
0
230
1
 70
8
 71
3
 72
8
 73
4
 74
0
 40
0
 40
0
 40
0
 40
0
 40
1
 40
1
 40
1
 40
1
 10
27.5516
 20
-282.516
 30
0
 10
27.5388
 20
-280.859
 30
0
 10
27.5582
 20
-280.482
 30
0
 10
27.6675
 20
-280.272
 30
0
  0
SPLINE
  5
A0B
330
A02
100
AcDbEntity
  8
Sketch007
100
AcDbSpline
210
0
220
0
230
1
 70
8
 71
3
 72
8
 73
4
 74
0
 40
0
 40
0
 40
0
 40
0
 40
1
 40
1
 40
1
 40
1
 10
27.6675
 20
-280.272
 30
0
 10
28.225
 20
-279.204
 30
0
 10
29.7422
 20
-278.926
 30
0
 10
30.5314
 20
-279.747
 30
0
  0
SPLINE
  5
A0C
330
A02
100
AcDbEntity
  8
Sketch007
100
AcDbSpline
210
0
220
0
230
1
 70
8
 71
3
 72
8
 73
4
 74
0
 40
0
 40
0
 40
0
 40
0
 40
1
 40
1
 40
1
 40
1
 10
30.5314
 20
-279.747
 30
0
 10
30.9693
 20
-280.202
 30
0
 10
31.0977
 20
-280.795
 30
0
 10
31.0487
 20
-282.137
 30
0
  0
SPLINE
  5
A0D
330
A02
100
AcDbEntity
  8
Sketch007
100
AcDbSpline
210
0
220
0
230
1
 70
8
 71
3
 72
8
 73
4
 74
0
 40
0
 40
0
 40
0
 40
0
 40
1
 40
1
 40
1
 40
1
 10
31.0487
 20
-282.137
 30
0
 10
31.0453
 20
-282.231
 30
0
 10
31.0365
 20
-282.859
 30
0
 10
31.0292
 20
-283.534
 30
0
  0
SPLINE
  5
A0E
330
A02
100
AcDbEntity
  8
Sketch007
100
AcDbSpline
210
0
220
0
230
1
 70
8
 71
3
 72
8
 73
4
 74
0
 40
0
 40
0
 40
0
 40
0
 40
1
 40
1
 40
1
 40
1
 10
31.0292
 20
-283.534
 30
0
 10
31.0147
 20
-284.876
 30
0
 10
30.9338
 20
-285.192
 30
0
 10
30.5341
 20
-285.47
 30
0
  0
SPLINE
  5
A0F
330
A02
100
AcDbEntity
  8
Sketch007
100
AcDbSpline
210
0
220
0
230
1
 70
8
 71
3
 72
8
 73
4
 74
0
 40
0
 40
0
 40
0
 40
0
 40
1
 40
1
 40
1
 40
1
 10
30.5341
 20
-285.47
 30
0
 10
30.0307
 20
-285.821
 30
0
 10
29.3207
 20
-285.913
 30
0
 10
28.7356
 20
-285.704
 30
0
  0
SPLINE
  5
A10
330
A02
100
AcDbEntity
  8
Sketch007
100
AcDbSpline
210
0
220
0
230
1
 70
8
 71
1
 72
4
 73
2
 74
0
 40
0
 40
0
 40
2e-06
 40
2e-06
 10
28.7356
 20
-285.704
 30
0
 10
28.7356
 20
-285.704
 30
0
  0
SPLINE
  5
A11
330
A02
100
AcDbEntity
  8
Sketch007
100
AcDbSpline
210
0
220
0
230
1
 70
8
 71
3
 72
8
 73
4
 74
0
 40
0
 40
0
 40
0
 40
0
 40
1
 40
1
 40
1
 40
1
 10
30.1014
 20
-285.324
 30
0
 10
30.597
 20
-285.059
 30
0
 10
30.6788
 20
-284.821
 30
0
 10
30.7015
 20
-283.577
 30
0
  0
SPLINE
  5
A12
330
A02
100
AcDbEntity
  8
Sketch007
100
AcDbSpline
210
0
220
0
230
1
 70
8
 71
1
 72
4
 73
2
 74
0
 40
0
 40
0
 40
1.10085
 40
1.10085
 10
30.7015
 20
-283.577
 30
0
 10
30.7215
 20
-282.476
 30
0
  0
SPLINE
  5
A13
330
A02
100
AcDbEntity
  8
Sketch007
100
AcDbSpline
210
0
220
0
230
1
 70
8
 71
1
 72
4
 73
2
 74
0
 40
0
 40
0
 40
0.776771
 40
0.776771
 10
30.7215
 20
-282.476
 30
0
 10
29.9451
 20
-282.452
 30
0
  0
SPLINE
  5
A14
330
A02
100
AcDbEntity
  8
Sketch007
100
AcDbSpline
210
0
220
0
230
1
 70
8
 71
3
 72
8
 73
4
 74
0
 40
0
 40
0
 40
0
 40
0
 40
1
 40
1
 40
1
 40
1
 10
29.9451
 20
-282.452
 30
0
 10
29.4709
 20
-282.437
 30
0
 10
29.1687
 20
-282.46
 30
0
 10
29.1687
 20
-282.512
 30
0
  0
SPLINE
  5
A15
330
A02
100
AcDbEntity
  8
Sketch007
100
AcDbSpline
210
0
220
0
230
1
 70
8
 71
3
 72
8
 73
4
 74
0
 40
0
 40
0
 40
0
 40
0
 40
1
 40
1
 40
1
 40
1
 10
29.1687
 20
-282.512
 30
0
 10
29.1687
 20
-282.558
 30
0
 10
29.4449
 20
-282.607
 30
0
 10
29.7825
 20
-282.621
 30
0
  0
SPLINE
  5
A16
330
A02
100
AcDbEntity
  8
Sketch007
100
AcDbSpline
210
0
220
0
230
1
 70
8
 71
3
 72
8
 73
4
 74
0
 40
0
 40
0
 40
0
 40
0
 40
1
 40
1
 40
1
 40
1
 10
29.7825
 20
-282.621
 30
0
 10
30.3493
 20
-282.644
 30
0
 10
30.3985
 20
-282.66
 30
0
 10
30.4239
 20
-282.84
 30
0
  0
SPLINE
  5
A17
330
A02
100
AcDbEntity
  8
Sketch007
100
AcDbSpline
210
0
220
0
230
1
 70
8
 71
3
 72
8
 73
4
 74
0
 40
0
 40
0
 40
0
 40
0
 40
1
 40
1
 40
1
 40
1
 10
30.4239
 20
-282.84
 30
0
 10
30.4577
 20
-283.078
 30
0
 10
29.9034
 20
-283.665
 30
0
 10
29.5646
 20
-283.75
 30
0
  0
SPLINE
  5
A18
330
A02
100
AcDbEntity
  8
Sketch007
100
AcDbSpline
210
0
220
0
230
1
 70
8
 71
3
 72
8
 73
4
 74
0
 40
0
 40
0
 40
0
 40
0
 40
1
 40
1
 40
1
 40
1
 10
29.5646
 20
-283.75
 30
0
 10
28.9396
 20
-283.907
 30
0
 10
28.2531
 20
-283.46
 30
0
 10
28.0688
 20
-282.776
 30
0
  0
SPLINE
  5
A19
330
A02
100
AcDbEntity
  8
Sketch007
100
AcDbSpline
210
0
220
0
230
1
 70
8
 71
3
 72
8
 73
4
 74
0
 40
0
 40
0
 40
0
 40
0
 40
1
 40
1
 40
1
 40
1
 10
28.0688
 20
-282.776
 30
0
 10
27.8331
 20
-281.9
 30
0
 10
28.4374
 20
-280.995
 30
0
 10
29.2575
 20
-280.995
 30
0
  0
SPLINE
  5
A1A
330
A02
100
AcDbEntity
  8
Sketch007
100
AcDbSpline
210
0
220
0
230
1
 70
8
 71
3
 72
8
 73
4
 74
0
 40
0
 40
0
 40
0
 40
0
 40
1
 40
1
 40
1
 40
1
 10
29.2575
 20
-280.995
 30
0
 10
29.6343
 20
-280.995
 30
0
 10
30.0776
 20
-281.227
 30
0
 10
30.2466
 20
-281.513
 30
0
  0
SPLINE
  5
A1B
330
A02
100
AcDbEntity
  8
Sketch007
100
AcDbSpline
210
0
220
0
230
1
 70
8
 71
2
 72
6
 73
3
 74
0
 40
0
 40
0
 40
0
 40
1
 40
1
 40
1
 10
30.2466
 20
-281.513
 30
0
 10
30.3906
 20
-281.756
 30
0
 10
30.596
 20
-281.757
 30
0
  0
SPLINE
  5
A1C
330
A02
100
AcDbEntity
  8
Sketch007
100
AcDbSpline
210
0
220
0
230
1
 70
8
 71
3
 72
8
 73
4
 74
0
 40
0
 40
0
 40
0
 40
0
 40
1
 40
1
 40
1
 40
1
 10
30.596
 20
-281.757
 30
0
 10
30.7975
 20
-281.756
 30
0
 10
30.8004
 20
-281.746
 30
0
 10
30.7468
 20
-281.227
 30
0
  0
SPLINE
  5
A1D
330
A02
100
AcDbEntity
  8
Sketch007
100
AcDbSpline
210
0
220
0
230
1
 70
8
 71
3
 72
8
 73
4
 74
0
 40
0
 40
0
 40
0
 40
0
 40
1
 40
1
 40
1
 40
1
 10
30.7468
 20
-281.227
 30
0
 10
30.6782
 20
-280.563
 30
0
 10
30.3923
 20
-279.993
 30
0
 10
30.0183
 20
-279.774
 30
0
  0
SPLINE
  5
A1E
330
A02
100
AcDbEntity
  8
Sketch007
100
AcDbSpline
210
0
220
0
230
1
 70
8
 71
3
 72
8
 73
4
 74
0
 40
0
 40
0
 40
0
 40
0
 40
1
 40
1
 40
1
 40
1
 10
30.0183
 20
-279.774
 30
0
 10
29.4013
 20
-279.414
 30
0
 10
28.439
 20
-279.677
 30
0
 10
28.0427
 20
-280.314
 30
0
  0
SPLINE
  5
A1F
330
A02
100
AcDbEntity
  8
Sketch007
100
AcDbSpline
210
0
220
0
230
1
 70
8
 71
3
 72
8
 73
4
 74
0
 40
0
 40
0
 40
0
 40
0
 40
1
 40
1
 40
1
 40
1
 10
28.0427
 20
-280.314
 30
0
 10
27.8627
 20
-280.603
 30
0
 10
27.8574
 20
-280.677
 30
0
 10
27.8851
 20
-282.512
 30
0
  0
SPLINE
  5
A20
330
A02
100
AcDbEntity
  8
Sketch007
100
AcDbSpline
210
0
220
0
230
1
 70
8
 71
3
 72
8
 73
4
 74
0
 40
0
 40
0
 40
0
 40
0
 40
1
 40
1
 40
1
 40
1
 10
27.8851
 20
-282.512
 30
0
 10
27.9008
 20
-283.556
 30
0
 10
27.9511
 20
-284.508
 30
0
 10
27.9968
 20
-284.628
 30
0
  0
SPLINE
  5
A21
330
A02
100
AcDbEntity
  8
Sketch007
100
AcDbSpline
210
0
220
0
230
1
 70
8
 71
3
 72
8
 73
4
 74
0
 40
0
 40
0
 40
0
 40
0
 40
1
 40
1
 40
1
 40
1
 10
27.9968
 20
-284.628
 30
0
 10
28.2697
 20
-285.346
 30
0
 10
29.3761
 20
-285.712
 30
0
 10
30.1014
 20
-285.324
 30
0
  0
SPLINE
  5
A22
330
A02
100
AcDbEntity
  8
Sketch007
100
AcDbSpline
210
0
220
0
230
1
 70
8
 71
1
 72
4
 73
2
 74
0
 40
0
 40
0
 40
6.00083e-05
 40
6.00083e-05
 10
30.1014
 20
-285.324
 30
0
 10
30.1014
 20
-285.324
 30
0
  0
SPLINE
  5
A23
330
A02
100
AcDbEntity
  8
Sketch007
100
AcDbSpline
210
0
220
0
230
1
 70
8
 71
3
 72
8
 73
4
 74
0
 40
0
 40
0
 40
0
 40
0
 40
1
 40
1
 40
1
 40
1
 10
29.7402
 20
-283.281
 30
0
 10
29.8915
 20
-283.189
 30
0
 10
30.0154
 20
-283.077
 30
0
 10
30.0154
 20
-283.032
 30
0
  0
SPLINE
  5
A24
330
A02
100
AcDbEntity
  8
Sketch007
100
AcDbSpline
210
0
220
0
230
1
 70
8
 71
3
 72
8
 73
4
 74
0
 40
0
 40
0
 40
0
 40
0
 40
1
 40
1
 40
1
 40
1
 10
30.0154
 20
-283.032
 30
0
 10
30.0154
 20
-282.986
 30
0
 10
29.7582
 20
-282.938
 30
0
 10
29.4439
 20
-282.924
 30
0
  0
SPLINE
  5
A25
330
A02
100
AcDbEntity
  8
Sketch007
100
AcDbSpline
210
0
220
0
230
1
 70
8
 71
1
 72
4
 73
2
 74
0
 40
0
 40
0
 40
0.572047
 40
0.572047
 10
29.4439
 20
-282.924
 30
0
 10
28.8724
 20
-282.899
 30
0
  0
SPLINE
  5
A26
330
A02
100
AcDbEntity
  8
Sketch007
100
AcDbSpline
210
0
220
0
230
1
 70
8
 71
1
 72
4
 73
2
 74
0
 40
0
 40
0
 40
0.28199
 40
0.28199
 10
28.8724
 20
-282.899
 30
0
 10
28.8454
 20
-282.619
 30
0
  0
SPLINE
  5
A27
330
A02
100
AcDbEntity
  8
Sketch007
100
AcDbSpline
210
0
220
0
230
1
 70
8
 71
3
 72
8
 73
4
 74
0
 40
0
 40
0
 40
0
 40
0
 40
1
 40
1
 40
1
 40
1
 10
28.8454
 20
-282.619
 30
0
 10
28.8039
 20
-282.186
 30
0
 10
28.936
 20
-282.095
 30
0
 10
29.6046
 20
-282.095
 30
0
  0
SPLINE
  5
A28
330
A02
100
AcDbEntity
  8
Sketch007
100
AcDbSpline
210
0
220
0
230
1
 70
8
 71
1
 72
4
 73
2
 74
0
 40
0
 40
0
 40
0.584474
 40
0.584474
 10
29.6046
 20
-282.095
 30
0
 10
30.1891
 20
-282.095
 30
0
  0
SPLINE
  5
A29
330
A02
100
AcDbEntity
  8
Sketch007
100
AcDbSpline
210
0
220
0
230
1
 70
8
 71
1
 72
4
 73
2
 74
0
 40
0
 40
0
 40
0.280165
 40
0.280165
 10
30.1891
 20
-282.095
 30
0
 10
30.0604
 20
-281.846
 30
0
  0
SPLINE
  5
A2A
330
A02
100
AcDbEntity
  8
Sketch007
100
AcDbSpline
210
0
220
0
230
1
 70
8
 71
3
 72
8
 73
4
 74
0
 40
0
 40
0
 40
0
 40
0
 40
1
 40
1
 40
1
 40
1
 10
30.0604
 20
-281.846
 30
0
 10
29.6754
 20
-281.102
 30
0
 10
28.7485
 20
-281.172
 30
0
 10
28.4442
 20
-281.969
 30
0
  0
SPLINE
  5
A2B
330
A02
100
AcDbEntity
  8
Sketch007
100
AcDbSpline
210
0
220
0
230
1
 70
8
 71
3
 72
8
 73
4
 74
0
 40
0
 40
0
 40
0
 40
0
 40
1
 40
1
 40
1
 40
1
 10
28.4442
 20
-281.969
 30
0
 10
28.2587
 20
-282.455
 30
0
 10
28.37
 20
-282.909
 30
0
 10
28.7534
 20
-283.232
 30
0
  0
SPLINE
  5
A2C
330
A02
100
AcDbEntity
  8
Sketch007
100
AcDbSpline
210
0
220
0
230
1
 70
8
 71
3
 72
8
 73
4
 74
0
 40
0
 40
0
 40
0
 40
0
 40
1
 40
1
 40
1
 40
1
 10
28.7534
 20
-283.232
 30
0
 10
29.0635
 20
-283.493
 30
0
 10
29.3683
 20
-283.508
 30
0
 10
29.7402
 20
-283.281
 30
0
  0
SPLINE
  5
A2D
330
A02
100
AcDbEntity
  8
Sketch007
100
AcDbSpline
210
0
220
0
230
1
 70
8
 71
1
 72
4
 73
2
 74
0
 40
0
 40
0
 40
4.01995e-05
 40
4.01995e-05
 10
29.7402
 20
-283.281
 30
0
 10
29.7402
 20
-283.281
 30
0
  0
SPLINE
  5
A2E
330
A02
100
AcDbEntity
  8
Sketch007
100
AcDbSpline
210
0
220
0
230
1
 70
8
 71
3
 72
8
 73
4
 74
0
 40
0
 40
0
 40
0
 40
0
 40
1
 40
1
 40
1
 40
1
 10
31.6664
 20
-285.727
 30
0
 10
31.293
 20
-285.513
 30
0
 10
31.2854
 20
-285.462
 30
0
 10
31.2854
 20
-283.195
 30
0
  0
SPLINE
  5
A2F
330
A02
100
AcDbEntity
  8
Sketch007
100
AcDbSpline
210
0
220
0
230
1
 70
8
 71
3
 72
8
 73
4
 74
0
 40
0
 40
0
 40
0
 40
0
 40
1
 40
1
 40
1
 40
1
 10
31.2854
 20
-283.195
 30
0
 10
31.2854
 20
-280.821
 30
0
 10
31.3482
 20
-280.388
 30
0
 10
31.7638
 20
-279.894
 30
0
  0
SPLINE
  5
A30
330
A02
100
AcDbEntity
  8
Sketch007
100
AcDbSpline
210
0
220
0
230
1
 70
8
 71
3
 72
8
 73
4
 74
0
 40
0
 40
0
 40
0
 40
0
 40
1
 40
1
 40
1
 40
1
 10
31.7638
 20
-279.894
 30
0
 10
32.1359
 20
-279.452
 30
0
 10
32.5793
 20
-279.279
 30
0
 10
33.2429
 20
-279.316
 30
0
  0
SPLINE
  5
A31
330
A02
100
AcDbEntity
  8
Sketch007
100
AcDbSpline
210
0
220
0
230
1
 70
8
 71
3
 72
8
 73
4
 74
0
 40
0
 40
0
 40
0
 40
0
 40
1
 40
1
 40
1
 40
1
 10
33.2429
 20
-279.316
 30
0
 10
33.98
 20
-279.358
 30
0
 10
34.4306
 20
-279.649
 30
0
 10
34.7742
 20
-280.307
 30
0
  0
SPLINE
  5
A32
330
A02
100
AcDbEntity
  8
Sketch007
100
AcDbSpline
210
0
220
0
230
1
 70
8
 71
1
 72
4
 73
2
 74
0
 40
0
 40
0
 40
0.510774
 40
0.510774
 10
34.7742
 20
-280.307
 30
0
 10
35.0107
 20
-280.76
 30
0
  0
SPLINE
  5
A33
330
A02
100
AcDbEntity
  8
Sketch007
100
AcDbSpline
210
0
220
0
230
1
 70
8
 71
1
 72
4
 73
2
 74
0
 40
0
 40
0
 40
2.35485
 40
2.35485
 10
35.0107
 20
-280.76
 30
0
 10
35.0107
 20
-283.115
 30
0
  0
SPLINE
  5
A34
330
A02
100
AcDbEntity
  8
Sketch007
100
AcDbSpline
210
0
220
0
230
1
 70
8
 71
1
 72
4
 73
2
 74
0
 40
0
 40
0
 40
2.35486
 40
2.35486
 10
35.0107
 20
-283.115
 30
0
 10
35.0107
 20
-285.469
 30
0
  0
SPLINE
  5
A35
330
A02
100
AcDbEntity
  8
Sketch007
100
AcDbSpline
210
0
220
0
230
1
 70
8
 71
1
 72
4
 73
2
 74
0
 40
0
 40
0
 40
0.283825
 40
0.283825
 10
35.0107
 20
-285.469
 30
0
 10
34.7876
 20
-285.645
 30
0
  0
SPLINE
  5
A36
330
A02
100
AcDbEntity
  8
Sketch007
100
AcDbSpline
210
0
220
0
230
1
 70
8
 71
3
 72
8
 73
4
 74
0
 40
0
 40
0
 40
0
 40
0
 40
1
 40
1
 40
1
 40
1
 10
34.7876
 20
-285.645
 30
0
 10
34.5387
 20
-285.841
 30
0
 10
34.2742
 20
-285.867
 30
0
 10
33.9657
 20
-285.726
 30
0
  0
SPLINE
  5
A37
330
A02
100
AcDbEntity
  8
Sketch007
100
AcDbSpline
210
0
220
0
230
1
 70
8
 71
3
 72
8
 73
4
 74
0
 40
0
 40
0
 40
0
 40
0
 40
1
 40
1
 40
1
 40
1
 10
33.9657
 20
-285.726
 30
0
 10
33.6869
 20
-285.599
 30
0
 10
33.5789
 20
-285.359
 30
0
 10
33.5518
 20
-284.804
 30
0
  0
SPLINE
  5
A38
330
A02
100
AcDbEntity
  8
Sketch007
100
AcDbSpline
210
0
220
0
230
1
 70
8
 71
1
 72
4
 73
2
 74
0
 40
0
 40
0
 40
0.466216
 40
0.466216
 10
33.5518
 20
-284.804
 30
0
 10
33.529
 20
-284.339
 30
0
  0
SPLINE
  5
A39
330
A02
100
AcDbEntity
  8
Sketch007
100
AcDbSpline
210
0
220
0
230
1
 70
8
 71
1
 72
4
 73
2
 74
0
 40
0
 40
0
 40
0.318587
 40
0.318587
 10
33.529
 20
-284.339
 30
0
 10
33.2115
 20
-284.313
 30
0
  0
SPLINE
  5
A3A
330
A02
100
AcDbEntity
  8
Sketch007
100
AcDbSpline
210
0
220
0
230
1
 70
8
 71
3
 72
8
 73
4
 74
0
 40
0
 40
0
 40
0
 40
0
 40
1
 40
1
 40
1
 40
1
 10
33.2115
 20
-284.313
 30
0
 10
33.0369
 20
-284.298
 30
0
 10
32.8893
 20
-284.318
 30
0
 10
32.8836
 20
-284.355
 30
0
  0
SPLINE
  5
A3B
330
A02
100
AcDbEntity
  8
Sketch007
100
AcDbSpline
210
0
220
0
230
1
 70
8
 71
3
 72
8
 73
4
 74
0
 40
0
 40
0
 40
0
 40
0
 40
1
 40
1
 40
1
 40
1
 10
32.8836
 20
-284.355
 30
0
 10
32.8778
 20
-284.393
 30
0
 10
32.8654
 20
-284.644
 30
0
 10
32.8561
 20
-284.914
 30
0
  0
SPLINE
  5
A3C
330
A02
100
AcDbEntity
  8
Sketch007
100
AcDbSpline
210
0
220
0
230
1
 70
8
 71
3
 72
8
 73
4
 74
0
 40
0
 40
0
 40
0
 40
0
 40
1
 40
1
 40
1
 40
1
 10
32.8561
 20
-284.914
 30
0
 10
32.8434
 20
-285.279
 30
0
 10
32.7949
 20
-285.449
 30
0
 10
32.6673
 20
-285.577
 30
0
  0
SPLINE
  5
A3D
330
A02
100
AcDbEntity
  8
Sketch007
100
AcDbSpline
210
0
220
0
230
1
 70
8
 71
3
 72
8
 73
4
 74
0
 40
0
 40
0
 40
0
 40
0
 40
1
 40
1
 40
1
 40
1
 10
32.6673
 20
-285.577
 30
0
 10
32.4636
 20
-285.781
 30
0
 10
31.9052
 20
-285.864
 30
0
 10
31.6664
 20
-285.727
 30
0
  0
SPLINE
  5
A3E
330
A02
100
AcDbEntity
  8
Sketch007
100
AcDbSpline
210
0
220
0
230
1
 70
8
 71
1
 72
4
 73
2
 74
0
 40
0
 40
0
 40
2.08806e-05
 40
2.08806e-05
 10
31.6664
 20
-285.727
 30
0
 10
31.6664
 20
-285.727
 30
0
  0
SPLINE
  5
A3F
330
A02
100
AcDbEntity
  8
Sketch007
100
AcDbSpline
210
0
220
0
230
1
 70
8
 71
3
 72
8
 73
4
 74
0
 40
0
 40
0
 40
0
 40
0
 40
1
 40
1
 40
1
 40
1
 10
32.4223
 20
-285.349
 30
0
 10
32.513
 20
-285.258
 30
0
 10
32.5554
 20
-285.058
 30
0
 10
32.5554
 20
-284.72
 30
0
  0
SPLINE
  5
A40
330
A02
100
AcDbEntity
  8
Sketch007
100
AcDbSpline
210
0
220
0
230
1
 70
8
 71
3
 72
8
 73
4
 74
0
 40
0
 40
0
 40
0
 40
0
 40
1
 40
1
 40
1
 40
1
 10
32.5554
 20
-284.72
 30
0
 10
32.5554
 20
-284.105
 30
0
 10
32.6794
 20
-283.958
 30
0
 10
33.1964
 20
-283.958
 30
0
  0
SPLINE
  5
A41
330
A02
100
AcDbEntity
  8
Sketch007
100
AcDbSpline
210
0
220
0
230
1
 70
8
 71
3
 72
8
 73
4
 74
0
 40
0
 40
0
 40
0
 40
0
 40
1
 40
1
 40
1
 40
1
 10
33.1964
 20
-283.958
 30
0
 10
33.7416
 20
-283.958
 30
0
 10
33.91
 20
-284.157
 30
0
 10
33.91
 20
-284.801
 30
0
  0
SPLINE
  5
A42
330
A02
100
AcDbEntity
  8
Sketch007
100
AcDbSpline
210
0
220
0
230
1
 70
8
 71
3
 72
8
 73
4
 74
0
 40
0
 40
0
 40
0
 40
0
 40
1
 40
1
 40
1
 40
1
 10
33.91
 20
-284.801
 30
0
 10
33.91
 20
-285.227
 30
0
 10
33.9378
 20
-285.321
 30
0
 10
34.0873
 20
-285.401
 30
0
  0
SPLINE
  5
A43
330
A02
100
AcDbEntity
  8
Sketch007
100
AcDbSpline
210
0
220
0
230
1
 70
8
 71
3
 72
8
 73
4
 74
0
 40
0
 40
0
 40
0
 40
0
 40
1
 40
1
 40
1
 40
1
 10
34.0873
 20
-285.401
 30
0
 10
34.1847
 20
-285.454
 30
0
 10
34.3562
 20
-285.473
 30
0
 10
34.4683
 20
-285.445
 30
0
  0
SPLINE
  5
A44
330
A02
100
AcDbEntity
  8
Sketch007
100
AcDbSpline
210
0
220
0
230
1
 70
8
 71
1
 72
4
 73
2
 74
0
 40
0
 40
0
 40
0.210114
 40
0.210114
 10
34.4683
 20
-285.445
 30
0
 10
34.672
 20
-285.394
 30
0
  0
SPLINE
  5
A45
330
A02
100
AcDbEntity
  8
Sketch007
100
AcDbSpline
210
0
220
0
230
1
 70
8
 71
1
 72
4
 73
2
 74
0
 40
0
 40
0
 40
2.26322
 40
2.26322
 10
34.672
 20
-285.394
 30
0
 10
34.6701
 20
-283.131
 30
0
  0
SPLINE
  5
A46
330
A02
100
AcDbEntity
  8
Sketch007
100
AcDbSpline
210
0
220
0
230
1
 70
8
 71
3
 72
8
 73
4
 74
0
 40
0
 40
0
 40
0
 40
0
 40
1
 40
1
 40
1
 40
1
 10
34.6701
 20
-283.131
 30
0
 10
34.6684
 20
-281.103
 30
0
 10
34.6518
 20
-280.831
 30
0
 10
34.51
 20
-280.519
 30
0
  0
SPLINE
  5
A47
330
A02
100
AcDbEntity
  8
Sketch007
100
AcDbSpline
210
0
220
0
230
1
 70
8
 71
3
 72
8
 73
4
 74
0
 40
0
 40
0
 40
0
 40
0
 40
1
 40
1
 40
1
 40
1
 10
34.51
 20
-280.519
 30
0
 10
34.2743
 20
-280
 30
0
 10
33.831
 20
-279.699
 30
0
 10
33.238
 20
-279.657
 30
0
  0
SPLINE
  5
A48
330
A02
100
AcDbEntity
  8
Sketch007
100
AcDbSpline
210
0
220
0
230
1
 70
8
 71
3
 72
8
 73
4
 74
0
 40
0
 40
0
 40
0
 40
0
 40
1
 40
1
 40
1
 40
1
 10
33.238
 20
-279.657
 30
0
 10
32.4922
 20
-279.603
 30
0
 10
32.0086
 20
-279.925
 30
0
 10
31.7539
 20
-280.648
 30
0
  0
SPLINE
  5
A49
330
A02
100
AcDbEntity
  8
Sketch007
100
AcDbSpline
210
0
220
0
230
1
 70
8
 71
3
 72
8
 73
4
 74
0
 40
0
 40
0
 40
0
 40
0
 40
1
 40
1
 40
1
 40
1
 10
31.7539
 20
-280.648
 30
0
 10
31.5851
 20
-281.126
 30
0
 10
31.5607
 20
-285.215
 30
0
 10
31.7256
 20
-285.38
 30
0
  0
SPLINE
  5
A4A
330
A02
100
AcDbEntity
  8
Sketch007
100
AcDbSpline
210
0
220
0
230
1
 70
8
 71
3
 72
8
 73
4
 74
0
 40
0
 40
0
 40
0
 40
0
 40
1
 40
1
 40
1
 40
1
 10
31.7256
 20
-285.38
 30
0
 10
31.8694
 20
-285.524
 30
0
 10
32.2648
 20
-285.506
 30
0
 10
32.4223
 20
-285.349
 30
0
  0
SPLINE
  5
A4B
330
A02
100
AcDbEntity
  8
Sketch007
100
AcDbSpline
210
0
220
0
230
1
 70
8
 71
1
 72
4
 73
2
 74
0
 40
0
 40
0
 40
4.02616e-05
 40
4.02616e-05
 10
32.4223
 20
-285.349
 30
0
 10
32.4223
 20
-285.349
 30
0
  0
SPLINE
  5
A4C
330
A02
100
AcDbEntity
  8
Sketch007
100
AcDbSpline
210
0
220
0
230
1
 70
8
 71
3
 72
8
 73
4
 74
0
 40
0
 40
0
 40
0
 40
0
 40
1
 40
1
 40
1
 40
1
 10
32.7272
 20
-283.511
 30
0
 10
32.4426
 20
-283.367
 30
0
 10
32.132
 20
-282.885
 30
0
 10
32.132
 20
-282.588
 30
0
  0
SPLINE
  5
A4D
330
A02
100
AcDbEntity
  8
Sketch007
100
AcDbSpline
210
0
220
0
230
1
 70
8
 71
3
 72
8
 73
4
 74
0
 40
0
 40
0
 40
0
 40
0
 40
1
 40
1
 40
1
 40
1
 10
32.132
 20
-282.588
 30
0
 10
32.132
 20
-281.4
 30
0
 10
33.5558
 20
-281.048
 30
0
 10
34.1034
 20
-282.101
 30
0
  0
SPLINE
  5
A4E
330
A02
100
AcDbEntity
  8
Sketch007
100
AcDbSpline
210
0
220
0
230
1
 70
8
 71
3
 72
8
 73
4
 74
0
 40
0
 40
0
 40
0
 40
0
 40
1
 40
1
 40
1
 40
1
 10
34.1034
 20
-282.101
 30
0
 10
34.5502
 20
-282.96
 30
0
 10
33.5877
 20
-283.946
 30
0
 10
32.7272
 20
-283.511
 30
0
  0
SPLINE
  5
A4F
330
A02
100
AcDbEntity
  8
Sketch007
100
AcDbSpline
210
0
220
0
230
1
 70
8
 71
3
 72
8
 73
4
 74
0
 40
0
 40
0
 40
0
 40
0
 40
1
 40
1
 40
1
 40
1
 10
33.5579
 20
-283.145
 30
0
 10
34.0237
 20
-282.819
 30
0
 10
33.9557
 20
-282.092
 30
0
 10
33.4391
 20
-281.876
 30
0
  0
SPLINE
  5
A50
330
A02
100
AcDbEntity
  8
Sketch007
100
AcDbSpline
210
0
220
0
230
1
 70
8
 71
3
 72
8
 73
4
 74
0
 40
0
 40
0
 40
0
 40
0
 40
1
 40
1
 40
1
 40
1
 10
33.4391
 20
-281.876
 30
0
 10
32.6376
 20
-281.541
 30
0
 10
32.1006
 20
-282.633
 30
0
 10
32.802
 20
-283.172
 30
0
  0
SPLINE
  5
A51
330
A02
100
AcDbEntity
  8
Sketch007
100
AcDbSpline
210
0
220
0
230
1
 70
8
 71
3
 72
8
 73
4
 74
0
 40
0
 40
0
 40
0
 40
0
 40
1
 40
1
 40
1
 40
1
 10
32.802
 20
-283.172
 30
0
 10
32.9907
 20
-283.317
 30
0
 10
33.3297
 20
-283.305
 30
0
 10
33.5579
 20
-283.145
 30
0
  0
SPLINE
  5
A52
330
A02
100
AcDbEntity
  8
Sketch007
100
AcDbSpline
210
0
220
0
230
1
 70
8
 71
1
 72
4
 73
2
 74
0
 40
0
 40
0
 40
2e-05
 40
2e-05
 10
33.5579
 20
-283.145
 30
0
 10
33.5579
 20
-283.145
 30
0
  0
SPLINE
  5
A53
330
A02
100
AcDbEntity
  8
Sketch007
100
AcDbSpline
210
0
220
0
230
1
 70
8
 71
1
 72
4
 73
2
 74
0
 40
0
 40
0
 40
0.293894
 40
0.293894
 10
35.4725
 20
-285.613
 30
0
 10
35.2647
 20
-285.405
 30
0
  0
SPLINE
  5
A54
330
A02
100
AcDbEntity
  8
Sketch007
100
AcDbSpline
210
0
220
0
230
1
 70
8
 71
1
 72
4
 73
2
 74
0
 40
0
 40
0
 40
2.96421
 40
2.96421
 10
35.2647
 20
-285.405
 30
0
 10
35.2647
 20
-282.441
 30
0
  0
SPLINE
  5
A55
330
A02
100
AcDbEntity
  8
Sketch007
100
AcDbSpline
210
0
220
0
230
1
 70
8
 71
3
 72
8
 73
4
 74
0
 40
0
 40
0
 40
0
 40
0
 40
1
 40
1
 40
1
 40
1
 10
35.2647
 20
-282.441
 30
0
 10
35.2647
 20
-279.077
 30
0
 10
35.2134
 20
-279.301
 30
0
 10
35.9844
 20
-279.301
 30
0
  0
SPLINE
  5
A56
330
A02
100
AcDbEntity
  8
Sketch007
100
AcDbSpline
210
0
220
0
230
1
 70
8
 71
3
 72
8
 73
4
 74
0
 40
0
 40
0
 40
0
 40
0
 40
1
 40
1
 40
1
 40
1
 10
35.9844
 20
-279.301
 30
0
 10
36.7342
 20
-279.301
 30
0
 10
36.704
 20
-279.212
 30
0
 10
36.704
 20
-281.421
 30
0
  0
SPLINE
  5
A57
330
A02
100
AcDbEntity
  8
Sketch007
100
AcDbSpline
210
0
220
0
230
1
 70
8
 71
1
 72
4
 73
2
 74
0
 40
0
 40
0
 40
1.94436
 40
1.94436
 10
36.704
 20
-281.421
 30
0
 10
36.704
 20
-283.365
 30
0
  0
SPLINE
  5
A58
330
A02
100
AcDbEntity
  8
Sketch007
100
AcDbSpline
210
0
220
0
230
1
 70
8
 71
1
 72
4
 73
2
 74
0
 40
0
 40
0
 40
0.550333
 40
0.550333
 10
36.704
 20
-283.365
 30
0
 10
37.2544
 20
-283.365
 30
0
  0
SPLINE
  5
A59
330
A02
100
AcDbEntity
  8
Sketch007
100
AcDbSpline
210
0
220
0
230
1
 70
8
 71
3
 72
8
 73
4
 74
0
 40
0
 40
0
 40
0
 40
0
 40
1
 40
1
 40
1
 40
1
 10
37.2544
 20
-283.365
 30
0
 10
38.0999
 20
-283.365
 30
0
 10
38.2834
 20
-283.655
 30
0
 10
38.214
 20
-284.883
 30
0
  0
SPLINE
  5
A5A
330
A02
100
AcDbEntity
  8
Sketch007
100
AcDbSpline
210
0
220
0
230
1
 70
8
 71
3
 72
8
 73
4
 74
0
 40
0
 40
0
 40
0
 40
0
 40
1
 40
1
 40
1
 40
1
 10
38.214
 20
-284.883
 30
0
 10
38.163
 20
-285.786
 30
0
 10
38.1093
 20
-285.82
 30
0
 10
36.7717
 20
-285.82
 30
0
  0
SPLINE
  5
A5B
330
A02
100
AcDbEntity
  8
Sketch007
100
AcDbSpline
210
0
220
0
230
1
 70
8
 71
3
 72
8
 73
4
 74
0
 40
0
 40
0
 40
0
 40
0
 40
1
 40
1
 40
1
 40
1
 10
36.7717
 20
-285.82
 30
0
 10
35.7259
 20
-285.82
 30
0
 10
35.6717
 20
-285.811
 30
0
 10
35.4725
 20
-285.613
 30
0
  0
SPLINE
  5
A5C
330
A02
100
AcDbEntity
  8
Sketch007
100
AcDbSpline
210
0
220
0
230
1
 70
8
 71
3
 72
8
 73
4
 74
0
 40
0
 40
0
 40
0
 40
0
 40
1
 40
1
 40
1
 40
1
 10
37.8017
 20
-285.318
 30
0
 10
37.9254
 20
-285.087
 30
0
 10
37.9122
 20
-284.02
 30
0
 10
37.7835
 20
-283.85
 30
0
  0
SPLINE
  5
A5D
330
A02
100
AcDbEntity
  8
Sketch007
100
AcDbSpline
210
0
220
0
230
1
 70
8
 71
3
 72
8
 73
4
 74
0
 40
0
 40
0
 40
0
 40
0
 40
1
 40
1
 40
1
 40
1
 10
37.7835
 20
-283.85
 30
0
 10
37.7048
 20
-283.745
 30
0
 10
37.5152
 20
-283.703
 30
0
 10
37.0427
 20
-283.685
 30
0
  0
SPLINE
  5
A5E
330
A02
100
AcDbEntity
  8
Sketch007
100
AcDbSpline
210
0
220
0
230
1
 70
8
 71
1
 72
4
 73
2
 74
0
 40
0
 40
0
 40
0.635446
 40
0.635446
 10
37.0427
 20
-283.685
 30
0
 10
36.4077
 20
-283.661
 30
0
  0
SPLINE
  5
A5F
330
A02
100
AcDbEntity
  8
Sketch007
100
AcDbSpline
210
0
220
0
230
1
 70
8
 71
1
 72
4
 73
2
 74
0
 40
0
 40
0
 40
2.01096
 40
2.01096
 10
36.4077
 20
-283.661
 30
0
 10
36.385
 20
-281.651
 30
0
  0
SPLINE
  5
A60
330
A02
100
AcDbEntity
  8
Sketch007
100
AcDbSpline
210
0
220
0
230
1
 70
8
 71
1
 72
4
 73
2
 74
0
 40
0
 40
0
 40
2.01096
 40
2.01096
 10
36.385
 20
-281.651
 30
0
 10
36.3623
 20
-279.64
 30
0
  0
SPLINE
  5
A61
330
A02
100
AcDbEntity
  8
Sketch007
100
AcDbSpline
210
0
220
0
230
1
 70
8
 71
1
 72
4
 73
2
 74
0
 40
0
 40
0
 40
0.379468
 40
0.379468
 10
36.3623
 20
-279.64
 30
0
 10
35.9828
 20
-279.64
 30
0
  0
SPLINE
  5
A62
330
A02
100
AcDbEntity
  8
Sketch007
100
AcDbSpline
210
0
220
0
230
1
 70
8
 71
1
 72
4
 73
2
 74
0
 40
0
 40
0
 40
0.379467
 40
0.379467
 10
35.9828
 20
-279.64
 30
0
 10
35.6034
 20
-279.64
 30
0
  0
SPLINE
  5
A63
330
A02
100
AcDbEntity
  8
Sketch007
100
AcDbSpline
210
0
220
0
230
1
 70
8
 71
1
 72
4
 73
2
 74
0
 40
0
 40
0
 40
2.8194
 40
2.8194
 10
35.6034
 20
-279.64
 30
0
 10
35.6034
 20
-282.459
 30
0
  0
SPLINE
  5
A64
330
A02
100
AcDbEntity
  8
Sketch007
100
AcDbSpline
210
0
220
0
230
1
 70
8
 71
3
 72
8
 73
4
 74
0
 40
0
 40
0
 40
0
 40
0
 40
1
 40
1
 40
1
 40
1
 10
35.6034
 20
-282.459
 30
0
 10
35.6034
 20
-284.539
 30
0
 10
35.63
 20
-285.305
 30
0
 10
35.705
 20
-285.38
 30
0
  0
SPLINE
  5
A65
330
A02
100
AcDbEntity
  8
Sketch007
100
AcDbSpline
210
0
220
0
230
1
 70
8
 71
3
 72
8
 73
4
 74
0
 40
0
 40
0
 40
0
 40
0
 40
1
 40
1
 40
1
 40
1
 10
35.705
 20
-285.38
 30
0
 10
35.772
 20
-285.447
 30
0
 10
36.1314
 20
-285.482
 30
0
 10
36.7603
 20
-285.482
 30
0
  0
SPLINE
  5
A66
330
A02
100
AcDbEntity
  8
Sketch007
100
AcDbSpline
210
0
220
0
230
1
 70
8
 71
3
 72
8
 73
4
 74
0
 40
0
 40
0
 40
0
 40
0
 40
1
 40
1
 40
1
 40
1
 10
36.7603
 20
-285.482
 30
0
 10
37.6166
 20
-285.482
 30
0
 10
37.723
 20
-285.465
 30
0
 10
37.8017
 20
-285.318
 30
0
  0
SPLINE
  5
A67
330
A02
100
AcDbEntity
  8
Sketch007
100
AcDbSpline
210
0
220
0
230
1
 70
8
 71
1
 72
4
 73
2
 74
0
 40
0
 40
0
 40
3.02655e-05
 40
3.02655e-05
 10
37.8017
 20
-285.318
 30
0
 10
37.8017
 20
-285.318
 30
0
  0
SPLINE
  5
A68
330
A02
100
AcDbEntity
  8
Sketch007
100
AcDbSpline
210
0
220
0
230
1
 70
8
 71
3
 72
8
 73
4
 74
0
 40
0
 40
0
 40
0
 40
0
 40
1
 40
1
 40
1
 40
1
 10
38.8474
 20
-285.74
 30
0
 10
38.5072
 20
-285.594
 30
0
 10
38.482
 20
-285.413
 30
0
 10
38.482
 20
-283.105
 30
0
  0
SPLINE
  5
A69
330
A02
100
AcDbEntity
  8
Sketch007
100
AcDbSpline
210
0
220
0
230
1
 70
8
 71
3
 72
8
 73
4
 74
0
 40
0
 40
0
 40
0
 40
0
 40
1
 40
1
 40
1
 40
1
 10
38.482
 20
-283.105
 30
0
 10
38.482
 20
-280.643
 30
0
 10
38.5162
 20
-280.421
 30
0
 10
38.9773
 20
-279.882
 30
0
  0
SPLINE
  5
A6A
330
A02
100
AcDbEntity
  8
Sketch007
100
AcDbSpline
210
0
220
0
230
1
 70
8
 71
3
 72
8
 73
4
 74
0
 40
0
 40
0
 40
0
 40
0
 40
1
 40
1
 40
1
 40
1
 10
38.9773
 20
-279.882
 30
0
 10
39.3383
 20
-279.46
 30
0
 10
39.6899
 20
-279.301
 30
0
 10
40.26
 20
-279.301
 30
0
  0
SPLINE
  5
A6B
330
A02
100
AcDbEntity
  8
Sketch007
100
AcDbSpline
210
0
220
0
230
1
 70
8
 71
3
 72
8
 73
4
 74
0
 40
0
 40
0
 40
0
 40
0
 40
1
 40
1
 40
1
 40
1
 10
40.26
 20
-279.301
 30
0
 10
41.0139
 20
-279.301
 30
0
 10
41.6083
 20
-279.666
 30
0
 10
41.9823
 20
-280.359
 30
0
  0
SPLINE
  5
A6C
330
A02
100
AcDbEntity
  8
Sketch007
100
AcDbSpline
210
0
220
0
230
1
 70
8
 71
3
 72
8
 73
4
 74
0
 40
0
 40
0
 40
0
 40
0
 40
1
 40
1
 40
1
 40
1
 10
41.9823
 20
-280.359
 30
0
 10
42.1548
 20
-280.679
 30
0
 10
42.1665
 20
-280.829
 30
0
 10
42.191
 20
-283.032
 30
0
  0
SPLINE
  5
A6D
330
A02
100
AcDbEntity
  8
Sketch007
100
AcDbSpline
210
0
220
0
230
1
 70
8
 71
3
 72
8
 73
4
 74
0
 40
0
 40
0
 40
0
 40
0
 40
1
 40
1
 40
1
 40
1
 10
42.191
 20
-283.032
 30
0
 10
42.2157
 20
-285.249
 30
0
 10
42.2086
 20
-285.377
 30
0
 10
42.0503
 20
-285.572
 30
0
  0
SPLINE
  5
A6E
330
A02
100
AcDbEntity
  8
Sketch007
100
AcDbSpline
210
0
220
0
230
1
 70
8
 71
3
 72
8
 73
4
 74
0
 40
0
 40
0
 40
0
 40
0
 40
1
 40
1
 40
1
 40
1
 10
42.0503
 20
-285.572
 30
0
 10
41.9187
 20
-285.735
 30
0
 10
41.8039
 20
-285.778
 30
0
 10
41.5041
 20
-285.778
 30
0
  0
SPLINE
  5
A6F
330
A02
100
AcDbEntity
  8
Sketch007
100
AcDbSpline
210
0
220
0
230
1
 70
8
 71
3
 72
8
 73
4
 74
0
 40
0
 40
0
 40
0
 40
0
 40
1
 40
1
 40
1
 40
1
 10
41.5041
 20
-285.778
 30
0
 10
40.9492
 20
-285.778
 30
0
 10
40.7684
 20
-285.583
 30
0
 10
40.7667
 20
-284.982
 30
0
  0
SPLINE
  5
A70
330
A02
100
AcDbEntity
  8
Sketch007
100
AcDbSpline
210
0
220
0
230
1
 70
8
 71
3
 72
8
 73
4
 74
0
 40
0
 40
0
 40
0
 40
0
 40
1
 40
1
 40
1
 40
1
 10
40.7667
 20
-284.982
 30
0
 10
40.7651
 20
-284.381
 30
0
 10
40.6979
 20
-284.277
 30
0
 10
40.3358
 20
-284.311
 30
0
  0
SPLINE
  5
A71
330
A02
100
AcDbEntity
  8
Sketch007
100
AcDbSpline
210
0
220
0
230
1
 70
8
 71
1
 72
4
 73
2
 74
0
 40
0
 40
0
 40
0.288767
 40
0.288767
 10
40.3358
 20
-284.311
 30
0
 10
40.0484
 20
-284.339
 30
0
  0
SPLINE
  5
A72
330
A02
100
AcDbEntity
  8
Sketch007
100
AcDbSpline
210
0
220
0
230
1
 70
8
 71
1
 72
4
 73
2
 74
0
 40
0
 40
0
 40
0.570223
 40
0.570223
 10
40.0484
 20
-284.339
 30
0
 10
40.006
 20
-284.907
 30
0
  0
SPLINE
  5
A73
330
A02
100
AcDbEntity
  8
Sketch007
100
AcDbSpline
210
0
220
0
230
1
 70
8
 71
3
 72
8
 73
4
 74
0
 40
0
 40
0
 40
0
 40
0
 40
1
 40
1
 40
1
 40
1
 10
40.006
 20
-284.907
 30
0
 10
39.979
 20
-285.271
 30
0
 10
39.9144
 20
-285.525
 30
0
 10
39.8272
 20
-285.612
 30
0
  0
SPLINE
  5
A74
330
A02
100
AcDbEntity
  8
Sketch007
100
AcDbSpline
210
0
220
0
230
1
 70
8
 71
3
 72
8
 73
4
 74
0
 40
0
 40
0
 40
0
 40
0
 40
1
 40
1
 40
1
 40
1
 10
39.8272
 20
-285.612
 30
0
 10
39.6629
 20
-285.777
 30
0
 10
39.1041
 20
-285.849
 30
0
 10
38.8474
 20
-285.74
 30
0
  0
SPLINE
  5
A75
330
A02
100
AcDbEntity
  8
Sketch007
100
AcDbSpline
210
0
220
0
230
1
 70
8
 71
1
 72
4
 73
2
 74
0
 40
0
 40
0
 40
5.00899e-05
 40
5.00899e-05
 10
38.8474
 20
-285.74
 30
0
 10
38.8474
 20
-285.74
 30
0
  0
SPLINE
  5
A76
330
A02
100
AcDbEntity
  8
Sketch007
100
AcDbSpline
210
0
220
0
230
1
 70
8
 71
3
 72
8
 73
4
 74
0
 40
0
 40
0
 40
0
 40
0
 40
1
 40
1
 40
1
 40
1
 10
39.5658
 20
-285.38
 30
0
 10
39.6216
 20
-285.324
 30
0
 10
39.6674
 20
-285.058
 30
0
 10
39.6674
 20
-284.788
 30
0
  0
SPLINE
  5
A77
330
A02
100
AcDbEntity
  8
Sketch007
100
AcDbSpline
210
0
220
0
230
1
 70
8
 71
3
 72
8
 73
4
 74
0
 40
0
 40
0
 40
0
 40
0
 40
1
 40
1
 40
1
 40
1
 10
39.6674
 20
-284.788
 30
0
 10
39.6674
 20
-284.158
 30
0
 10
39.8397
 20
-283.958
 30
0
 10
40.3809
 20
-283.958
 30
0
  0
SPLINE
  5
A78
330
A02
100
AcDbEntity
  8
Sketch007
100
AcDbSpline
210
0
220
0
230
1
 70
8
 71
3
 72
8
 73
4
 74
0
 40
0
 40
0
 40
0
 40
0
 40
1
 40
1
 40
1
 40
1
 10
40.3809
 20
-283.958
 30
0
 10
40.8876
 20
-283.958
 30
0
 10
41.1067
 20
-284.224
 30
0
 10
41.1067
 20
-284.841
 30
0
  0
SPLINE
  5
A79
330
A02
100
AcDbEntity
  8
Sketch007
100
AcDbSpline
210
0
220
0
230
1
 70
8
 71
3
 72
8
 73
4
 74
0
 40
0
 40
0
 40
0
 40
0
 40
1
 40
1
 40
1
 40
1
 10
41.1067
 20
-284.841
 30
0
 10
41.1067
 20
-285.313
 30
0
 10
41.2074
 20
-285.482
 30
0
 10
41.4877
 20
-285.482
 30
0
  0
SPLINE
  5
A7A
330
A02
100
AcDbEntity
  8
Sketch007
100
AcDbSpline
210
0
220
0
230
1
 70
8
 71
3
 72
8
 73
4
 74
0
 40
0
 40
0
 40
0
 40
0
 40
1
 40
1
 40
1
 40
1
 10
41.4877
 20
-285.482
 30
0
 10
41.8536
 20
-285.482
 30
0
 10
41.8687
 20
-285.387
 30
0
 10
41.8687
 20
-283.111
 30
0
  0
SPLINE
  5
A7B
330
A02
100
AcDbEntity
  8
Sketch007
100
AcDbSpline
210
0
220
0
230
1
 70
8
 71
3
 72
8
 73
4
 74
0
 40
0
 40
0
 40
0
 40
0
 40
1
 40
1
 40
1
 40
1
 10
41.8687
 20
-283.111
 30
0
 10
41.8687
 20
-280.947
 30
0
 10
41.8684
 20
-280.942
 30
0
 10
41.6489
 20
-280.502
 30
0
  0
SPLINE
  5
A7C
330
A02
100
AcDbEntity
  8
Sketch007
100
AcDbSpline
210
0
220
0
230
1
 70
8
 71
3
 72
8
 73
4
 74
0
 40
0
 40
0
 40
0
 40
0
 40
1
 40
1
 40
1
 40
1
 10
41.6489
 20
-280.502
 30
0
 10
41.3398
 20
-279.882
 30
0
 10
40.8646
 20
-279.606
 30
0
 10
40.1878
 20
-279.655
 30
0
  0
SPLINE
  5
A7D
330
A02
100
AcDbEntity
  8
Sketch007
100
AcDbSpline
210
0
220
0
230
1
 70
8
 71
3
 72
8
 73
4
 74
0
 40
0
 40
0
 40
0
 40
0
 40
1
 40
1
 40
1
 40
1
 10
40.1878
 20
-279.655
 30
0
 10
39.6053
 20
-279.697
 30
0
 10
39.2511
 20
-279.917
 30
0
 10
39.0216
 20
-280.379
 30
0
  0
SPLINE
  5
A7E
330
A02
100
AcDbEntity
  8
Sketch007
100
AcDbSpline
210
0
220
0
230
1
 70
8
 71
3
 72
8
 73
4
 74
0
 40
0
 40
0
 40
0
 40
0
 40
1
 40
1
 40
1
 40
1
 10
39.0216
 20
-280.379
 30
0
 10
38.8807
 20
-280.663
 30
0
 10
38.8602
 20
-280.951
 30
0
 10
38.8379
 20
-282.971
 30
0
  0
SPLINE
  5
A7F
330
A02
100
AcDbEntity
  8
Sketch007
100
AcDbSpline
210
0
220
0
230
1
 70
8
 71
3
 72
8
 73
4
 74
0
 40
0
 40
0
 40
0
 40
0
 40
1
 40
1
 40
1
 40
1
 10
38.8379
 20
-282.971
 30
0
 10
38.8198
 20
-284.613
 30
0
 10
38.8403
 20
-285.276
 30
0
 10
38.9118
 20
-285.363
 30
0
  0
SPLINE
  5
A80
330
A02
100
AcDbEntity
  8
Sketch007
100
AcDbSpline
210
0
220
0
230
1
 70
8
 71
3
 72
8
 73
4
 74
0
 40
0
 40
0
 40
0
 40
0
 40
1
 40
1
 40
1
 40
1
 10
38.9118
 20
-285.363
 30
0
 10
39.0328
 20
-285.508
 30
0
 10
39.427
 20
-285.519
 30
0
 10
39.5658
 20
-285.38
 30
0
  0
SPLINE
  5
A81
330
A02
100
AcDbEntity
  8
Sketch007
100
AcDbSpline
210
0
220
0
230
1
 70
8
 71
1
 72
4
 73
2
 74
0
 40
0
 40
0
 40
5.004e-05
 40
5.004e-05
 10
39.5658
 20
-285.38
 30
0
 10
39.5658
 20
-285.38
 30
0
  0
SPLINE
  5
A82
330
A02
100
AcDbEntity
  8
Sketch007
100
AcDbSpline
210
0
220
0
230
1
 70
8
 71
3
 72
8
 73
4
 74
0
 40
0
 40
0
 40
0
 40
0
 40
1
 40
1
 40
1
 40
1
 10
39.8166
 20
-283.491
 30
0
 10
39.2995
 20
-283.2
 30
0
 10
39.1541
 20
-282.316
 30
0
 10
39.5466
 20
-281.849
 30
0
  0
SPLINE
  5
A83
330
A02
100
AcDbEntity
  8
Sketch007
100
AcDbSpline
210
0
220
0
230
1
 70
8
 71
3
 72
8
 73
4
 74
0
 40
0
 40
0
 40
0
 40
0
 40
1
 40
1
 40
1
 40
1
 10
39.5466
 20
-281.849
 30
0
 10
40.2035
 20
-281.068
 30
0
 10
41.3595
 20
-281.536
 30
0
 10
41.3604
 20
-282.583
 30
0
  0
SPLINE
  5
A84
330
A02
100
AcDbEntity
  8
Sketch007
100
AcDbSpline
210
0
220
0
230
1
 70
8
 71
3
 72
8
 73
4
 74
0
 40
0
 40
0
 40
0
 40
0
 40
1
 40
1
 40
1
 40
1
 10
41.3604
 20
-282.583
 30
0
 10
41.3608
 20
-283.102
 30
0
 10
40.9563
 20
-283.537
 30
0
 10
40.4265
 20
-283.587
 30
0
  0
SPLINE
  5
A85
330
A02
100
AcDbEntity
  8
Sketch007
100
AcDbSpline
210
0
220
0
230
1
 70
8
 71
3
 72
8
 73
4
 74
0
 40
0
 40
0
 40
0
 40
0
 40
1
 40
1
 40
1
 40
1
 10
40.4265
 20
-283.587
 30
0
 10
40.1837
 20
-283.609
 30
0
 10
39.9654
 20
-283.575
 30
0
 10
39.8166
 20
-283.491
 30
0
  0
SPLINE
  5
A86
330
A02
100
AcDbEntity
  8
Sketch007
100
AcDbSpline
210
0
220
0
230
1
 70
8
 71
1
 72
4
 73
2
 74
0
 40
0
 40
0
 40
4e-05
 40
4e-05
 10
39.8166
 20
-283.491
 30
0
 10
39.8166
 20
-283.491
 30
0
  0
SPLINE
  5
A87
330
A02
100
AcDbEntity
  8
Sketch007
100
AcDbSpline
210
0
220
0
230
1
 70
8
 71
3
 72
8
 73
4
 74
0
 40
0
 40
0
 40
0
 40
0
 40
1
 40
1
 40
1
 40
1
 10
40.8142
 20
-283.073
 30
0
 10
41.1029
 20
-282.784
 30
0
 10
41.1014
 20
-282.284
 30
0
 10
40.811
 20
-282.011
 30
0
  0
SPLINE
  5
A88
330
A02
100
AcDbEntity
  8
Sketch007
100
AcDbSpline
210
0
220
0
230
1
 70
8
 71
3
 72
8
 73
4
 74
0
 40
0
 40
0
 40
0
 40
0
 40
1
 40
1
 40
1
 40
1
 10
40.811
 20
-282.011
 30
0
 10
40.3564
 20
-281.584
 30
0
 10
39.6673
 20
-281.901
 30
0
 10
39.6673
 20
-282.537
 30
0
  0
SPLINE
  5
A89
330
A02
100
AcDbEntity
  8
Sketch007
100
AcDbSpline
210
0
220
0
230
1
 70
8
 71
3
 72
8
 73
4
 74
0
 40
0
 40
0
 40
0
 40
0
 40
1
 40
1
 40
1
 40
1
 10
39.6673
 20
-282.537
 30
0
 10
39.6673
 20
-282.953
 30
0
 10
39.9653
 20
-283.28
 30
0
 10
40.3447
 20
-283.28
 30
0
  0
SPLINE
  5
A8A
330
A02
100
AcDbEntity
  8
Sketch007
100
AcDbSpline
210
0
220
0
230
1
 70
8
 71
3
 72
8
 73
4
 74
0
 40
0
 40
0
 40
0
 40
0
 40
1
 40
1
 40
1
 40
1
 10
40.3447
 20
-283.28
 30
0
 10
40.5096
 20
-283.28
 30
0
 10
40.6832
 20
-283.204
 30
0
 10
40.8142
 20
-283.073
 30
0
  0
SPLINE
  5
A8B
330
A02
100
AcDbEntity
  8
Sketch007
100
AcDbSpline
210
0
220
0
230
1
 70
8
 71
1
 72
4
 73
2
 74
0
 40
0
 40
0
 40
4.2e-05
 40
4.2e-05
 10
40.8142
 20
-283.073
 30
0
 10
40.8142
 20
-283.073
 30
0
  0
SPLINE
  5
A8C
330
A02
100
AcDbEntity
  8
Sketch007
100
AcDbSpline
210
0
220
0
230
1
 70
8
 71
3
 72
8
 73
4
 74
0
 40
0
 40
0
 40
0
 40
0
 40
1
 40
1
 40
1
 40
1
 10
42.6307
 20
-285.759
 30
0
 10
42.5609
 20
-285.732
 30
0
 10
42.4757
 20
-285.668
 30
0
 10
42.4415
 20
-285.617
 30
0
  0
SPLINE
  5
A8D
330
A02
100
AcDbEntity
  8
Sketch007
100
AcDbSpline
210
0
220
0
230
1
 70
8
 71
3
 72
8
 73
4
 74
0
 40
0
 40
0
 40
0
 40
0
 40
1
 40
1
 40
1
 40
1
 10
42.4415
 20
-285.617
 30
0
 10
42.3526
 20
-285.484
 30
0
 10
42.3642
 20
-279.537
 30
0
 10
42.4536
 20
-279.395
 30
0
  0
SPLINE
  5
A8E
330
A02
100
AcDbEntity
  8
Sketch007
100
AcDbSpline
210
0
220
0
230
1
 70
8
 71
3
 72
8
 73
4
 74
0
 40
0
 40
0
 40
0
 40
0
 40
1
 40
1
 40
1
 40
1
 10
42.4536
 20
-279.395
 30
0
 10
42.5501
 20
-279.243
 30
0
 10
43.2834
 20
-279.176
 30
0
 10
43.5832
 20
-279.292
 30
0
  0
SPLINE
  5
A8F
330
A02
100
AcDbEntity
  8
Sketch007
100
AcDbSpline
210
0
220
0
230
1
 70
8
 71
3
 72
8
 73
4
 74
0
 40
0
 40
0
 40
0
 40
0
 40
1
 40
1
 40
1
 40
1
 10
43.5832
 20
-279.292
 30
0
 10
43.7503
 20
-279.356
 30
0
 10
43.816
 20
-279.441
 30
0
 10
43.816
 20
-279.591
 30
0
  0
SPLINE
  5
A90
330
A02
100
AcDbEntity
  8
Sketch007
100
AcDbSpline
210
0
220
0
230
1
 70
8
 71
1
 72
4
 73
2
 74
0
 40
0
 40
0
 40
0.20971
 40
0.20971
 10
43.816
 20
-279.591
 30
0
 10
43.816
 20
-279.801
 30
0
  0
SPLINE
  5
A91
330
A02
100
AcDbEntity
  8
Sketch007
100
AcDbSpline
210
0
220
0
230
1
 70
8
 71
1
 72
4
 73
2
 74
0
 40
0
 40
0
 40
0.488576
 40
0.488576
 10
43.816
 20
-279.801
 30
0
 10
44.2497
 20
-279.576
 30
0
  0
SPLINE
  5
A92
330
A02
100
AcDbEntity
  8
Sketch007
100
AcDbSpline
210
0
220
0
230
1
 70
8
 71
3
 72
8
 73
4
 74
0
 40
0
 40
0
 40
0
 40
0
 40
1
 40
1
 40
1
 40
1
 10
44.2497
 20
-279.576
 30
0
 10
44.6051
 20
-279.392
 30
0
 10
44.8001
 20
-279.35
 30
0
 10
45.3292
 20
-279.347
 30
0
  0
SPLINE
  5
A93
330
A02
100
AcDbEntity
  8
Sketch007
100
AcDbSpline
210
0
220
0
230
1
 70
8
 71
1
 72
4
 73
2
 74
0
 40
0
 40
0
 40
0.645827
 40
0.645827
 10
45.3292
 20
-279.347
 30
0
 10
45.975
 20
-279.343
 30
0
  0
SPLINE
  5
A94
330
A02
100
AcDbEntity
  8
Sketch007
100
AcDbSpline
210
0
220
0
230
1
 70
8
 71
1
 72
4
 73
2
 74
0
 40
0
 40
0
 40
1.00978
 40
1.00978
 10
45.975
 20
-279.343
 30
0
 10
45.975
 20
-280.353
 30
0
  0
SPLINE
  5
A95
330
A02
100
AcDbEntity
  8
Sketch007
100
AcDbSpline
210
0
220
0
230
1
 70
8
 71
1
 72
4
 73
2
 74
0
 40
0
 40
0
 40
1.00978
 40
1.00978
 10
45.975
 20
-280.353
 30
0
 10
45.975
 20
-281.363
 30
0
  0
SPLINE
  5
A96
330
A02
100
AcDbEntity
  8
Sketch007
100
AcDbSpline
210
0
220
0
230
1
 70
8
 71
1
 72
4
 73
2
 74
0
 40
0
 40
0
 40
0.627085
 40
0.627085
 10
45.975
 20
-281.363
 30
0
 10
45.3661
 20
-281.512
 30
0
  0
SPLINE
  5
A97
330
A02
100
AcDbEntity
  8
Sketch007
100
AcDbSpline
210
0
220
0
230
1
 70
8
 71
3
 72
8
 73
4
 74
0
 40
0
 40
0
 40
0
 40
0
 40
1
 40
1
 40
1
 40
1
 10
45.3661
 20
-281.512
 30
0
 10
44.6287
 20
-281.694
 30
0
 10
44.311
 20
-281.85
 30
0
 10
44.0775
 20
-282.147
 30
0
  0
SPLINE
  5
A98
330
A02
100
AcDbEntity
  8
Sketch007
100
AcDbSpline
210
0
220
0
230
1
 70
8
 71
3
 72
8
 73
4
 74
0
 40
0
 40
0
 40
0
 40
0
 40
1
 40
1
 40
1
 40
1
 10
44.0775
 20
-282.147
 30
0
 10
43.5678
 20
-282.795
 30
0
 10
44.2017
 20
-283.486
 30
0
 10
45.4163
 20
-283.606
 30
0
  0
SPLINE
  5
A99
330
A02
100
AcDbEntity
  8
Sketch007
100
AcDbSpline
210
0
220
0
230
1
 70
8
 71
1
 72
4
 73
2
 74
0
 40
0
 40
0
 40
0.561468
 40
0.561468
 10
45.4163
 20
-283.606
 30
0
 10
45.975
 20
-283.661
 30
0
  0
SPLINE
  5
A9A
330
A02
100
AcDbEntity
  8
Sketch007
100
AcDbSpline
210
0
220
0
230
1
 70
8
 71
1
 72
4
 73
2
 74
0
 40
0
 40
0
 40
1.05833
 40
1.05833
 10
45.975
 20
-283.661
 30
0
 10
45.975
 20
-284.72
 30
0
  0
SPLINE
  5
A9B
330
A02
100
AcDbEntity
  8
Sketch007
100
AcDbSpline
210
0
220
0
230
1
 70
8
 71
1
 72
4
 73
2
 74
0
 40
0
 40
0
 40
1.05834
 40
1.05834
 10
45.975
 20
-284.72
 30
0
 10
45.975
 20
-285.778
 30
0
  0
SPLINE
  5
A9C
330
A02
100
AcDbEntity
  8
Sketch007
100
AcDbSpline
210
0
220
0
230
1
 70
8
 71
1
 72
4
 73
2
 74
0
 40
0
 40
0
 40
0.423363
 40
0.423363
 10
45.975
 20
-285.778
 30
0
 10
45.5517
 20
-285.773
 30
0
  0
SPLINE
  5
A9D
330
A02
100
AcDbEntity
  8
Sketch007
100
AcDbSpline
210
0
220
0
230
1
 70
8
 71
3
 72
8
 73
4
 74
0
 40
0
 40
0
 40
0
 40
0
 40
1
 40
1
 40
1
 40
1
 10
45.5517
 20
-285.773
 30
0
 10
45.0607
 20
-285.768
 30
0
 10
44.6522
 20
-285.591
 30
0
 10
44.1636
 20
-285.173
 30
0
  0
SPLINE
  5
A9E
330
A02
100
AcDbEntity
  8
Sketch007
100
AcDbSpline
210
0
220
0
230
1
 70
8
 71
1
 72
4
 73
2
 74
0
 40
0
 40
0
 40
0.457515
 40
0.457515
 10
44.1636
 20
-285.173
 30
0
 10
43.816
 20
-284.875
 30
0
  0
SPLINE
  5
A9F
330
A02
100
AcDbEntity
  8
Sketch007
100
AcDbSpline
210
0
220
0
230
1
 70
8
 71
1
 72
4
 73
2
 74
0
 40
0
 40
0
 40
0.42006
 40
0.42006
 10
43.816
 20
-284.875
 30
0
 10
43.816
 20
-285.295
 30
0
  0
SPLINE
  5
AA0
330
A02
100
AcDbEntity
  8
Sketch007
100
AcDbSpline
210
0
220
0
230
1
 70
8
 71
3
 72
8
 73
4
 74
0
 40
0
 40
0
 40
0
 40
0
 40
1
 40
1
 40
1
 40
1
 10
43.816
 20
-285.295
 30
0
 10
43.816
 20
-285.659
 30
0
 10
43.7906
 20
-285.722
 30
0
 10
43.6255
 20
-285.766
 30
0
  0
SPLINE
  5
AA1
330
A02
100
AcDbEntity
  8
Sketch007
100
AcDbSpline
210
0
220
0
230
1
 70
8
 71
3
 72
8
 73
4
 74
0
 40
0
 40
0
 40
0
 40
0
 40
1
 40
1
 40
1
 40
1
 10
43.6255
 20
-285.766
 30
0
 10
43.3924
 20
-285.829
 30
0
 10
42.8038
 20
-285.824
 30
0
 10
42.6307
 20
-285.758
 30
0
  0
SPLINE
  5
AA2
330
A02
100
AcDbEntity
  8
Sketch007
100
AcDbSpline
210
0
220
0
230
1
 70
8
 71
1
 72
4
 73
2
 74
0
 40
0
 40
0
 40
0.000270007
 40
0.000270007
 10
42.6307
 20
-285.758
 30
0
 10
42.6307
 20
-285.759
 30
0
  0
SPLINE
  5
AA3
330
A02
100
AcDbEntity
  8
Sketch007
100
AcDbSpline
210
0
220
0
230
1
 70
8
 71
3
 72
8
 73
4
 74
0
 40
0
 40
0
 40
0
 40
0
 40
1
 40
1
 40
1
 40
1
 10
43.4774
 20
-284.886
 30
0
 10
43.4774
 20
-284.095
 30
0
 10
43.6009
 20
-284.048
 30
0
 10
44.1319
 20
-284.639
 30
0
  0
SPLINE
  5
AA4
330
A02
100
AcDbEntity
  8
Sketch007
100
AcDbSpline
210
0
220
0
230
1
 70
8
 71
3
 72
8
 73
4
 74
0
 40
0
 40
0
 40
0
 40
0
 40
1
 40
1
 40
1
 40
1
 10
44.1319
 20
-284.639
 30
0
 10
44.5154
 20
-285.065
 30
0
 10
45.2025
 20
-285.479
 30
0
 10
45.5305
 20
-285.481
 30
0
  0
SPLINE
  5
AA5
330
A02
100
AcDbEntity
  8
Sketch007
100
AcDbSpline
210
0
220
0
230
1
 70
8
 71
3
 72
8
 73
4
 74
0
 40
0
 40
0
 40
0
 40
0
 40
1
 40
1
 40
1
 40
1
 10
45.5305
 20
-285.481
 30
0
 10
45.6606
 20
-285.482
 30
0
 10
45.6787
 20
-285.39
 30
0
 10
45.6787
 20
-284.732
 30
0
  0
SPLINE
  5
AA6
330
A02
100
AcDbEntity
  8
Sketch007
100
AcDbSpline
210
0
220
0
230
1
 70
8
 71
1
 72
4
 73
2
 74
0
 40
0
 40
0
 40
0.75021
 40
0.75021
 10
45.6787
 20
-284.732
 30
0
 10
45.6787
 20
-283.981
 30
0
  0
SPLINE
  5
AA7
330
A02
100
AcDbEntity
  8
Sketch007
100
AcDbSpline
210
0
220
0
230
1
 70
8
 71
1
 72
4
 73
2
 74
0
 40
0
 40
0
 40
0.442437
 40
0.442437
 10
45.6787
 20
-283.981
 30
0
 10
45.2393
 20
-283.929
 30
0
  0
SPLINE
  5
AA8
330
A02
100
AcDbEntity
  8
Sketch007
100
AcDbSpline
210
0
220
0
230
1
 70
8
 71
3
 72
8
 73
4
 74
0
 40
0
 40
0
 40
0
 40
0
 40
1
 40
1
 40
1
 40
1
 10
45.2393
 20
-283.929
 30
0
 10
44.6457
 20
-283.859
 30
0
 10
43.9265
 20
-283.496
 30
0
 10
43.7245
 20
-283.165
 30
0
  0
SPLINE
  5
AA9
330
A02
100
AcDbEntity
  8
Sketch007
100
AcDbSpline
210
0
220
0
230
1
 70
8
 71
3
 72
8
 73
4
 74
0
 40
0
 40
0
 40
0
 40
0
 40
1
 40
1
 40
1
 40
1
 10
43.7245
 20
-283.165
 30
0
 10
43.5074
 20
-282.809
 30
0
 10
43.5183
 20
-282.356
 30
0
 10
43.7525
 20
-282.002
 30
0
  0
SPLINE
  5
AAA
330
A02
100
AcDbEntity
  8
Sketch007
100
AcDbSpline
210
0
220
0
230
1
 70
8
 71
3
 72
8
 73
4
 74
0
 40
0
 40
0
 40
0
 40
0
 40
1
 40
1
 40
1
 40
1
 10
43.7525
 20
-282.002
 30
0
 10
43.9724
 20
-281.67
 30
0
 10
44.691
 20
-281.278
 30
0
 10
45.257
 20
-281.182
 30
0
  0
SPLINE
  5
AAB
330
A02
100
AcDbEntity
  8
Sketch007
100
AcDbSpline
210
0
220
0
230
1
 70
8
 71
1
 72
4
 73
2
 74
0
 40
0
 40
0
 40
0.384787
 40
0.384787
 10
45.257
 20
-281.182
 30
0
 10
45.6364
 20
-281.117
 30
0
  0
SPLINE
  5
AAC
330
A02
100
AcDbEntity
  8
Sketch007
100
AcDbSpline
210
0
220
0
230
1
 70
8
 71
1
 72
4
 73
2
 74
0
 40
0
 40
0
 40
0.749874
 40
0.749874
 10
45.6364
 20
-281.117
 30
0
 10
45.661
 20
-280.368
 30
0
  0
SPLINE
  5
AAD
330
A02
100
AcDbEntity
  8
Sketch007
100
AcDbSpline
210
0
220
0
230
1
 70
8
 71
1
 72
4
 73
2
 74
0
 40
0
 40
0
 40
0.749874
 40
0.749874
 10
45.661
 20
-280.368
 30
0
 10
45.6856
 20
-279.618
 30
0
  0
SPLINE
  5
AAE
330
A02
100
AcDbEntity
  8
Sketch007
100
AcDbSpline
210
0
220
0
230
1
 70
8
 71
1
 72
4
 73
2
 74
0
 40
0
 40
0
 40
0.457788
 40
0.457788
 10
45.6856
 20
-279.618
 30
0
 10
45.2294
 20
-279.656
 30
0
  0
SPLINE
  5
AAF
330
A02
100
AcDbEntity
  8
Sketch007
100
AcDbSpline
210
0
220
0
230
1
 70
8
 71
3
 72
8
 73
4
 74
0
 40
0
 40
0
 40
0
 40
0
 40
1
 40
1
 40
1
 40
1
 10
45.2294
 20
-279.656
 30
0
 10
44.8225
 20
-279.69
 30
0
 10
44.4187
 20
-279.844
 30
0
 10
43.9181
 20
-280.157
 30
0
  0
SPLINE
  5
AB0
330
A02
100
AcDbEntity
  8
Sketch007
100
AcDbSpline
210
0
220
0
230
1
 70
8
 71
3
 72
8
 73
4
 74
0
 40
0
 40
0
 40
0
 40
0
 40
1
 40
1
 40
1
 40
1
 10
43.9181
 20
-280.157
 30
0
 10
43.6562
 20
-280.32
 30
0
 10
43.4774
 20
-280.196
 30
0
 10
43.4774
 20
-279.849
 30
0
  0
SPLINE
  5
AB1
330
A02
100
AcDbEntity
  8
Sketch007
100
AcDbSpline
210
0
220
0
230
1
 70
8
 71
1
 72
4
 73
2
 74
0
 40
0
 40
0
 40
0.30386
 40
0.30386
 10
43.4774
 20
-279.849
 30
0
 10
43.4774
 20
-279.545
 30
0
  0
SPLINE
  5
AB2
330
A02
100
AcDbEntity
  8
Sketch007
100
AcDbSpline
210
0
220
0
230
1
 70
8
 71
1
 72
4
 73
2
 74
0
 40
0
 40
0
 40
0.360771
 40
0.360771
 10
43.4774
 20
-279.545
 30
0
 10
43.1175
 20
-279.571
 30
0
  0
SPLINE
  5
AB3
330
A02
100
AcDbEntity
  8
Sketch007
100
AcDbSpline
210
0
220
0
230
1
 70
8
 71
1
 72
4
 73
2
 74
0
 40
0
 40
0
 40
0.360772
 40
0.360772
 10
43.1175
 20
-279.571
 30
0
 10
42.7577
 20
-279.597
 30
0
  0
SPLINE
  5
AB4
330
A02
100
AcDbEntity
  8
Sketch007
100
AcDbSpline
210
0
220
0
230
1
 70
8
 71
1
 72
4
 73
2
 74
0
 40
0
 40
0
 40
2.83582
 40
2.83582
 10
42.7577
 20
-279.597
 30
0
 10
42.7354
 20
-282.433
 30
0
  0
SPLINE
  5
AB5
330
A02
100
AcDbEntity
  8
Sketch007
100
AcDbSpline
210
0
220
0
230
1
 70
8
 71
3
 72
8
 73
4
 74
0
 40
0
 40
0
 40
0
 40
0
 40
1
 40
1
 40
1
 40
1
 10
42.7354
 20
-282.433
 30
0
 10
42.7231
 20
-283.993
 30
0
 10
42.7314
 20
-285.317
 30
0
 10
42.7539
 20
-285.375
 30
0
  0
SPLINE
  5
AB6
330
A02
100
AcDbEntity
  8
Sketch007
100
AcDbSpline
210
0
220
0
230
1
 70
8
 71
3
 72
8
 73
4
 74
0
 40
0
 40
0
 40
0
 40
0
 40
1
 40
1
 40
1
 40
1
 10
42.7539
 20
-285.375
 30
0
 10
42.7773
 20
-285.436
 30
0
 10
42.9401
 20
-285.482
 30
0
 10
43.136
 20
-285.482
 30
0
  0
SPLINE
  5
AB7
330
A02
100
AcDbEntity
  8
Sketch007
100
AcDbSpline
210
0
220
0
230
1
 70
8
 71
1
 72
4
 73
2
 74
0
 40
0
 40
0
 40
0.341323
 40
0.341323
 10
43.136
 20
-285.482
 30
0
 10
43.4774
 20
-285.482
 30
0
  0
SPLINE
  5
AB8
330
A02
100
AcDbEntity
  8
Sketch007
100
AcDbSpline
210
0
220
0
230
1
 70
8
 71
1
 72
4
 73
2
 74
0
 40
0
 40
0
 40
0.59531
 40
0.59531
 10
43.4774
 20
-285.482
 30
0
 10
43.4774
 20
-284.886
 30
0
  0
SPLINE
  5
AB9
330
A02
100
AcDbEntity
  8
Sketch007
100
AcDbSpline
210
0
220
0
230
1
 70
8
 71
3
 72
8
 73
4
 74
0
 40
0
 40
0
 40
0
 40
0
 40
1
 40
1
 40
1
 40
1
 10
47.329
 20
-285.668
 30
0
 10
46.9117
 20
-285.472
 30
0
 10
46.4931
 20
-285.008
 30
0
 10
46.3548
 20
-284.589
 30
0
  0
SPLINE
  5
ABA
330
A02
100
AcDbEntity
  8
Sketch007
100
AcDbSpline
210
0
220
0
230
1
 70
8
 71
3
 72
8
 73
4
 74
0
 40
0
 40
0
 40
0
 40
0
 40
1
 40
1
 40
1
 40
1
 10
46.3548
 20
-284.589
 30
0
 10
46.23
 20
-284.211
 30
0
 10
46.2821
 20
-282.982
 30
0
 10
46.429
 20
-282.835
 30
0
  0
SPLINE
  5
ABB
330
A02
100
AcDbEntity
  8
Sketch007
100
AcDbSpline
210
0
220
0
230
1
 70
8
 71
3
 72
8
 73
4
 74
0
 40
0
 40
0
 40
0
 40
0
 40
1
 40
1
 40
1
 40
1
 10
46.429
 20
-282.835
 30
0
 10
46.5068
 20
-282.757
 30
0
 10
46.6195
 20
-282.827
 30
0
 10
46.9245
 20
-283.14
 30
0
  0
SPLINE
  5
ABC
330
A02
100
AcDbEntity
  8
Sketch007
100
AcDbSpline
210
0
220
0
230
1
 70
8
 71
3
 72
8
 73
4
 74
0
 40
0
 40
0
 40
0
 40
0
 40
1
 40
1
 40
1
 40
1
 10
46.9245
 20
-283.14
 30
0
 10
47.5423
 20
-283.776
 30
0
 10
48.0255
 20
-283.939
 30
0
 10
48.1705
 20
-283.562
 30
0
  0
SPLINE
  5
ABD
330
A02
100
AcDbEntity
  8
Sketch007
100
AcDbSpline
210
0
220
0
230
1
 70
8
 71
3
 72
8
 73
4
 74
0
 40
0
 40
0
 40
0
 40
0
 40
1
 40
1
 40
1
 40
1
 10
48.1705
 20
-283.562
 30
0
 10
48.2566
 20
-283.337
 30
0
 10
47.9904
 20
-283.042
 30
0
 10
47.4605
 20
-282.774
 30
0
  0
SPLINE
  5
ABE
330
A02
100
AcDbEntity
  8
Sketch007
100
AcDbSpline
210
0
220
0
230
1
 70
8
 71
3
 72
8
 73
4
 74
0
 40
0
 40
0
 40
0
 40
0
 40
1
 40
1
 40
1
 40
1
 10
47.4605
 20
-282.774
 30
0
 10
46.6942
 20
-282.388
 30
0
 10
46.2692
 20
-281.693
 30
0
 10
46.2732
 20
-280.836
 30
0
  0
SPLINE
  5
ABF
330
A02
100
AcDbEntity
  8
Sketch007
100
AcDbSpline
210
0
220
0
230
1
 70
8
 71
3
 72
8
 73
4
 74
0
 40
0
 40
0
 40
0
 40
0
 40
1
 40
1
 40
1
 40
1
 10
46.2732
 20
-280.836
 30
0
 10
46.2783
 20
-279.771
 30
0
 10
47.0095
 20
-279.157
 30
0
 10
48.183
 20
-279.232
 30
0
  0
SPLINE
  5
AC0
330
A02
100
AcDbEntity
  8
Sketch007
100
AcDbSpline
210
0
220
0
230
1
 70
8
 71
3
 72
8
 73
4
 74
0
 40
0
 40
0
 40
0
 40
0
 40
1
 40
1
 40
1
 40
1
 10
48.183
 20
-279.232
 30
0
 10
49.179
 20
-279.296
 30
0
 10
49.779
 20
-279.944
 30
0
 10
49.7688
 20
-280.945
 30
0
  0
SPLINE
  5
AC1
330
A02
100
AcDbEntity
  8
Sketch007
100
AcDbSpline
210
0
220
0
230
1
 70
8
 71
3
 72
8
 73
4
 74
0
 40
0
 40
0
 40
0
 40
0
 40
1
 40
1
 40
1
 40
1
 10
49.7688
 20
-280.945
 30
0
 10
49.763
 20
-281.514
 30
0
 10
49.5644
 20
-282.095
 30
0
 10
49.3758
 20
-282.095
 30
0
  0
SPLINE
  5
AC2
330
A02
100
AcDbEntity
  8
Sketch007
100
AcDbSpline
210
0
220
0
230
1
 70
8
 71
3
 72
8
 73
4
 74
0
 40
0
 40
0
 40
0
 40
0
 40
1
 40
1
 40
1
 40
1
 10
49.3758
 20
-282.095
 30
0
 10
49.3089
 20
-282.095
 30
0
 10
49.1923
 20
-282.001
 30
0
 10
49.1166
 20
-281.885
 30
0
  0
SPLINE
  5
AC3
330
A02
100
AcDbEntity
  8
Sketch007
100
AcDbSpline
210
0
220
0
230
1
 70
8
 71
3
 72
8
 73
4
 74
0
 40
0
 40
0
 40
0
 40
0
 40
1
 40
1
 40
1
 40
1
 10
49.1166
 20
-281.885
 30
0
 10
48.8199
 20
-281.432
 30
0
 10
48.1265
 20
-281.296
 30
0
 10
48.0087
 20
-281.667
 30
0
  0
SPLINE
  5
AC4
330
A02
100
AcDbEntity
  8
Sketch007
100
AcDbSpline
210
0
220
0
230
1
 70
8
 71
3
 72
8
 73
4
 74
0
 40
0
 40
0
 40
0
 40
0
 40
1
 40
1
 40
1
 40
1
 10
48.0087
 20
-281.667
 30
0
 10
47.923
 20
-281.937
 30
0
 10
48.1403
 20
-282.163
 30
0
 10
48.8065
 20
-282.498
 30
0
  0
SPLINE
  5
AC5
330
A02
100
AcDbEntity
  8
Sketch007
100
AcDbSpline
210
0
220
0
230
1
 70
8
 71
3
 72
8
 73
4
 74
0
 40
0
 40
0
 40
0
 40
0
 40
1
 40
1
 40
1
 40
1
 10
48.8065
 20
-282.498
 30
0
 10
49.6765
 20
-282.935
 30
0
 10
49.785
 20
-283.105
 30
0
 10
49.785
 20
-284.034
 30
0
  0
SPLINE
  5
AC6
330
A02
100
AcDbEntity
  8
Sketch007
100
AcDbSpline
210
0
220
0
230
1
 70
8
 71
3
 72
8
 73
4
 74
0
 40
0
 40
0
 40
0
 40
0
 40
1
 40
1
 40
1
 40
1
 10
49.785
 20
-284.034
 30
0
 10
49.785
 20
-284.716
 30
0
 10
49.766
 20
-284.8
 30
0
 10
49.5473
 20
-285.087
 30
0
  0
SPLINE
  5
AC7
330
A02
100
AcDbEntity
  8
Sketch007
100
AcDbSpline
210
0
220
0
230
1
 70
8
 71
3
 72
8
 73
4
 74
0
 40
0
 40
0
 40
0
 40
0
 40
1
 40
1
 40
1
 40
1
 10
49.5473
 20
-285.087
 30
0
 10
49.0685
 20
-285.715
 30
0
 10
48.0153
 20
-285.99
 30
0
 10
47.329
 20
-285.668
 30
0
  0
SPLINE
  5
AC8
330
A02
100
AcDbEntity
  8
Sketch007
100
AcDbSpline
210
0
220
0
230
1
 70
8
 71
1
 72
4
 73
2
 74
0
 40
0
 40
0
 40
3e-06
 40
3e-06
 10
47.329
 20
-285.668
 30
0
 10
47.329
 20
-285.668
 30
0
  0
SPLINE
  5
AC9
330
A02
100
AcDbEntity
  8
Sketch007
100
AcDbSpline
210
0
220
0
230
1
 70
8
 71
3
 72
8
 73
4
 74
0
 40
0
 40
0
 40
0
 40
0
 40
1
 40
1
 40
1
 40
1
 10
48.6879
 20
-285.323
 30
0
 10
48.8761
 20
-285.237
 30
0
 10
49.1332
 20
-285.045
 30
0
 10
49.2594
 20
-284.895
 30
0
  0
SPLINE
  5
ACA
330
A02
100
AcDbEntity
  8
Sketch007
100
AcDbSpline
210
0
220
0
230
1
 70
8
 71
3
 72
8
 73
4
 74
0
 40
0
 40
0
 40
0
 40
0
 40
1
 40
1
 40
1
 40
1
 10
49.2594
 20
-284.895
 30
0
 10
49.4594
 20
-284.657
 30
0
 10
49.4887
 20
-284.549
 30
0
 10
49.4887
 20
-284.047
 30
0
  0
SPLINE
  5
ACB
330
A02
100
AcDbEntity
  8
Sketch007
100
AcDbSpline
210
0
220
0
230
1
 70
8
 71
3
 72
8
 73
4
 74
0
 40
0
 40
0
 40
0
 40
0
 40
1
 40
1
 40
1
 40
1
 10
49.4887
 20
-284.047
 30
0
 10
49.4887
 20
-283.327
 30
0
 10
49.3278
 20
-283.096
 30
0
 10
48.5947
 20
-282.764
 30
0
  0
SPLINE
  5
ACC
330
A02
100
AcDbEntity
  8
Sketch007
100
AcDbSpline
210
0
220
0
230
1
 70
8
 71
3
 72
8
 73
4
 74
0
 40
0
 40
0
 40
0
 40
0
 40
1
 40
1
 40
1
 40
1
 10
48.5947
 20
-282.764
 30
0
 10
48.0144
 20
-282.501
 30
0
 10
47.626
 20
-282.109
 30
0
 10
47.626
 20
-281.786
 30
0
  0
SPLINE
  5
ACD
330
A02
100
AcDbEntity
  8
Sketch007
100
AcDbSpline
210
0
220
0
230
1
 70
8
 71
3
 72
8
 73
4
 74
0
 40
0
 40
0
 40
0
 40
0
 40
1
 40
1
 40
1
 40
1
 10
47.626
 20
-281.786
 30
0
 10
47.626
 20
-281.663
 30
0
 10
47.7341
 20
-281.466
 30
0
 10
47.8841
 20
-281.316
 30
0
  0
SPLINE
  5
ACE
330
A02
100
AcDbEntity
  8
Sketch007
100
AcDbSpline
210
0
220
0
230
1
 70
8
 71
3
 72
8
 73
4
 74
0
 40
0
 40
0
 40
0
 40
0
 40
1
 40
1
 40
1
 40
1
 10
47.8841
 20
-281.316
 30
0
 10
48.107
 20
-281.093
 30
0
 10
48.1871
 20
-281.064
 30
0
 10
48.4708
 20
-281.102
 30
0
  0
SPLINE
  5
ACF
330
A02
100
AcDbEntity
  8
Sketch007
100
AcDbSpline
210
0
220
0
230
1
 70
8
 71
3
 72
8
 73
4
 74
0
 40
0
 40
0
 40
0
 40
0
 40
1
 40
1
 40
1
 40
1
 10
48.4708
 20
-281.102
 30
0
 10
48.6516
 20
-281.126
 30
0
 10
48.9305
 20
-281.246
 30
0
 10
49.0906
 20
-281.368
 30
0
  0
SPLINE
  5
AD0
330
A02
100
AcDbEntity
  8
Sketch007
100
AcDbSpline
210
0
220
0
230
1
 70
8
 71
1
 72
4
 73
2
 74
0
 40
0
 40
0
 40
0.366209
 40
0.366209
 10
49.0906
 20
-281.368
 30
0
 10
49.3818
 20
-281.59
 30
0
  0
SPLINE
  5
AD1
330
A02
100
AcDbEntity
  8
Sketch007
100
AcDbSpline
210
0
220
0
230
1
 70
8
 71
1
 72
4
 73
2
 74
0
 40
0
 40
0
 40
0.438579
 40
0.438579
 10
49.3818
 20
-281.59
 30
0
 10
49.4395
 20
-281.155
 30
0
  0
SPLINE
  5
AD2
330
A02
100
AcDbEntity
  8
Sketch007
100
AcDbSpline
210
0
220
0
230
1
 70
8
 71
3
 72
8
 73
4
 74
0
 40
0
 40
0
 40
0
 40
0
 40
1
 40
1
 40
1
 40
1
 10
49.4395
 20
-281.155
 30
0
 10
49.4872
 20
-280.796
 30
0
 10
49.4635
 20
-280.654
 30
0
 10
49.3024
 20
-280.333
 30
0
  0
SPLINE
  5
AD3
330
A02
100
AcDbEntity
  8
Sketch007
100
AcDbSpline
210
0
220
0
230
1
 70
8
 71
3
 72
8
 73
4
 74
0
 40
0
 40
0
 40
0
 40
0
 40
1
 40
1
 40
1
 40
1
 10
49.3024
 20
-280.333
 30
0
 10
49.0293
 20
-279.789
 30
0
 10
48.752
 20
-279.612
 30
0
 10
48.104
 20
-279.571
 30
0
  0
SPLINE
  5
AD4
330
A02
100
AcDbEntity
  8
Sketch007
100
AcDbSpline
210
0
220
0
230
1
 70
8
 71
3
 72
8
 73
4
 74
0
 40
0
 40
0
 40
0
 40
0
 40
1
 40
1
 40
1
 40
1
 10
48.104
 20
-279.571
 30
0
 10
46.9317
 20
-279.497
 30
0
 10
46.3425
 20
-280.315
 30
0
 10
46.7294
 20
-281.48
 30
0
  0
SPLINE
  5
AD5
330
A02
100
AcDbEntity
  8
Sketch007
100
AcDbSpline
210
0
220
0
230
1
 70
8
 71
3
 72
8
 73
4
 74
0
 40
0
 40
0
 40
0
 40
0
 40
1
 40
1
 40
1
 40
1
 10
46.7294
 20
-281.479
 30
0
 10
46.8901
 20
-281.963
 30
0
 10
47.1466
 20
-282.228
 30
0
 10
47.7849
 20
-282.568
 30
0
  0
SPLINE
  5
AD6
330
A02
100
AcDbEntity
  8
Sketch007
100
AcDbSpline
210
0
220
0
230
1
 70
8
 71
3
 72
8
 73
4
 74
0
 40
0
 40
0
 40
0
 40
0
 40
1
 40
1
 40
1
 40
1
 10
47.7849
 20
-282.568
 30
0
 10
48.0352
 20
-282.702
 30
0
 10
48.2949
 20
-282.895
 30
0
 10
48.3619
 20
-282.997
 30
0
  0
SPLINE
  5
AD7
330
A02
100
AcDbEntity
  8
Sketch007
100
AcDbSpline
210
0
220
0
230
1
 70
8
 71
3
 72
8
 73
4
 74
0
 40
0
 40
0
 40
0
 40
0
 40
1
 40
1
 40
1
 40
1
 10
48.3619
 20
-282.997
 30
0
 10
48.5515
 20
-283.286
 30
0
 10
48.4725
 20
-283.783
 30
0
 10
48.2052
 20
-283.981
 30
0
  0
SPLINE
  5
AD8
330
A02
100
AcDbEntity
  8
Sketch007
100
AcDbSpline
210
0
220
0
230
1
 70
8
 71
2
 72
6
 73
3
 74
0
 40
0
 40
0
 40
0
 40
1
 40
1
 40
1
 10
48.2052
 20
-283.981
 30
0
 10
47.729
 20
-284.336
 30
0
 10
47.0007
 20
-283.695
 30
0
  0
SPLINE
  5
AD9
330
A02
100
AcDbEntity
  8
Sketch007
100
AcDbSpline
210
0
220
0
230
1
 70
8
 71
1
 72
4
 73
2
 74
0
 40
0
 40
0
 40
0.52038
 40
0.52038
 10
47.0007
 20
-283.695
 30
0
 10
46.61
 20
-283.351
 30
0
  0
SPLINE
  5
ADA
330
A02
100
AcDbEntity
  8
Sketch007
100
AcDbSpline
210
0
220
0
230
1
 70
8
 71
1
 72
4
 73
2
 74
0
 40
0
 40
0
 40
0.49725
 40
0.49725
 10
46.61
 20
-283.351
 30
0
 10
46.61
 20
-283.848
 30
0
  0
SPLINE
  5
ADB
330
A02
100
AcDbEntity
  8
Sketch007
100
AcDbSpline
210
0
220
0
230
1
 70
8
 71
3
 72
8
 73
4
 74
0
 40
0
 40
0
 40
0
 40
0
 40
1
 40
1
 40
1
 40
1
 10
46.61
 20
-283.848
 30
0
 10
46.61
 20
-285.089
 30
0
 10
47.6217
 20
-285.807
 30
0
 10
48.6879
 20
-285.323
 30
0
  0
SPLINE
  5
ADC
330
A02
100
AcDbEntity
  8
Sketch007
100
AcDbSpline
210
0
220
0
230
1
 70
8
 71
1
 72
4
 73
2
 74
0
 40
0
 40
0
 40
5e-06
 40
5e-06
 10
48.6879
 20
-285.323
 30
0
 10
48.6879
 20
-285.323
 30
0
  0
SPLINE
  5
ADD
330
A02
100
AcDbEntity
  8
Sketch007
100
AcDbSpline
210
0
220
0
230
1
 70
8
 71
1
 72
4
 73
2
 74
0
 40
0
 40
0
 40
0.264893
 40
0.264893
 10
50.3142
 20
-285.687
 30
0
 10
50.0814
 20
-285.561
 30
0
  0
SPLINE
  5
ADE
330
A02
100
AcDbEntity
  8
Sketch007
100
AcDbSpline
210
0
220
0
230
1
 70
8
 71
1
 72
4
 73
2
 74
0
 40
0
 40
0
 40
3.00101
 40
3.00101
 10
50.0814
 20
-285.561
 30
0
 10
50.0814
 20
-282.56
 30
0
  0
SPLINE
  5
ADF
330
A02
100
AcDbEntity
  8
Sketch007
100
AcDbSpline
210
0
220
0
230
1
 70
8
 71
1
 72
4
 73
2
 74
0
 40
0
 40
0
 40
3.00101
 40
3.00101
 10
50.0814
 20
-282.56
 30
0
 10
50.0814
 20
-279.559
 30
0
  0
SPLINE
  5
AE0
330
A02
100
AcDbEntity
  8
Sketch007
100
AcDbSpline
210
0
220
0
230
1
 70
8
 71
1
 72
4
 73
2
 74
0
 40
0
 40
0
 40
0.254702
 40
0.254702
 10
50.0814
 20
-279.559
 30
0
 10
50.2944
 20
-279.419
 30
0
  0
SPLINE
  5
AE1
330
A02
100
AcDbEntity
  8
Sketch007
100
AcDbSpline
210
0
220
0
230
1
 70
8
 71
3
 72
8
 73
4
 74
0
 40
0
 40
0
 40
0
 40
0
 40
1
 40
1
 40
1
 40
1
 10
50.2944
 20
-279.419
 30
0
 10
50.4474
 20
-279.319
 30
0
 10
50.6257
 20
-279.291
 30
0
 10
50.9266
 20
-279.32
 30
0
  0
SPLINE
  5
AE2
330
A02
100
AcDbEntity
  8
Sketch007
100
AcDbSpline
210
0
220
0
230
1
 70
8
 71
3
 72
8
 73
4
 74
0
 40
0
 40
0
 40
0
 40
0
 40
1
 40
1
 40
1
 40
1
 10
50.9266
 20
-279.32
 30
0
 10
51.645
 20
-279.389
 30
0
 10
51.6055
 20
-279.208
 30
0
 10
51.6042
 20
-282.423
 30
0
  0
SPLINE
  5
AE3
330
A02
100
AcDbEntity
  8
Sketch007
100
AcDbSpline
210
0
220
0
230
1
 70
8
 71
3
 72
8
 73
4
 74
0
 40
0
 40
0
 40
0
 40
0
 40
1
 40
1
 40
1
 40
1
 10
51.6042
 20
-282.423
 30
0
 10
51.6035
 20
-283.989
 30
0
 10
51.5807
 20
-285.353
 30
0
 10
51.5534
 20
-285.455
 30
0
  0
SPLINE
  5
AE4
330
A02
100
AcDbEntity
  8
Sketch007
100
AcDbSpline
210
0
220
0
230
1
 70
8
 71
3
 72
8
 73
4
 74
0
 40
0
 40
0
 40
0
 40
0
 40
1
 40
1
 40
1
 40
1
 10
51.5534
 20
-285.455
 30
0
 10
51.4634
 20
-285.791
 30
0
 10
50.7509
 20
-285.924
 30
0
 10
50.3142
 20
-285.687
 30
0
  0
SPLINE
  5
AE5
330
A02
100
AcDbEntity
  8
Sketch007
100
AcDbSpline
210
0
220
0
230
1
 70
8
 71
1
 72
4
 73
2
 74
0
 40
0
 40
0
 40
2.03961e-05
 40
2.03961e-05
 10
50.3142
 20
-285.687
 30
0
 10
50.3142
 20
-285.687
 30
0
  0
SPLINE
  5
AE6
330
A02
100
AcDbEntity
  8
Sketch007
100
AcDbSpline
210
0
220
0
230
1
 70
8
 71
3
 72
8
 73
4
 74
0
 40
0
 40
0
 40
0
 40
0
 40
1
 40
1
 40
1
 40
1
 10
51.1577
 20
-285.376
 30
0
 10
51.2058
 20
-285.313
 30
0
 10
51.2358
 20
-284.137
 30
0
 10
51.2315
 20
-282.476
 30
0
  0
SPLINE
  5
AE7
330
A02
100
AcDbEntity
  8
Sketch007
100
AcDbSpline
210
0
220
0
230
1
 70
8
 71
1
 72
4
 73
2
 74
0
 40
0
 40
0
 40
2.79401
 40
2.79401
 10
51.2315
 20
-282.476
 30
0
 10
51.2244
 20
-279.682
 30
0
  0
SPLINE
  5
AE8
330
A02
100
AcDbEntity
  8
Sketch007
100
AcDbSpline
210
0
220
0
230
1
 70
8
 71
1
 72
4
 73
2
 74
0
 40
0
 40
0
 40
0.381
 40
0.381
 10
51.2244
 20
-279.682
 30
0
 10
50.8434
 20
-279.682
 30
0
  0
SPLINE
  5
AE9
330
A02
100
AcDbEntity
  8
Sketch007
100
AcDbSpline
210
0
220
0
230
1
 70
8
 71
1
 72
4
 73
2
 74
0
 40
0
 40
0
 40
0.381
 40
0.381
 10
50.8434
 20
-279.682
 30
0
 10
50.4624
 20
-279.682
 30
0
  0
SPLINE
  5
AEA
330
A02
100
AcDbEntity
  8
Sketch007
100
AcDbSpline
210
0
220
0
230
1
 70
8
 71
1
 72
4
 73
2
 74
0
 40
0
 40
0
 40
2.83071
 40
2.83071
 10
50.4624
 20
-279.682
 30
0
 10
50.4401
 20
-282.513
 30
0
  0
SPLINE
  5
AEB
330
A02
100
AcDbEntity
  8
Sketch007
100
AcDbSpline
210
0
220
0
230
1
 70
8
 71
3
 72
8
 73
4
 74
0
 40
0
 40
0
 40
0
 40
0
 40
1
 40
1
 40
1
 40
1
 10
50.4401
 20
-282.513
 30
0
 10
50.4227
 20
-284.721
 30
0
 10
50.4413
 20
-285.358
 30
0
 10
50.5248
 20
-285.411
 30
0
  0
SPLINE
  5
AEC
330
A02
100
AcDbEntity
  8
Sketch007
100
AcDbSpline
210
0
220
0
230
1
 70
8
 71
3
 72
8
 73
4
 74
0
 40
0
 40
0
 40
0
 40
0
 40
1
 40
1
 40
1
 40
1
 10
50.5248
 20
-285.411
 30
0
 10
50.6889
 20
-285.515
 30
0
 10
51.0671
 20
-285.494
 30
0
 10
51.1577
 20
-285.376
 30
0
  0
SPLINE
  5
AED
330
A02
100
AcDbEntity
  8
Sketch007
100
AcDbSpline
210
0
220
0
230
1
 70
8
 71
1
 72
4
 73
2
 74
0
 40
0
 40
0
 40
5.47814e-05
 40
5.47814e-05
 10
51.1577
 20
-285.376
 30
0
 10
51.1577
 20
-285.376
 30
0
  0
SPLINE
  5
AEE
330
A02
100
AcDbEntity
  8
Sketch007
100
AcDbSpline
210
0
220
0
230
1
 70
8
 71
3
 72
8
 73
4
 74
0
 40
0
 40
0
 40
0
 40
0
 40
1
 40
1
 40
1
 40
1
 10
51.9652
 20
-285.695
 30
0
 10
51.784
 20
-285.564
 30
0
 10
51.7747
 20
-285.501
 30
0
 10
51.7747
 20
-284.42
 30
0
  0
SPLINE
  5
AEF
330
A02
100
AcDbEntity
  8
Sketch007
100
AcDbSpline
210
0
220
0
230
1
 70
8
 71
1
 72
4
 73
2
 74
0
 40
0
 40
0
 40
1.13658
 40
1.13658
 10
51.7747
 20
-284.42
 30
0
 10
51.7747
 20
-283.284
 30
0
  0
SPLINE
  5
AF0
330
A02
100
AcDbEntity
  8
Sketch007
100
AcDbSpline
210
0
220
0
230
1
 70
8
 71
1
 72
4
 73
2
 74
0
 40
0
 40
0
 40
0.237689
 40
0.237689
 10
51.7747
 20
-283.284
 30
0
 10
52.0075
 20
-283.236
 30
0
  0
SPLINE
  5
AF1
330
A02
100
AcDbEntity
  8
Sketch007
100
AcDbSpline
210
0
220
0
230
1
 70
8
 71
3
 72
8
 73
4
 74
0
 40
0
 40
0
 40
0
 40
0
 40
1
 40
1
 40
1
 40
1
 10
52.0075
 20
-283.236
 30
0
 10
52.1356
 20
-283.21
 30
0
 10
52.3832
 20
-283.15
 30
0
 10
52.5579
 20
-283.104
 30
0
  0
SPLINE
  5
AF2
330
A02
100
AcDbEntity
  8
Sketch007
100
AcDbSpline
210
0
220
0
230
1
 70
8
 71
1
 72
4
 73
2
 74
0
 40
0
 40
0
 40
0.328475
 40
0.328475
 10
52.5579
 20
-283.104
 30
0
 10
52.8754
 20
-283.02
 30
0
  0
SPLINE
  5
AF3
330
A02
100
AcDbEntity
  8
Sketch007
100
AcDbSpline
210
0
220
0
230
1
 70
8
 71
1
 72
4
 73
2
 74
0
 40
0
 40
0
 40
1.7219
 40
1.7219
 10
52.8754
 20
-283.02
 30
0
 10
52.8754
 20
-281.298
 30
0
  0
SPLINE
  5
AF4
330
A02
100
AcDbEntity
  8
Sketch007
100
AcDbSpline
210
0
220
0
230
1
 70
8
 71
3
 72
8
 73
4
 74
0
 40
0
 40
0
 40
0
 40
0
 40
1
 40
1
 40
1
 40
1
 10
52.8754
 20
-281.298
 30
0
 10
52.8754
 20
-279.316
 30
0
 10
52.8662
 20
-279.341
 30
0
 10
53.6004
 20
-279.348
 30
0
  0
SPLINE
  5
AF5
330
A02
100
AcDbEntity
  8
Sketch007
100
AcDbSpline
210
0
220
0
230
1
 70
8
 71
3
 72
8
 73
4
 74
0
 40
0
 40
0
 40
0
 40
0
 40
1
 40
1
 40
1
 40
1
 10
53.6004
 20
-279.348
 30
0
 10
54.3511
 20
-279.355
 30
0
 10
54.3147
 20
-279.207
 30
0
 10
54.3147
 20
-282.256
 30
0
  0
SPLINE
  5
AF6
330
A02
100
AcDbEntity
  8
Sketch007
100
AcDbSpline
210
0
220
0
230
1
 70
8
 71
3
 72
8
 73
4
 74
0
 40
0
 40
0
 40
0
 40
0
 40
1
 40
1
 40
1
 40
1
 10
54.3147
 20
-282.256
 30
0
 10
54.3147
 20
-284.554
 30
0
 10
54.2958
 20
-284.963
 30
0
 10
54.1818
 20
-285.126
 30
0
  0
SPLINE
  5
AF7
330
A02
100
AcDbEntity
  8
Sketch007
100
AcDbSpline
210
0
220
0
230
1
 70
8
 71
3
 72
8
 73
4
 74
0
 40
0
 40
0
 40
0
 40
0
 40
1
 40
1
 40
1
 40
1
 10
54.1818
 20
-285.126
 30
0
 10
53.8305
 20
-285.627
 30
0
 10
52.383
 20
-285.999
 30
0
 10
51.9652
 20
-285.695
 30
0
  0
SPLINE
  5
AF8
330
A02
100
AcDbEntity
  8
Sketch007
100
AcDbSpline
210
0
220
0
230
1
 70
8
 71
1
 72
4
 73
2
 74
0
 40
0
 40
0
 40
1e-05
 40
1e-05
 10
51.9652
 20
-285.695
 30
0
 10
51.9652
 20
-285.695
 30
0
  0
SPLINE
  5
AF9
330
A02
100
AcDbEntity
  8
Sketch007
100
AcDbSpline
210
0
220
0
230
1
 70
8
 71
3
 72
8
 73
4
 74
0
 40
0
 40
0
 40
0
 40
0
 40
1
 40
1
 40
1
 40
1
 10
53.395
 20
-285.267
 30
0
 10
54.0128
 20
-284.954
 30
0
 10
53.976
 20
-285.142
 30
0
 10
53.976
 20
-282.295
 30
0
  0
SPLINE
  5
AFA
330
A02
100
AcDbEntity
  8
Sketch007
100
AcDbSpline
210
0
220
0
230
1
 70
8
 71
1
 72
4
 73
2
 74
0
 40
0
 40
0
 40
2.5676
 40
2.5676
 10
53.976
 20
-282.295
 30
0
 10
53.976
 20
-279.728
 30
0
  0
SPLINE
  5
AFB
330
A02
100
AcDbEntity
  8
Sketch007
100
AcDbSpline
210
0
220
0
230
1
 70
8
 71
1
 72
4
 73
2
 74
0
 40
0
 40
0
 40
0.211316
 40
0.211316
 10
53.976
 20
-279.728
 30
0
 10
53.7711
 20
-279.676
 30
0
  0
SPLINE
  5
AFC
330
A02
100
AcDbEntity
  8
Sketch007
100
AcDbSpline
210
0
220
0
230
1
 70
8
 71
3
 72
8
 73
4
 74
0
 40
0
 40
0
 40
0
 40
0
 40
1
 40
1
 40
1
 40
1
 10
53.7711
 20
-279.676
 30
0
 10
53.2519
 20
-279.546
 30
0
 10
53.2607
 20
-279.518
 30
0
 10
53.2097
 20
-281.461
 30
0
  0
SPLINE
  5
AFD
330
A02
100
AcDbEntity
  8
Sketch007
100
AcDbSpline
210
0
220
0
230
1
 70
8
 71
3
 72
8
 73
4
 74
0
 40
0
 40
0
 40
0
 40
0
 40
1
 40
1
 40
1
 40
1
 10
53.2097
 20
-281.461
 30
0
 10
53.184
 20
-282.439
 30
0
 10
53.1554
 20
-283.244
 30
0
 10
53.1462
 20
-283.25
 30
0
  0
SPLINE
  5
AFE
330
A02
100
AcDbEntity
  8
Sketch007
100
AcDbSpline
210
0
220
0
230
1
 70
8
 71
3
 72
8
 73
4
 74
0
 40
0
 40
0
 40
0
 40
0
 40
1
 40
1
 40
1
 40
1
 10
53.1462
 20
-283.25
 30
0
 10
53.0365
 20
-283.328
 30
0
 10
52.4088
 20
-283.534
 30
0
 10
52.281
 20
-283.534
 30
0
  0
SPLINE
  5
AFF
330
A02
100
AcDbEntity
  8
Sketch007
100
AcDbSpline
210
0
220
0
230
1
 70
8
 71
3
 72
8
 73
4
 74
0
 40
0
 40
0
 40
0
 40
0
 40
1
 40
1
 40
1
 40
1
 10
52.281
 20
-283.534
 30
0
 10
52.1243
 20
-283.534
 30
0
 10
52.1134
 20
-283.594
 30
0
 10
52.1134
 20
-284.452
 30
0
  0
SPLINE
  5
B00
330
A02
100
AcDbEntity
  8
Sketch007
100
AcDbSpline
210
0
220
0
230
1
 70
8
 71
3
 72
8
 73
4
 74
0
 40
0
 40
0
 40
0
 40
0
 40
1
 40
1
 40
1
 40
1
 10
52.1134
 20
-284.452
 30
0
 10
52.1134
 20
-284.956
 30
0
 10
52.1419
 20
-285.398
 30
0
 10
52.1769
 20
-285.434
 30
0
  0
SPLINE
  5
B01
330
A02
100
AcDbEntity
  8
Sketch007
100
AcDbSpline
210
0
220
0
230
1
 70
8
 71
3
 72
8
 73
4
 74
0
 40
0
 40
0
 40
0
 40
0
 40
1
 40
1
 40
1
 40
1
 10
52.1769
 20
-285.434
 30
0
 10
52.2767
 20
-285.537
 30
0
 10
53.0806
 20
-285.426
 30
0
 10
53.395
 20
-285.267
 30
0
  0
SPLINE
  5
B02
330
A02
100
AcDbEntity
  8
Sketch007
100
AcDbSpline
210
0
220
0
230
1
 70
8
 71
1
 72
4
 73
2
 74
0
 40
0
 40
0
 40
4e-05
 40
4e-05
 10
53.395
 20
-285.267
 30
0
 10
53.395
 20
-285.267
 30
0
  0
SPLINE
  5
B03
330
A02
100
AcDbEntity
  8
Sketch007
100
AcDbSpline
210
0
220
0
230
1
 70
8
 71
1
 72
4
 73
2
 74
0
 40
0
 40
0
 40
0.283825
 40
0.283825
 10
54.7918
 20
-285.645
 30
0
 10
54.5687
 20
-285.469
 30
0
  0
SPLINE
  5
B04
330
A02
100
AcDbEntity
  8
Sketch007
100
AcDbSpline
210
0
220
0
230
1
 70
8
 71
1
 72
4
 73
2
 74
0
 40
0
 40
0
 40
2.30103
 40
2.30103
 10
54.5687
 20
-285.469
 30
0
 10
54.5692
 20
-283.168
 30
0
  0
SPLINE
  5
B05
330
A02
100
AcDbEntity
  8
Sketch007
100
AcDbSpline
210
0
220
0
230
1
 70
8
 71
3
 72
8
 73
4
 74
0
 40
0
 40
0
 40
0
 40
0
 40
1
 40
1
 40
1
 40
1
 10
54.5692
 20
-283.168
 30
0
 10
54.5695
 20
-281.808
 30
0
 10
54.6064
 20
-280.735
 30
0
 10
54.6595
 20
-280.544
 30
0
  0
SPLINE
  5
B06
330
A02
100
AcDbEntity
  8
Sketch007
100
AcDbSpline
210
0
220
0
230
1
 70
8
 71
3
 72
8
 73
4
 74
0
 40
0
 40
0
 40
0
 40
0
 40
1
 40
1
 40
1
 40
1
 10
54.6595
 20
-280.544
 30
0
 10
54.769
 20
-280.15
 30
0
 10
55.2753
 20
-279.57
 30
0
 10
55.6455
 20
-279.415
 30
0
  0
SPLINE
  5
B07
330
A02
100
AcDbEntity
  8
Sketch007
100
AcDbSpline
210
0
220
0
230
1
 70
8
 71
3
 72
8
 73
4
 74
0
 40
0
 40
0
 40
0
 40
0
 40
1
 40
1
 40
1
 40
1
 10
55.6455
 20
-279.415
 30
0
 10
55.7953
 20
-279.352
 30
0
 10
56.1109
 20
-279.301
 30
0
 10
56.3467
 20
-279.301
 30
0
  0
SPLINE
  5
B08
330
A02
100
AcDbEntity
  8
Sketch007
100
AcDbSpline
210
0
220
0
230
1
 70
8
 71
3
 72
8
 73
4
 74
0
 40
0
 40
0
 40
0
 40
0
 40
1
 40
1
 40
1
 40
1
 10
56.3467
 20
-279.301
 30
0
 10
57.1006
 20
-279.301
 30
0
 10
57.695
 20
-279.666
 30
0
 10
58.069
 20
-280.359
 30
0
  0
SPLINE
  5
B09
330
A02
100
AcDbEntity
  8
Sketch007
100
AcDbSpline
210
0
220
0
230
1
 70
8
 71
3
 72
8
 73
4
 74
0
 40
0
 40
0
 40
0
 40
0
 40
1
 40
1
 40
1
 40
1
 10
58.069
 20
-280.359
 30
0
 10
58.2408
 20
-280.678
 30
0
 10
58.2533
 20
-280.832
 30
0
 10
58.2781
 20
-282.936
 30
0
  0
SPLINE
  5
B0A
330
A02
100
AcDbEntity
  8
Sketch007
100
AcDbSpline
210
0
220
0
230
1
 70
8
 71
3
 72
8
 73
4
 74
0
 40
0
 40
0
 40
0
 40
0
 40
1
 40
1
 40
1
 40
1
 10
58.2781
 20
-282.936
 30
0
 10
58.2926
 20
-284.167
 30
0
 10
58.2825
 20
-285.262
 30
0
 10
58.2557
 20
-285.369
 30
0
  0
SPLINE
  5
B0B
330
A02
100
AcDbEntity
  8
Sketch007
100
AcDbSpline
210
0
220
0
230
1
 70
8
 71
3
 72
8
 73
4
 74
0
 40
0
 40
0
 40
0
 40
0
 40
1
 40
1
 40
1
 40
1
 10
58.2557
 20
-285.369
 30
0
 10
58.1878
 20
-285.639
 30
0
 10
57.7527
 20
-285.849
 30
0
 10
57.3972
 20
-285.782
 30
0
  0
SPLINE
  5
B0C
330
A02
100
AcDbEntity
  8
Sketch007
100
AcDbSpline
210
0
220
0
230
1
 70
8
 71
3
 72
8
 73
4
 74
0
 40
0
 40
0
 40
0
 40
0
 40
1
 40
1
 40
1
 40
1
 10
57.3972
 20
-285.782
 30
0
 10
57.0198
 20
-285.711
 30
0
 10
56.855
 20
-285.454
 30
0
 10
56.8534
 20
-284.934
 30
0
  0
SPLINE
  5
B0D
330
A02
100
AcDbEntity
  8
Sketch007
100
AcDbSpline
210
0
220
0
230
1
 70
8
 71
3
 72
8
 73
4
 74
0
 40
0
 40
0
 40
0
 40
0
 40
1
 40
1
 40
1
 40
1
 10
56.8534
 20
-284.934
 30
0
 10
56.8517
 20
-284.383
 30
0
 10
56.7788
 20
-284.277
 30
0
 10
56.4225
 20
-284.311
 30
0
  0
SPLINE
  5
B0E
330
A02
100
AcDbEntity
  8
Sketch007
100
AcDbSpline
210
0
220
0
230
1
 70
8
 71
3
 72
8
 73
4
 74
0
 40
0
 40
0
 40
0
 40
0
 40
1
 40
1
 40
1
 40
1
 10
56.4225
 20
-284.311
 30
0
 10
56.1411
 20
-284.338
 30
0
 10
56.1346
 20
-284.348
 30
0
 10
56.1129
 20
-284.762
 30
0
  0
SPLINE
  5
B0F
330
A02
100
AcDbEntity
  8
Sketch007
100
AcDbSpline
210
0
220
0
230
1
 70
8
 71
3
 72
8
 73
4
 74
0
 40
0
 40
0
 40
0
 40
0
 40
1
 40
1
 40
1
 40
1
 10
56.1129
 20
-284.762
 30
0
 10
56.0789
 20
-285.414
 30
0
 10
56.0256
 20
-285.553
 30
0
 10
55.757
 20
-285.692
 30
0
  0
SPLINE
  5
B10
330
A02
100
AcDbEntity
  8
Sketch007
100
AcDbSpline
210
0
220
0
230
1
 70
8
 71
3
 72
8
 73
4
 74
0
 40
0
 40
0
 40
0
 40
0
 40
1
 40
1
 40
1
 40
1
 10
55.757
 20
-285.692
 30
0
 10
55.4128
 20
-285.87
 30
0
 10
55.0557
 20
-285.853
 30
0
 10
54.7918
 20
-285.645
 30
0
  0
SPLINE
  5
B11
330
A02
100
AcDbEntity
  8
Sketch007
100
AcDbSpline
210
0
220
0
230
1
 70
8
 71
1
 72
4
 73
2
 74
0
 40
0
 40
0
 40
4.01123e-05
 40
4.01123e-05
 10
54.7918
 20
-285.645
 30
0
 10
54.7918
 20
-285.645
 30
0
  0
SPLINE
  5
B12
330
A02
100
AcDbEntity
  8
Sketch007
100
AcDbSpline
210
0
220
0
230
1
 70
8
 71
3
 72
8
 73
4
 74
0
 40
0
 40
0
 40
0
 40
0
 40
1
 40
1
 40
1
 40
1
 10
55.5903
 20
-285.394
 30
0
 10
55.7241
 20
-285.323
 30
0
 10
55.754
 20
-285.214
 30
0
 10
55.754
 20
-284.801
 30
0
  0
SPLINE
  5
B13
330
A02
100
AcDbEntity
  8
Sketch007
100
AcDbSpline
210
0
220
0
230
1
 70
8
 71
3
 72
8
 73
4
 74
0
 40
0
 40
0
 40
0
 40
0
 40
1
 40
1
 40
1
 40
1
 10
55.754
 20
-284.801
 30
0
 10
55.754
 20
-284.162
 30
0
 10
55.924
 20
-283.957
 30
0
 10
56.4525
 20
-283.959
 30
0
  0
SPLINE
  5
B14
330
A02
100
AcDbEntity
  8
Sketch007
100
AcDbSpline
210
0
220
0
230
1
 70
8
 71
3
 72
8
 73
4
 74
0
 40
0
 40
0
 40
0
 40
0
 40
1
 40
1
 40
1
 40
1
 10
56.4525
 20
-283.959
 30
0
 10
56.6504
 20
-283.96
 30
0
 10
56.8543
 20
-283.988
 30
0
 10
56.9055
 20
-284.023
 30
0
  0
SPLINE
  5
B15
330
A02
100
AcDbEntity
  8
Sketch007
100
AcDbSpline
210
0
220
0
230
1
 70
8
 71
3
 72
8
 73
4
 74
0
 40
0
 40
0
 40
0
 40
0
 40
1
 40
1
 40
1
 40
1
 10
56.9055
 20
-284.023
 30
0
 10
57.0856
 20
-284.143
 30
0
 10
57.1934
 20
-284.459
 30
0
 10
57.1934
 20
-284.867
 30
0
  0
SPLINE
  5
B16
330
A02
100
AcDbEntity
  8
Sketch007
100
AcDbSpline
210
0
220
0
230
1
 70
8
 71
3
 72
8
 73
4
 74
0
 40
0
 40
0
 40
0
 40
0
 40
1
 40
1
 40
1
 40
1
 10
57.1934
 20
-284.867
 30
0
 10
57.1934
 20
-285.314
 30
0
 10
57.2975
 20
-285.482
 30
0
 10
57.5744
 20
-285.482
 30
0
  0
SPLINE
  5
B17
330
A02
100
AcDbEntity
  8
Sketch007
100
AcDbSpline
210
0
220
0
230
1
 70
8
 71
3
 72
8
 73
4
 74
0
 40
0
 40
0
 40
0
 40
0
 40
1
 40
1
 40
1
 40
1
 10
57.5744
 20
-285.482
 30
0
 10
57.9402
 20
-285.482
 30
0
 10
57.9554
 20
-285.387
 30
0
 10
57.9554
 20
-283.111
 30
0
  0
SPLINE
  5
B18
330
A02
100
AcDbEntity
  8
Sketch007
100
AcDbSpline
210
0
220
0
230
1
 70
8
 71
3
 72
8
 73
4
 74
0
 40
0
 40
0
 40
0
 40
0
 40
1
 40
1
 40
1
 40
1
 10
57.9554
 20
-283.111
 30
0
 10
57.9554
 20
-280.947
 30
0
 10
57.955
 20
-280.942
 30
0
 10
57.7355
 20
-280.502
 30
0
  0
SPLINE
  5
B19
330
A02
100
AcDbEntity
  8
Sketch007
100
AcDbSpline
210
0
220
0
230
1
 70
8
 71
3
 72
8
 73
4
 74
0
 40
0
 40
0
 40
0
 40
0
 40
1
 40
1
 40
1
 40
1
 10
57.7355
 20
-280.502
 30
0
 10
57.4265
 20
-279.882
 30
0
 10
56.9512
 20
-279.606
 30
0
 10
56.2744
 20
-279.655
 30
0
  0
SPLINE
  5
B1A
330
A02
100
AcDbEntity
  8
Sketch007
100
AcDbSpline
210
0
220
0
230
1
 70
8
 71
3
 72
8
 73
4
 74
0
 40
0
 40
0
 40
0
 40
0
 40
1
 40
1
 40
1
 40
1
 10
56.2744
 20
-279.655
 30
0
 10
55.6745
 20
-279.699
 30
0
 10
55.3288
 20
-279.923
 30
0
 10
55.084
 20
-280.429
 30
0
  0
SPLINE
  5
B1B
330
A02
100
AcDbEntity
  8
Sketch007
100
AcDbSpline
210
0
220
0
230
1
 70
8
 71
3
 72
8
 73
4
 74
0
 40
0
 40
0
 40
0
 40
0
 40
1
 40
1
 40
1
 40
1
 10
55.084
 20
-280.429
 30
0
 10
54.9186
 20
-280.771
 30
0
 10
54.9074
 20
-280.936
 30
0
 10
54.9074
 20
-283.036
 30
0
  0
SPLINE
  5
B1C
330
A02
100
AcDbEntity
  8
Sketch007
100
AcDbSpline
210
0
220
0
230
1
 70
8
 71
3
 72
8
 73
4
 74
0
 40
0
 40
0
 40
0
 40
0
 40
1
 40
1
 40
1
 40
1
 10
54.9074
 20
-283.036
 30
0
 10
54.9074
 20
-284.667
 30
0
 10
54.9351
 20
-285.306
 30
0
 10
55.009
 20
-285.38
 30
0
  0
SPLINE
  5
B1D
330
A02
100
AcDbEntity
  8
Sketch007
100
AcDbSpline
210
0
220
0
230
1
 70
8
 71
3
 72
8
 73
4
 74
0
 40
0
 40
0
 40
0
 40
0
 40
1
 40
1
 40
1
 40
1
 10
55.009
 20
-285.38
 30
0
 10
55.1338
 20
-285.505
 30
0
 10
55.3724
 20
-285.511
 30
0
 10
55.5903
 20
-285.394
 30
0
  0
SPLINE
  5
B1E
330
A02
100
AcDbEntity
  8
Sketch007
100
AcDbSpline
210
0
220
0
230
1
 70
8
 71
1
 72
4
 73
2
 74
0
 40
0
 40
0
 40
5e-05
 40
5e-05
 10
55.5903
 20
-285.394
 30
0
 10
55.5903
 20
-285.394
 30
0
  0
SPLINE
  5
B1F
330
A02
100
AcDbEntity
  8
Sketch007
100
AcDbSpline
210
0
220
0
230
1
 70
8
 71
3
 72
8
 73
4
 74
0
 40
0
 40
0
 40
0
 40
0
 40
1
 40
1
 40
1
 40
1
 10
55.9033
 20
-283.487
 30
0
 10
55.3898
 20
-283.208
 30
0
 10
55.2404
 20
-282.316
 30
0
 10
55.6298
 20
-281.853
 30
0
  0
SPLINE
  5
B20
330
A02
100
AcDbEntity
  8
Sketch007
100
AcDbSpline
210
0
220
0
230
1
 70
8
 71
3
 72
8
 73
4
 74
0
 40
0
 40
0
 40
0
 40
0
 40
1
 40
1
 40
1
 40
1
 10
55.6298
 20
-281.853
 30
0
 10
56.2848
 20
-281.075
 30
0
 10
57.4474
 20
-281.542
 30
0
 10
57.4474
 20
-282.583
 30
0
  0
SPLINE
  5
B21
330
A02
100
AcDbEntity
  8
Sketch007
100
AcDbSpline
210
0
220
0
230
1
 70
8
 71
3
 72
8
 73
4
 74
0
 40
0
 40
0
 40
0
 40
0
 40
1
 40
1
 40
1
 40
1
 10
57.4474
 20
-282.583
 30
0
 10
57.4474
 20
-282.91
 30
0
 10
57.4024
 20
-283.007
 30
0
 10
57.1187
 20
-283.29
 30
0
  0
SPLINE
  5
B22
330
A02
100
AcDbEntity
  8
Sketch007
100
AcDbSpline
210
0
220
0
230
1
 70
8
 71
3
 72
8
 73
4
 74
0
 40
0
 40
0
 40
0
 40
0
 40
1
 40
1
 40
1
 40
1
 10
57.1187
 20
-283.29
 30
0
 10
56.8478
 20
-283.561
 30
0
 10
56.7323
 20
-283.619
 30
0
 10
56.4625
 20
-283.616
 30
0
  0
SPLINE
  5
B23
330
A02
100
AcDbEntity
  8
Sketch007
100
AcDbSpline
210
0
220
0
230
1
 70
8
 71
3
 72
8
 73
4
 74
0
 40
0
 40
0
 40
0
 40
0
 40
1
 40
1
 40
1
 40
1
 10
56.4625
 20
-283.616
 30
0
 10
56.2824
 20
-283.614
 30
0
 10
56.0307
 20
-283.556
 30
0
 10
55.9033
 20
-283.487
 30
0
  0
SPLINE
  5
B24
330
A02
100
AcDbEntity
  8
Sketch007
100
AcDbSpline
210
0
220
0
230
1
 70
8
 71
3
 72
8
 73
4
 74
0
 40
0
 40
0
 40
0
 40
0
 40
1
 40
1
 40
1
 40
1
 10
56.9009
 20
-283.073
 30
0
 10
57.4315
 20
-282.542
 30
0
 10
56.8897
 20
-281.605
 30
0
 10
56.1927
 20
-281.848
 30
0
  0
SPLINE
  5
B25
330
A02
100
AcDbEntity
  8
Sketch007
100
AcDbSpline
210
0
220
0
230
1
 70
8
 71
3
 72
8
 73
4
 74
0
 40
0
 40
0
 40
0
 40
0
 40
1
 40
1
 40
1
 40
1
 10
56.1927
 20
-281.848
 30
0
 10
55.4726
 20
-282.099
 30
0
 10
55.6694
 20
-283.28
 30
0
 10
56.4314
 20
-283.28
 30
0
  0
SPLINE
  5
B26
330
A02
100
AcDbEntity
  8
Sketch007
100
AcDbSpline
210
0
220
0
230
1
 70
8
 71
3
 72
8
 73
4
 74
0
 40
0
 40
0
 40
0
 40
0
 40
1
 40
1
 40
1
 40
1
 10
56.4314
 20
-283.28
 30
0
 10
56.5963
 20
-283.28
 30
0
 10
56.7699
 20
-283.204
 30
0
 10
56.9009
 20
-283.073
 30
0
  0
SPLINE
  5
B27
330
A02
100
AcDbEntity
  8
Sketch007
100
AcDbSpline
210
0
220
0
230
1
 70
8
 71
3
 72
8
 73
4
 74
0
 40
0
 40
0
 40
0
 40
0
 40
1
 40
1
 40
1
 40
1
 10
61.0224
 20
-284.973
 30
0
 10
60.8699
 20
-284.88
 30
0
 10
60.7107
 20
-284.714
 30
0
 10
60.6687
 20
-284.603
 30
0
  0
SPLINE
  5
B28
330
A02
100
AcDbEntity
  8
Sketch007
100
AcDbSpline
210
0
220
0
230
1
 70
8
 71
3
 72
8
 73
4
 74
0
 40
0
 40
0
 40
0
 40
0
 40
1
 40
1
 40
1
 40
1
 10
60.6687
 20
-284.603
 30
0
 10
60.5369
 20
-284.257
 30
0
 10
60.3744
 20
-280.676
 30
0
 10
60.48
 20
-280.444
 30
0
  0
SPLINE
  5
B29
330
A02
100
AcDbEntity
  8
Sketch007
100
AcDbSpline
210
0
220
0
230
1
 70
8
 71
3
 72
8
 73
4
 74
0
 40
0
 40
0
 40
0
 40
0
 40
1
 40
1
 40
1
 40
1
 10
60.48
 20
-280.444
 30
0
 10
60.6749
 20
-280.016
 30
0
 10
60.7968
 20
-279.995
 30
0
 10
63.2187
 20
-279.965
 30
0
  0
SPLINE
  5
B2A
330
A02
100
AcDbEntity
  8
Sketch007
100
AcDbSpline
210
0
220
0
230
1
 70
8
 71
3
 72
8
 73
4
 74
0
 40
0
 40
0
 40
0
 40
0
 40
1
 40
1
 40
1
 40
1
 10
63.2187
 20
-279.965
 30
0
 10
65.4015
 20
-279.937
 30
0
 10
65.4842
 20
-279.942
 30
0
 10
65.7163
 20
-280.114
 30
0
  0
SPLINE
  5
B2B
330
A02
100
AcDbEntity
  8
Sketch007
100
AcDbSpline
210
0
220
0
230
1
 70
8
 71
3
 72
8
 73
4
 74
0
 40
0
 40
0
 40
0
 40
0
 40
1
 40
1
 40
1
 40
1
 10
65.7163
 20
-280.114
 30
0
 10
66.0414
 20
-280.354
 30
0
 10
66.1214
 20
-280.722
 30
0
 10
66.295
 20
-282.772
 30
0
  0
SPLINE
  5
B2C
330
A02
100
AcDbEntity
  8
Sketch007
100
AcDbSpline
210
0
220
0
230
1
 70
8
 71
3
 72
8
 73
4
 74
0
 40
0
 40
0
 40
0
 40
0
 40
1
 40
1
 40
1
 40
1
 10
66.295
 20
-282.772
 30
0
 10
66.4039
 20
-284.058
 30
0
 10
66.4166
 20
-284.537
 30
0
 10
66.3462
 20
-284.692
 30
0
  0
SPLINE
  5
B2D
330
A02
100
AcDbEntity
  8
Sketch007
100
AcDbSpline
210
0
220
0
230
1
 70
8
 71
3
 72
8
 73
4
 74
0
 40
0
 40
0
 40
0
 40
0
 40
1
 40
1
 40
1
 40
1
 10
66.3462
 20
-284.692
 30
0
 10
66.163
 20
-285.094
 30
0
 10
65.8514
 20
-285.143
 30
0
 10
63.4826
 20
-285.143
 30
0
  0
SPLINE
  5
B2E
330
A02
100
AcDbEntity
  8
Sketch007
100
AcDbSpline
210
0
220
0
230
1
 70
8
 71
3
 72
8
 73
4
 74
0
 40
0
 40
0
 40
0
 40
0
 40
1
 40
1
 40
1
 40
1
 10
63.4826
 20
-285.143
 30
0
 10
61.4503
 20
-285.143
 30
0
 10
61.2806
 20
-285.131
 30
0
 10
61.0225
 20
-284.973
 30
0
  0
SPLINE
  5
B2F
330
A02
100
AcDbEntity
  8
Sketch007
100
AcDbSpline
210
0
220
0
230
1
 70
8
 71
1
 72
4
 73
2
 74
0
 40
0
 40
0
 40
3e-05
 40
3e-05
 10
61.0225
 20
-284.973
 30
0
 10
61.0224
 20
-284.973
 30
0
  0
SPLINE
  5
B30
330
A02
100
AcDbEntity
  8
Sketch007
100
AcDbSpline
210
0
220
0
230
1
 70
8
 71
3
 72
8
 73
4
 74
0
 40
0
 40
0
 40
0
 40
0
 40
1
 40
1
 40
1
 40
1
 10
65.9987
 20
-284.72
 30
0
 10
66.2015
 20
-284.517
 30
0
 10
66.2026
 20
-284.462
 30
0
 10
66.0412
 20
-282.544
 30
0
  0
SPLINE
  5
B31
330
A02
100
AcDbEntity
  8
Sketch007
100
AcDbSpline
210
0
220
0
230
1
 70
8
 71
3
 72
8
 73
4
 74
0
 40
0
 40
0
 40
0
 40
0
 40
1
 40
1
 40
1
 40
1
 10
66.0412
 20
-282.544
 30
0
 10
65.8825
 20
-280.659
 30
0
 10
65.8576
 20
-280.515
 30
0
 10
65.6553
 20
-280.312
 30
0
  0
SPLINE
  5
B32
330
A02
100
AcDbEntity
  8
Sketch007
100
AcDbSpline
210
0
220
0
230
1
 70
8
 71
3
 72
8
 73
4
 74
0
 40
0
 40
0
 40
0
 40
0
 40
1
 40
1
 40
1
 40
1
 10
65.6553
 20
-280.312
 30
0
 10
65.5009
 20
-280.158
 30
0
 10
65.3572
 20
-280.148
 30
0
 10
63.3275
 20
-280.148
 30
0
  0
SPLINE
  5
B33
330
A02
100
AcDbEntity
  8
Sketch007
100
AcDbSpline
210
0
220
0
230
1
 70
8
 71
3
 72
8
 73
4
 74
0
 40
0
 40
0
 40
0
 40
0
 40
1
 40
1
 40
1
 40
1
 10
63.3275
 20
-280.148
 30
0
 10
61.0421
 20
-280.148
 30
0
 10
60.739
 20
-280.193
 30
0
 10
60.6456
 20
-280.55
 30
0
  0
SPLINE
  5
B34
330
A02
100
AcDbEntity
  8
Sketch007
100
AcDbSpline
210
0
220
0
230
1
 70
8
 71
3
 72
8
 73
4
 74
0
 40
0
 40
0
 40
0
 40
0
 40
1
 40
1
 40
1
 40
1
 10
60.6456
 20
-280.55
 30
0
 10
60.6233
 20
-280.636
 30
0
 10
60.6568
 20
-281.559
 30
0
 10
60.7201
 20
-282.602
 30
0
  0
SPLINE
  5
B35
330
A02
100
AcDbEntity
  8
Sketch007
100
AcDbSpline
210
0
220
0
230
1
 70
8
 71
3
 72
8
 73
4
 74
0
 40
0
 40
0
 40
0
 40
0
 40
1
 40
1
 40
1
 40
1
 10
60.7201
 20
-282.602
 30
0
 10
60.8259
 20
-284.345
 30
0
 10
60.8501
 20
-284.514
 30
0
 10
61.0187
 20
-284.694
 30
0
  0
SPLINE
  5
B36
330
A02
100
AcDbEntity
  8
Sketch007
100
AcDbSpline
210
0
220
0
230
1
 70
8
 71
3
 72
8
 73
4
 74
0
 40
0
 40
0
 40
0
 40
0
 40
1
 40
1
 40
1
 40
1
 10
61.0187
 20
-284.694
 30
0
 10
61.2017
 20
-284.889
 30
0
 10
61.209
 20
-284.889
 30
0
 10
63.5158
 20
-284.889
 30
0
  0
SPLINE
  5
B37
330
A02
100
AcDbEntity
  8
Sketch007
100
AcDbSpline
210
0
220
0
230
1
 70
8
 71
3
 72
8
 73
4
 74
0
 40
0
 40
0
 40
0
 40
0
 40
1
 40
1
 40
1
 40
1
 10
63.5158
 20
-284.889
 30
0
 10
65.7165
 20
-284.889
 30
0
 10
65.8377
 20
-284.881
 30
0
 10
65.9987
 20
-284.72
 30
0
  0
SPLINE
  5
B38
330
A02
100
AcDbEntity
  8
Sketch007
100
AcDbSpline
210
0
220
0
230
1
 70
8
 71
1
 72
4
 73
2
 74
0
 40
0
 40
0
 40
3e-05
 40
3e-05
 10
65.9987
 20
-284.72
 30
0
 10
65.9987
 20
-284.72
 30
0
  0
SPLINE
  5
B39
330
A02
100
AcDbEntity
  8
Sketch007
100
AcDbSpline
210
0
220
0
230
1
 70
8
 71
3
 72
8
 73
4
 74
0
 40
0
 40
0
 40
0
 40
0
 40
1
 40
1
 40
1
 40
1
 10
63.3453
 20
-283.816
 30
0
 10
63.3297
 20
-283.8
 30
0
 10
62.8712
 20
-283.774
 30
0
 10
62.3266
 20
-283.757
 30
0
  0
SPLINE
  5
B3A
330
A02
100
AcDbEntity
  8
Sketch007
100
AcDbSpline
210
0
220
0
230
1
 70
8
 71
3
 72
8
 73
4
 74
0
 40
0
 40
0
 40
0
 40
0
 40
1
 40
1
 40
1
 40
1
 10
62.3266
 20
-283.757
 30
0
 10
61.7819
 20
-283.74
 30
0
 10
61.3124
 20
-283.702
 30
0
 10
61.2832
 20
-283.673
 30
0
  0
SPLINE
  5
B3B
330
A02
100
AcDbEntity
  8
Sketch007
100
AcDbSpline
210
0
220
0
230
1
 70
8
 71
3
 72
8
 73
4
 74
0
 40
0
 40
0
 40
0
 40
0
 40
1
 40
1
 40
1
 40
1
 10
61.2832
 20
-283.673
 30
0
 10
61.2331
 20
-283.623
 30
0
 10
61.6005
 20
-282.865
 30
0
 10
61.7958
 20
-282.615
 30
0
  0
SPLINE
  5
B3C
330
A02
100
AcDbEntity
  8
Sketch007
100
AcDbSpline
210
0
220
0
230
1
 70
8
 71
3
 72
8
 73
4
 74
0
 40
0
 40
0
 40
0
 40
0
 40
1
 40
1
 40
1
 40
1
 10
61.7958
 20
-282.615
 30
0
 10
61.9298
 20
-282.444
 30
0
 10
62.8093
 20
-282.528
 30
0
 10
63.0919
 20
-282.739
 30
0
  0
SPLINE
  5
B3D
330
A02
100
AcDbEntity
  8
Sketch007
100
AcDbSpline
210
0
220
0
230
1
 70
8
 71
1
 72
4
 73
2
 74
0
 40
0
 40
0
 40
0.27899
 40
0.27899
 10
63.0919
 20
-282.739
 30
0
 10
63.3154
 20
-282.906
 30
0
  0
SPLINE
  5
B3E
330
A02
100
AcDbEntity
  8
Sketch007
100
AcDbSpline
210
0
220
0
230
1
 70
8
 71
1
 72
4
 73
2
 74
0
 40
0
 40
0
 40
0.43625
 40
0.43625
 10
63.3154
 20
-282.906
 30
0
 10
63.7046
 20
-282.708
 30
0
  0
SPLINE
  5
B3F
330
A02
100
AcDbEntity
  8
Sketch007
100
AcDbSpline
210
0
220
0
230
1
 70
8
 71
3
 72
8
 73
4
 74
0
 40
0
 40
0
 40
0
 40
0
 40
1
 40
1
 40
1
 40
1
 10
63.7046
 20
-282.708
 30
0
 10
63.9779
 20
-282.57
 30
0
 10
64.2058
 20
-282.519
 30
0
 10
64.4705
 20
-282.536
 30
0
  0
SPLINE
  5
B40
330
A02
100
AcDbEntity
  8
Sketch007
100
AcDbSpline
210
0
220
0
230
1
 70
8
 71
3
 72
8
 73
4
 74
0
 40
0
 40
0
 40
0
 40
0
 40
1
 40
1
 40
1
 40
1
 10
64.4705
 20
-282.536
 30
0
 10
64.816
 20
-282.559
 30
0
 10
64.8772
 20
-282.599
 30
0
 10
65.2079
 20
-283.026
 30
0
  0
SPLINE
  5
B41
330
A02
100
AcDbEntity
  8
Sketch007
100
AcDbSpline
210
0
220
0
230
1
 70
8
 71
3
 72
8
 73
4
 74
0
 40
0
 40
0
 40
0
 40
0
 40
1
 40
1
 40
1
 40
1
 10
65.2079
 20
-283.026
 30
0
 10
65.4062
 20
-283.283
 30
0
 10
65.57
 20
-283.536
 30
0
 10
65.5719
 20
-283.591
 30
0
  0
SPLINE
  5
B42
330
A02
100
AcDbEntity
  8
Sketch007
100
AcDbSpline
210
0
220
0
230
1
 70
8
 71
3
 72
8
 73
4
 74
0
 40
0
 40
0
 40
0
 40
0
 40
1
 40
1
 40
1
 40
1
 10
65.5719
 20
-283.591
 30
0
 10
65.5749
 20
-283.684
 30
0
 10
65.2332
 20
-283.729
 30
0
 10
63.8608
 20
-283.814
 30
0
  0
SPLINE
  5
B43
330
A02
100
AcDbEntity
  8
Sketch007
100
AcDbSpline
210
0
220
0
230
1
 70
8
 71
3
 72
8
 73
4
 74
0
 40
0
 40
0
 40
0
 40
0
 40
1
 40
1
 40
1
 40
1
 10
63.8608
 20
-283.814
 30
0
 10
63.593
 20
-283.831
 30
0
 10
63.361
 20
-283.832
 30
0
 10
63.3453
 20
-283.816
 30
0
  0
SPLINE
  5
B44
330
A02
100
AcDbEntity
  8
Sketch007
100
AcDbSpline
210
0
220
0
230
1
 70
8
 71
1
 72
4
 73
2
 74
0
 40
0
 40
0
 40
0.00021
 40
0.00021
 10
63.3453
 20
-283.816
 30
0
 10
63.3453
 20
-283.816
 30
0
  0
SPLINE
  5
B45
330
A02
100
AcDbEntity
  8
Sketch007
100
AcDbSpline
210
0
220
0
230
1
 70
8
 71
3
 72
8
 73
4
 74
0
 40
0
 40
0
 40
0
 40
0
 40
1
 40
1
 40
1
 40
1
 10
65.2219
 20
-283.492
 30
0
 10
65.237
 20
-283.477
 30
0
 10
65.1462
 20
-283.309
 30
0
 10
65.0201
 20
-283.119
 30
0
  0
SPLINE
  5
B46
330
A02
100
AcDbEntity
  8
Sketch007
100
AcDbSpline
210
0
220
0
230
1
 70
8
 71
3
 72
8
 73
4
 74
0
 40
0
 40
0
 40
0
 40
0
 40
1
 40
1
 40
1
 40
1
 10
65.0201
 20
-283.119
 30
0
 10
64.8055
 20
-282.795
 30
0
 10
64.7653
 20
-282.772
 30
0
 10
64.3906
 20
-282.772
 30
0
  0
SPLINE
  5
B47
330
A02
100
AcDbEntity
  8
Sketch007
100
AcDbSpline
210
0
220
0
230
1
 70
8
 71
3
 72
8
 73
4
 74
0
 40
0
 40
0
 40
0
 40
0
 40
1
 40
1
 40
1
 40
1
 10
64.3906
 20
-282.772
 30
0
 10
64.1046
 20
-282.772
 30
0
 10
63.9024
 20
-282.832
 30
0
 10
63.6822
 20
-282.982
 30
0
  0
SPLINE
  5
B48
330
A02
100
AcDbEntity
  8
Sketch007
100
AcDbSpline
210
0
220
0
230
1
 70
8
 71
1
 72
4
 73
2
 74
0
 40
0
 40
0
 40
0.372404
 40
0.372404
 10
63.6822
 20
-282.982
 30
0
 10
63.374
 20
-283.191
 30
0
  0
SPLINE
  5
B49
330
A02
100
AcDbEntity
  8
Sketch007
100
AcDbSpline
210
0
220
0
230
1
 70
8
 71
1
 72
4
 73
2
 74
0
 40
0
 40
0
 40
0.379203
 40
0.379203
 10
63.374
 20
-283.191
 30
0
 10
63.0603
 20
-282.978
 30
0
  0
SPLINE
  5
B4A
330
A02
100
AcDbEntity
  8
Sketch007
100
AcDbSpline
210
0
220
0
230
1
 70
8
 71
3
 72
8
 73
4
 74
0
 40
0
 40
0
 40
0
 40
0
 40
1
 40
1
 40
1
 40
1
 10
63.0603
 20
-282.978
 30
0
 10
62.8088
 20
-282.807
 30
0
 10
62.6621
 20
-282.77
 30
0
 10
62.3217
 20
-282.79
 30
0
  0
SPLINE
  5
B4B
330
A02
100
AcDbEntity
  8
Sketch007
100
AcDbSpline
210
0
220
0
230
1
 70
8
 71
3
 72
8
 73
4
 74
0
 40
0
 40
0
 40
0
 40
0
 40
1
 40
1
 40
1
 40
1
 10
62.3217
 20
-282.79
 30
0
 10
61.9238
 20
-282.813
 30
0
 10
61.8848
 20
-282.836
 30
0
 10
61.707
 20
-283.153
 30
0
  0
SPLINE
  5
B4C
330
A02
100
AcDbEntity
  8
Sketch007
100
AcDbSpline
210
0
220
0
230
1
 70
8
 71
1
 72
4
 73
2
 74
0
 40
0
 40
0
 40
0.388231
 40
0.388231
 10
61.707
 20
-283.153
 30
0
 10
61.5172
 20
-283.492
 30
0
  0
SPLINE
  5
B4D
330
A02
100
AcDbEntity
  8
Sketch007
100
AcDbSpline
210
0
220
0
230
1
 70
8
 71
1
 72
4
 73
2
 74
0
 40
0
 40
0
 40
0.950519
 40
0.950519
 10
61.5172
 20
-283.492
 30
0
 10
62.4668
 20
-283.534
 30
0
  0
SPLINE
  5
B4E
330
A02
100
AcDbEntity
  8
Sketch007
100
AcDbSpline
210
0
220
0
230
1
 70
8
 71
3
 72
8
 73
4
 74
0
 40
0
 40
0
 40
0
 40
0
 40
1
 40
1
 40
1
 40
1
 10
62.4668
 20
-283.534
 30
0
 10
63.3777
 20
-283.575
 30
0
 10
65.1646
 20
-283.548
 30
0
 10
65.2219
 20
-283.492
 30
0
  0
SPLINE
  5
B4F
330
A02
100
AcDbEntity
  8
Sketch007
100
AcDbSpline
210
0
220
0
230
1
 70
8
 71
1
 72
4
 73
2
 74
0
 40
0
 40
0
 40
7e-05
 40
7e-05
 10
65.2219
 20
-283.492
 30
0
 10
65.2219
 20
-283.492
 30
0
  0
SPLINE
  5
B50
330
A02
100
AcDbEntity
  8
Sketch007
100
AcDbSpline
210
0
220
0
230
1
 70
8
 71
3
 72
8
 73
4
 74
0
 40
0
 40
0
 40
0
 40
0
 40
1
 40
1
 40
1
 40
1
 10
62.6021
 20
-282.105
 30
0
 10
62.1842
 20
-281.687
 30
0
 10
62.1596
 20
-281.349
 30
0
 10
62.5209
 20
-280.988
 30
0
  0
SPLINE
  5
B51
330
A02
100
AcDbEntity
  8
Sketch007
100
AcDbSpline
210
0
220
0
230
1
 70
8
 71
3
 72
8
 73
4
 74
0
 40
0
 40
0
 40
0
 40
0
 40
1
 40
1
 40
1
 40
1
 10
62.5209
 20
-280.988
 30
0
 10
63.0115
 20
-280.497
 30
0
 10
63.921
 20
-280.724
 30
0
 10
64.1413
 20
-281.391
 30
0
  0
SPLINE
  5
B52
330
A02
100
AcDbEntity
  8
Sketch007
100
AcDbSpline
210
0
220
0
230
1
 70
8
 71
3
 72
8
 73
4
 74
0
 40
0
 40
0
 40
0
 40
0
 40
1
 40
1
 40
1
 40
1
 10
64.1413
 20
-281.391
 30
0
 10
64.3279
 20
-281.957
 30
0
 10
63.9124
 20
-282.434
 30
0
 10
63.2331
 20
-282.434
 30
0
  0
SPLINE
  5
B53
330
A02
100
AcDbEntity
  8
Sketch007
100
AcDbSpline
210
0
220
0
230
1
 70
8
 71
3
 72
8
 73
4
 74
0
 40
0
 40
0
 40
0
 40
0
 40
1
 40
1
 40
1
 40
1
 10
63.2331
 20
-282.434
 30
0
 10
62.9948
 20
-282.434
 30
0
 10
62.8612
 20
-282.364
 30
0
 10
62.6021
 20
-282.105
 30
0
  0
SPLINE
  5
B54
330
A02
100
AcDbEntity
  8
Sketch007
100
AcDbSpline
210
0
220
0
230
1
 70
8
 71
1
 72
4
 73
2
 74
0
 40
0
 40
0
 40
2e-06
 40
2e-06
 10
62.6021
 20
-282.105
 30
0
 10
62.6021
 20
-282.105
 30
0
  0
SPLINE
  5
B55
330
A02
100
AcDbEntity
  8
Sketch007
100
AcDbSpline
210
0
220
0
230
1
 70
8
 71
3
 72
8
 73
4
 74
0
 40
0
 40
0
 40
0
 40
0
 40
1
 40
1
 40
1
 40
1
 10
63.7974
 20
-282.01
 30
0
 10
64.0426
 20
-281.765
 30
0
 10
64.0101
 20
-281.448
 30
0
 10
63.7088
 20
-281.147
 30
0
  0
SPLINE
  5
B56
330
A02
100
AcDbEntity
  8
Sketch007
100
AcDbSpline
210
0
220
0
230
1
 70
8
 71
3
 72
8
 73
4
 74
0
 40
0
 40
0
 40
0
 40
0
 40
1
 40
1
 40
1
 40
1
 10
63.7088
 20
-281.147
 30
0
 10
63.4882
 20
-280.926
 30
0
 10
63.4069
 20
-280.896
 30
0
 10
63.1479
 20
-280.938
 30
0
  0
SPLINE
  5
B57
330
A02
100
AcDbEntity
  8
Sketch007
100
AcDbSpline
210
0
220
0
230
1
 70
8
 71
3
 72
8
 73
4
 74
0
 40
0
 40
0
 40
0
 40
0
 40
1
 40
1
 40
1
 40
1
 10
63.1479
 20
-280.938
 30
0
 10
62.5346
 20
-281.038
 30
0
 10
62.3252
 20
-281.562
 30
0
 10
62.7352
 20
-281.972
 30
0
  0
SPLINE
  5
B58
330
A02
100
AcDbEntity
  8
Sketch007
100
AcDbSpline
210
0
220
0
230
1
 70
8
 71
3
 72
8
 73
4
 74
0
 40
0
 40
0
 40
0
 40
0
 40
1
 40
1
 40
1
 40
1
 10
62.7352
 20
-281.972
 30
0
 10
63.0036
 20
-282.24
 30
0
 10
63.5477
 20
-282.26
 30
0
 10
63.7974
 20
-282.01
 30
0
  0
SPLINE
  5
B59
330
A02
100
AcDbEntity
  8
Sketch007
100
AcDbSpline
210
0
220
0
230
1
 70
8
 71
1
 72
4
 73
2
 74
0
 40
0
 40
0
 40
1.41421e-05
 40
1.41421e-05
 10
63.7974
 20
-282.01
 30
0
 10
63.7974
 20
-282.01
 30
0
  0
SPLINE
  5
B5A
330
A02
100
AcDbEntity
  8
Sketch007
100
AcDbSpline
210
0
220
0
230
1
 70
8
 71
3
 72
8
 73
4
 74
0
 40
0
 40
0
 40
0
 40
0
 40
1
 40
1
 40
1
 40
1
 10
20.6483
 20
-284.196
 30
0
 10
20.2122
 20
-283.769
 30
0
 10
19.8554
 20
-283.349
 30
0
 10
19.8554
 20
-283.265
 30
0
  0
SPLINE
  5
B5B
330
A02
100
AcDbEntity
  8
Sketch007
100
AcDbSpline
210
0
220
0
230
1
 70
8
 71
3
 72
8
 73
4
 74
0
 40
0
 40
0
 40
0
 40
0
 40
1
 40
1
 40
1
 40
1
 10
19.8554
 20
-283.265
 30
0
 10
19.8554
 20
-283.123
 30
0
 10
19.9546
 20
-283.111
 30
0
 10
21.1215
 20
-283.111
 30
0
  0
SPLINE
  5
B5C
330
A02
100
AcDbEntity
  8
Sketch007
100
AcDbSpline
210
0
220
0
230
1
 70
8
 71
1
 72
4
 73
2
 74
0
 40
0
 40
0
 40
1.26613
 40
1.26613
 10
21.1215
 20
-283.111
 30
0
 10
22.3876
 20
-283.111
 30
0
  0
SPLINE
  5
B5D
330
A02
100
AcDbEntity
  8
Sketch007
100
AcDbSpline
210
0
220
0
230
1
 70
8
 71
1
 72
4
 73
2
 74
0
 40
0
 40
0
 40
0.543946
 40
0.543946
 10
22.3876
 20
-283.111
 30
0
 10
22.4127
 20
-283.655
 30
0
  0
SPLINE
  5
B5E
330
A02
100
AcDbEntity
  8
Sketch007
100
AcDbSpline
210
0
220
0
230
1
 70
8
 71
1
 72
4
 73
2
 74
0
 40
0
 40
0
 40
0.543957
 40
0.543957
 10
22.4127
 20
-283.655
 30
0
 10
22.4377
 20
-284.198
 30
0
  0
SPLINE
  5
B5F
330
A02
100
AcDbEntity
  8
Sketch007
100
AcDbSpline
210
0
220
0
230
1
 70
8
 71
1
 72
4
 73
2
 74
0
 40
0
 40
0
 40
0.948117
 40
0.948117
 10
22.4377
 20
-284.198
 30
0
 10
23.1384
 20
-283.559
 30
0
  0
SPLINE
  5
B60
330
A02
100
AcDbEntity
  8
Sketch007
100
AcDbSpline
210
0
220
0
230
1
 70
8
 71
1
 72
4
 73
2
 74
0
 40
0
 40
0
 40
0.948111
 40
0.948111
 10
23.1384
 20
-283.559
 30
0
 10
23.8391
 20
-282.921
 30
0
  0
SPLINE
  5
B61
330
A02
100
AcDbEntity
  8
Sketch007
100
AcDbSpline
210
0
220
0
230
1
 70
8
 71
1
 72
4
 73
2
 74
0
 40
0
 40
0
 40
0.593765
 40
0.593765
 10
23.8391
 20
-282.921
 30
0
 10
23.4338
 20
-282.487
 30
0
  0
SPLINE
  5
B62
330
A02
100
AcDbEntity
  8
Sketch007
100
AcDbSpline
210
0
220
0
230
1
 70
8
 71
3
 72
8
 73
4
 74
0
 40
0
 40
0
 40
0
 40
0
 40
1
 40
1
 40
1
 40
1
 10
23.4338
 20
-282.487
 30
0
 10
23.2108
 20
-282.248
 30
0
 10
22.8867
 20
-281.881
 30
0
 10
22.7135
 20
-281.672
 30
0
  0
SPLINE
  5
B63
330
A02
100
AcDbEntity
  8
Sketch007
100
AcDbSpline
210
0
220
0
230
1
 70
8
 71
1
 72
4
 73
2
 74
0
 40
0
 40
0
 40
0.494264
 40
0.494264
 10
22.7135
 20
-281.672
 30
0
 10
22.3987
 20
-281.291
 30
0
  0
SPLINE
  5
B64
330
A02
100
AcDbEntity
  8
Sketch007
100
AcDbSpline
210
0
220
0
230
1
 70
8
 71
1
 72
4
 73
2
 74
0
 40
0
 40
0
 40
0.698502
 40
0.698502
 10
22.3987
 20
-281.291
 30
0
 10
22.397
 20
-281.989
 30
0
  0
SPLINE
  5
B65
330
A02
100
AcDbEntity
  8
Sketch007
100
AcDbSpline
210
0
220
0
230
1
 70
8
 71
1
 72
4
 73
2
 74
0
 40
0
 40
0
 40
0.698502
 40
0.698502
 10
22.397
 20
-281.989
 30
0
 10
22.3953
 20
-282.688
 30
0
  0
SPLINE
  5
B66
330
A02
100
AcDbEntity
  8
Sketch007
100
AcDbSpline
210
0
220
0
230
1
 70
8
 71
1
 72
4
 73
2
 74
0
 40
0
 40
0
 40
1.27266
 40
1.27266
 10
22.3953
 20
-282.688
 30
0
 10
21.1226
 20
-282.688
 30
0
  0
SPLINE
  5
B67
330
A02
100
AcDbEntity
  8
Sketch007
100
AcDbSpline
210
0
220
0
230
1
 70
8
 71
3
 72
8
 73
4
 74
0
 40
0
 40
0
 40
0
 40
0
 40
1
 40
1
 40
1
 40
1
 10
21.1226
 20
-282.688
 30
0
 10
20.0377
 20
-282.688
 30
0
 10
19.8424
 20
-282.668
 30
0
 10
19.7983
 20
-282.553
 30
0
  0
SPLINE
  5
B68
330
A02
100
AcDbEntity
  8
Sketch007
100
AcDbSpline
210
0
220
0
230
1
 70
8
 71
3
 72
8
 73
4
 74
0
 40
0
 40
0
 40
0
 40
0
 40
1
 40
1
 40
1
 40
1
 10
19.7983
 20
-282.553
 30
0
 10
19.7251
 20
-282.363
 30
0
 10
21.2619
 20
-280.825
 30
0
 10
21.5258
 20
-280.825
 30
0
  0
SPLINE
  5
B69
330
A02
100
AcDbEntity
  8
Sketch007
100
AcDbSpline
210
0
220
0
230
1
 70
8
 71
3
 72
8
 73
4
 74
0
 40
0
 40
0
 40
0
 40
0
 40
1
 40
1
 40
1
 40
1
 10
21.5258
 20
-280.825
 30
0
 10
21.8416
 20
-280.825
 30
0
 10
21.7497
 20
-281.01
 30
0
 10
21.1253
 20
-281.629
 30
0
  0
SPLINE
  5
B6A
330
A02
100
AcDbEntity
  8
Sketch007
100
AcDbSpline
210
0
220
0
230
1
 70
8
 71
3
 72
8
 73
4
 74
0
 40
0
 40
0
 40
0
 40
0
 40
1
 40
1
 40
1
 40
1
 10
21.1253
 20
-281.629
 30
0
 10
20.7993
 20
-281.953
 30
0
 10
20.5326
 20
-282.247
 30
0
 10
20.5326
 20
-282.283
 30
0
  0
SPLINE
  5
B6B
330
A02
100
AcDbEntity
  8
Sketch007
100
AcDbSpline
210
0
220
0
230
1
 70
8
 71
3
 72
8
 73
4
 74
0
 40
0
 40
0
 40
0
 40
0
 40
1
 40
1
 40
1
 40
1
 10
20.5326
 20
-282.283
 30
0
 10
20.5326
 20
-282.32
 30
0
 10
20.8755
 20
-282.349
 30
0
 10
21.2946
 20
-282.349
 30
0
  0
SPLINE
  5
B6C
330
A02
100
AcDbEntity
  8
Sketch007
100
AcDbSpline
210
0
220
0
230
1
 70
8
 71
1
 72
4
 73
2
 74
0
 40
0
 40
0
 40
0.762
 40
0.762
 10
21.2946
 20
-282.349
 30
0
 10
22.0566
 20
-282.349
 30
0
  0
SPLINE
  5
B6D
330
A02
100
AcDbEntity
  8
Sketch007
100
AcDbSpline
210
0
220
0
230
1
 70
8
 71
1
 72
4
 73
2
 74
0
 40
0
 40
0
 40
0.762
 40
0.762
 10
22.0566
 20
-282.349
 30
0
 10
22.0566
 20
-281.587
 30
0
  0
SPLINE
  5
B6E
330
A02
100
AcDbEntity
  8
Sketch007
100
AcDbSpline
210
0
220
0
230
1
 70
8
 71
3
 72
8
 73
4
 74
0
 40
0
 40
0
 40
0
 40
0
 40
1
 40
1
 40
1
 40
1
 10
22.0566
 20
-281.587
 30
0
 10
22.0566
 20
-280.838
 30
0
 10
22.0601
 20
-280.825
 30
0
 10
22.261
 20
-280.825
 30
0
  0
SPLINE
  5
B6F
330
A02
100
AcDbEntity
  8
Sketch007
100
AcDbSpline
210
0
220
0
230
1
 70
8
 71
3
 72
8
 73
4
 74
0
 40
0
 40
0
 40
0
 40
0
 40
1
 40
1
 40
1
 40
1
 10
22.261
 20
-280.825
 30
0
 10
22.4125
 20
-280.825
 30
0
 10
22.7027
 20
-281.079
 30
0
 10
23.3828
 20
-281.806
 30
0
  0
SPLINE
  5
B70
330
A02
100
AcDbEntity
  8
Sketch007
100
AcDbSpline
210
0
220
0
230
1
 70
8
 71
3
 72
8
 73
4
 74
0
 40
0
 40
0
 40
0
 40
0
 40
1
 40
1
 40
1
 40
1
 10
23.3828
 20
-281.806
 30
0
 10
23.8874
 20
-282.346
 30
0
 10
24.3116
 20
-282.836
 30
0
 10
24.3255
 20
-282.896
 30
0
  0
SPLINE
  5
B71
330
A02
100
AcDbEntity
  8
Sketch007
100
AcDbSpline
210
0
220
0
230
1
 70
8
 71
3
 72
8
 73
4
 74
0
 40
0
 40
0
 40
0
 40
0
 40
1
 40
1
 40
1
 40
1
 10
24.3255
 20
-282.896
 30
0
 10
24.3575
 20
-283.033
 30
0
 10
22.436
 20
-284.838
 30
0
 10
22.2186
 20
-284.874
 30
0
  0
SPLINE
  5
B72
330
A02
100
AcDbEntity
  8
Sketch007
100
AcDbSpline
210
0
220
0
230
1
 70
8
 71
3
 72
8
 73
4
 74
0
 40
0
 40
0
 40
0
 40
0
 40
1
 40
1
 40
1
 40
1
 10
22.2186
 20
-284.874
 30
0
 10
22.0696
 20
-284.899
 30
0
 10
22.0566
 20
-284.843
 30
0
 10
22.0566
 20
-284.175
 30
0
  0
SPLINE
  5
B73
330
A02
100
AcDbEntity
  8
Sketch007
100
AcDbSpline
210
0
220
0
230
1
 70
8
 71
1
 72
4
 73
2
 74
0
 40
0
 40
0
 40
0.72556
 40
0.72556
 10
22.0566
 20
-284.175
 30
0
 10
22.0566
 20
-283.45
 30
0
  0
SPLINE
  5
B74
330
A02
100
AcDbEntity
  8
Sketch007
100
AcDbSpline
210
0
220
0
230
1
 70
8
 71
1
 72
4
 73
2
 74
0
 40
0
 40
0
 40
0.781048
 40
0.781048
 10
22.0566
 20
-283.45
 30
0
 10
21.2756
 20
-283.45
 30
0
  0
SPLINE
  5
B75
330
A02
100
AcDbEntity
  8
Sketch007
100
AcDbSpline
210
0
220
0
230
1
 70
8
 71
1
 72
4
 73
2
 74
0
 40
0
 40
0
 40
0.781047
 40
0.781047
 10
21.2756
 20
-283.45
 30
0
 10
20.4945
 20
-283.45
 30
0
  0
SPLINE
  5
B76
330
A02
100
AcDbEntity
  8
Sketch007
100
AcDbSpline
210
0
220
0
230
1
 70
8
 71
1
 72
4
 73
2
 74
0
 40
0
 40
0
 40
0.86801
 40
0.86801
 10
20.4945
 20
-283.45
 30
0
 10
21.1062
 20
-284.066
 30
0
  0
SPLINE
  5
B77
330
A02
100
AcDbEntity
  8
Sketch007
100
AcDbSpline
210
0
220
0
230
1
 70
8
 71
3
 72
8
 73
4
 74
0
 40
0
 40
0
 40
0
 40
0
 40
1
 40
1
 40
1
 40
1
 10
21.1062
 20
-284.066
 30
0
 10
21.7009
 20
-284.664
 30
0
 10
21.8622
 20
-284.974
 30
0
 10
21.5795
 20
-284.974
 30
0
  0
SPLINE
  5
B78
330
A02
100
AcDbEntity
  8
Sketch007
100
AcDbSpline
210
0
220
0
230
1
 70
8
 71
3
 72
8
 73
4
 74
0
 40
0
 40
0
 40
0
 40
0
 40
1
 40
1
 40
1
 40
1
 10
21.5795
 20
-284.974
 30
0
 10
21.5034
 20
-284.974
 30
0
 10
21.0843
 20
-284.624
 30
0
 10
20.6482
 20
-284.196
 30
0
  0
SPLINE
  5
B79
330
A02
100
AcDbEntity
  8
Sketch007
100
AcDbSpline
210
0
220
0
230
1
 70
8
 71
1
 72
4
 73
2
 74
0
 40
0
 40
0
 40
9.10824e-05
 40
9.10824e-05
 10
20.6482
 20
-284.196
 30
0
 10
20.6483
 20
-284.196
 30
0
  0
SPLINE
  5
B7A
330
A02
100
AcDbEntity
  8
Sketch007
100
AcDbSpline
210
0
220
0
230
1
 70
8
 71
1
 72
4
 73
2
 74
0
 40
0
 40
0
 40
1.905
 40
1.905
 10
12.7434
 20
-282.73
 30
0
 10
12.7434
 20
-280.825
 30
0
  0
SPLINE
  5
B7B
330
A02
100
AcDbEntity
  8
Sketch007
100
AcDbSpline
210
0
220
0
230
1
 70
8
 71
1
 72
4
 73
2
 74
0
 40
0
 40
0
 40
1.905
 40
1.905
 10
12.7434
 20
-280.825
 30
0
 10
14.6484
 20
-280.825
 30
0
  0
SPLINE
  5
B7C
330
A02
100
AcDbEntity
  8
Sketch007
100
AcDbSpline
210
0
220
0
230
1
 70
8
 71
1
 72
4
 73
2
 74
0
 40
0
 40
0
 40
1.905
 40
1.905
 10
14.6484
 20
-280.825
 30
0
 10
16.5534
 20
-280.825
 30
0
  0
SPLINE
  5
B7D
330
A02
100
AcDbEntity
  8
Sketch007
100
AcDbSpline
210
0
220
0
230
1
 70
8
 71
1
 72
4
 73
2
 74
0
 40
0
 40
0
 40
1.905
 40
1.905
 10
16.5534
 20
-280.825
 30
0
 10
16.5534
 20
-282.73
 30
0
  0
SPLINE
  5
B7E
330
A02
100
AcDbEntity
  8
Sketch007
100
AcDbSpline
210
0
220
0
230
1
 70
8
 71
1
 72
4
 73
2
 74
0
 40
0
 40
0
 40
1.905
 40
1.905
 10
16.5534
 20
-282.73
 30
0
 10
16.5534
 20
-284.635
 30
0
  0
SPLINE
  5
B7F
330
A02
100
AcDbEntity
  8
Sketch007
100
AcDbSpline
210
0
220
0
230
1
 70
8
 71
1
 72
4
 73
2
 74
0
 40
0
 40
0
 40
1.905
 40
1.905
 10
16.5534
 20
-284.635
 30
0
 10
14.6484
 20
-284.635
 30
0
  0
SPLINE
  5
B80
330
A02
100
AcDbEntity
  8
Sketch007
100
AcDbSpline
210
0
220
0
230
1
 70
8
 71
1
 72
4
 73
2
 74
0
 40
0
 40
0
 40
1.905
 40
1.905
 10
14.6484
 20
-284.635
 30
0
 10
12.7434
 20
-284.635
 30
0
  0
SPLINE
  5
B81
330
A02
100
AcDbEntity
  8
Sketch007
100
AcDbSpline
210
0
220
0
230
1
 70
8
 71
1
 72
4
 73
2
 74
0
 40
0
 40
0
 40
1.905
 40
1.905
 10
12.7434
 20
-284.635
 30
0
 10
12.7434
 20
-282.73
 30
0
  0
SPLINE
  5
B82
330
A02
100
AcDbEntity
  8
Sketch007
100
AcDbSpline
210
0
220
0
230
1
 70
8
 71
1
 72
4
 73
2
 74
0
 40
0
 40
0
 40
1.48167
 40
1.48167
 10
16.13
 20
-282.73
 30
0
 10
16.13
 20
-281.248
 30
0
  0
SPLINE
  5
B83
330
A02
100
AcDbEntity
  8
Sketch007
100
AcDbSpline
210
0
220
0
230
1
 70
8
 71
1
 72
4
 73
2
 74
0
 40
0
 40
0
 40
1.48167
 40
1.48167
 10
16.13
 20
-281.248
 30
0
 10
14.6484
 20
-281.248
 30
0
  0
SPLINE
  5
B84
330
A02
100
AcDbEntity
  8
Sketch007
100
AcDbSpline
210
0
220
0
230
1
 70
8
 71
1
 72
4
 73
2
 74
0
 40
0
 40
0
 40
1.48167
 40
1.48167
 10
14.6484
 20
-281.248
 30
0
 10
13.1667
 20
-281.248
 30
0
  0
SPLINE
  5
B85
330
A02
100
AcDbEntity
  8
Sketch007
100
AcDbSpline
210
0
220
0
230
1
 70
8
 71
1
 72
4
 73
2
 74
0
 40
0
 40
0
 40
1.48167
 40
1.48167
 10
13.1667
 20
-281.248
 30
0
 10
13.1667
 20
-282.73
 30
0
  0
SPLINE
  5
B86
330
A02
100
AcDbEntity
  8
Sketch007
100
AcDbSpline
210
0
220
0
230
1
 70
8
 71
1
 72
4
 73
2
 74
0
 40
0
 40
0
 40
1.48167
 40
1.48167
 10
13.1667
 20
-282.73
 30
0
 10
13.1667
 20
-284.212
 30
0
  0
SPLINE
  5
B87
330
A02
100
AcDbEntity
  8
Sketch007
100
AcDbSpline
210
0
220
0
230
1
 70
8
 71
1
 72
4
 73
2
 74
0
 40
0
 40
0
 40
1.48167
 40
1.48167
 10
13.1667
 20
-284.212
 30
0
 10
14.6484
 20
-284.212
 30
0
  0
SPLINE
  5
B88
330
A02
100
AcDbEntity
  8
Sketch007
100
AcDbSpline
210
0
220
0
230
1
 70
8
 71
1
 72
4
 73
2
 74
0
 40
0
 40
0
 40
1.48167
 40
1.48167
 10
14.6484
 20
-284.212
 30
0
 10
16.13
 20
-284.212
 30
0
  0
SPLINE
  5
B89
330
A02
100
AcDbEntity
  8
Sketch007
100
AcDbSpline
210
0
220
0
230
1
 70
8
 71
1
 72
4
 73
2
 74
0
 40
0
 40
0
 40
1.48167
 40
1.48167
 10
16.13
 20
-284.212
 30
0
 10
16.13
 20
-282.73
 30
0
  0
SPLINE
  5
B8A
330
A02
100
AcDbEntity
  8
Sketch007
100
AcDbSpline
210
0
220
0
230
1
 70
8
 71
3
 72
8
 73
4
 74
0
 40
0
 40
0
 40
0
 40
0
 40
1
 40
1
 40
1
 40
1
 10
13.59
 20
-283.577
 30
0
 10
13.59
 20
-283.407
 30
0
 10
13.6324
 20
-283.365
 30
0
 10
13.8017
 20
-283.365
 30
0
  0
SPLINE
  5
B8B
330
A02
100
AcDbEntity
  8
Sketch007
100
AcDbSpline
210
0
220
0
230
1
 70
8
 71
3
 72
8
 73
4
 74
0
 40
0
 40
0
 40
0
 40
0
 40
1
 40
1
 40
1
 40
1
 10
13.8017
 20
-283.365
 30
0
 10
13.971
 20
-283.365
 30
0
 10
14.0134
 20
-283.407
 30
0
 10
14.0134
 20
-283.577
 30
0
  0
SPLINE
  5
B8C
330
A02
100
AcDbEntity
  8
Sketch007
100
AcDbSpline
210
0
220
0
230
1
 70
8
 71
3
 72
8
 73
4
 74
0
 40
0
 40
0
 40
0
 40
0
 40
1
 40
1
 40
1
 40
1
 10
14.0134
 20
-283.577
 30
0
 10
14.0134
 20
-283.746
 30
0
 10
13.971
 20
-283.788
 30
0
 10
13.8017
 20
-283.788
 30
0
  0
SPLINE
  5
B8D
330
A02
100
AcDbEntity
  8
Sketch007
100
AcDbSpline
210
0
220
0
230
1
 70
8
 71
3
 72
8
 73
4
 74
0
 40
0
 40
0
 40
0
 40
0
 40
1
 40
1
 40
1
 40
1
 10
13.8017
 20
-283.788
 30
0
 10
13.6324
 20
-283.788
 30
0
 10
13.59
 20
-283.746
 30
0
 10
13.59
 20
-283.577
 30
0
  0
SPLINE
  5
B8E
330
A02
100
AcDbEntity
  8
Sketch007
100
AcDbSpline
210
0
220
0
230
1
 70
8
 71
3
 72
8
 73
4
 74
0
 40
0
 40
0
 40
0
 40
0
 40
1
 40
1
 40
1
 40
1
 10
14.4367
 20
-283.577
 30
0
 10
14.4367
 20
-283.407
 30
0
 10
14.479
 20
-283.365
 30
0
 10
14.6484
 20
-283.365
 30
0
  0
SPLINE
  5
B8F
330
A02
100
AcDbEntity
  8
Sketch007
100
AcDbSpline
210
0
220
0
230
1
 70
8
 71
3
 72
8
 73
4
 74
0
 40
0
 40
0
 40
0
 40
0
 40
1
 40
1
 40
1
 40
1
 10
14.6484
 20
-283.365
 30
0
 10
14.8177
 20
-283.365
 30
0
 10
14.86
 20
-283.407
 30
0
 10
14.86
 20
-283.577
 30
0
  0
SPLINE
  5
B90
330
A02
100
AcDbEntity
  8
Sketch007
100
AcDbSpline
210
0
220
0
230
1
 70
8
 71
3
 72
8
 73
4
 74
0
 40
0
 40
0
 40
0
 40
0
 40
1
 40
1
 40
1
 40
1
 10
14.86
 20
-283.577
 30
0
 10
14.86
 20
-283.746
 30
0
 10
14.8177
 20
-283.788
 30
0
 10
14.6484
 20
-283.788
 30
0
  0
SPLINE
  5
B91
330
A02
100
AcDbEntity
  8
Sketch007
100
AcDbSpline
210
0
220
0
230
1
 70
8
 71
3
 72
8
 73
4
 74
0
 40
0
 40
0
 40
0
 40
0
 40
1
 40
1
 40
1
 40
1
 10
14.6484
 20
-283.788
 30
0
 10
14.479
 20
-283.788
 30
0
 10
14.4367
 20
-283.746
 30
0
 10
14.4367
 20
-283.577
 30
0
  0
SPLINE
  5
B92
330
A02
100
AcDbEntity
  8
Sketch007
100
AcDbSpline
210
0
220
0
230
1
 70
8
 71
3
 72
8
 73
4
 74
0
 40
0
 40
0
 40
0
 40
0
 40
1
 40
1
 40
1
 40
1
 10
15.2834
 20
-283.577
 30
0
 10
15.2834
 20
-283.407
 30
0
 10
15.3257
 20
-283.365
 30
0
 10
15.495
 20
-283.365
 30
0
  0
SPLINE
  5
B93
330
A02
100
AcDbEntity
  8
Sketch007
100
AcDbSpline
210
0
220
0
230
1
 70
8
 71
3
 72
8
 73
4
 74
0
 40
0
 40
0
 40
0
 40
0
 40
1
 40
1
 40
1
 40
1
 10
15.495
 20
-283.365
 30
0
 10
15.6644
 20
-283.365
 30
0
 10
15.7067
 20
-283.407
 30
0
 10
15.7067
 20
-283.577
 30
0
  0
SPLINE
  5
B94
330
A02
100
AcDbEntity
  8
Sketch007
100
AcDbSpline
210
0
220
0
230
1
 70
8
 71
3
 72
8
 73
4
 74
0
 40
0
 40
0
 40
0
 40
0
 40
1
 40
1
 40
1
 40
1
 10
15.7067
 20
-283.577
 30
0
 10
15.7067
 20
-283.746
 30
0
 10
15.6644
 20
-283.788
 30
0
 10
15.495
 20
-283.788
 30
0
  0
SPLINE
  5
B95
330
A02
100
AcDbEntity
  8
Sketch007
100
AcDbSpline
210
0
220
0
230
1
 70
8
 71
3
 72
8
 73
4
 74
0
 40
0
 40
0
 40
0
 40
0
 40
1
 40
1
 40
1
 40
1
 10
15.495
 20
-283.788
 30
0
 10
15.3257
 20
-283.788
 30
0
 10
15.2834
 20
-283.746
 30
0
 10
15.2834
 20
-283.577
 30
0
  0
SPLINE
  5
B96
330
A02
100
AcDbEntity
  8
Sketch007
100
AcDbSpline
210
0
220
0
230
1
 70
8
 71
3
 72
8
 73
4
 74
0
 40
0
 40
0
 40
0
 40
0
 40
1
 40
1
 40
1
 40
1
 10
13.59
 20
-282.73
 30
0
 10
13.59
 20
-282.561
 30
0
 10
13.6324
 20
-282.518
 30
0
 10
13.8017
 20
-282.518
 30
0
  0
SPLINE
  5
B97
330
A02
100
AcDbEntity
  8
Sketch007
100
AcDbSpline
210
0
220
0
230
1
 70
8
 71
3
 72
8
 73
4
 74
0
 40
0
 40
0
 40
0
 40
0
 40
1
 40
1
 40
1
 40
1
 10
13.8017
 20
-282.518
 30
0
 10
13.971
 20
-282.518
 30
0
 10
14.0134
 20
-282.561
 30
0
 10
14.0134
 20
-282.73
 30
0
  0
SPLINE
  5
B98
330
A02
100
AcDbEntity
  8
Sketch007
100
AcDbSpline
210
0
220
0
230
1
 70
8
 71
3
 72
8
 73
4
 74
0
 40
0
 40
0
 40
0
 40
0
 40
1
 40
1
 40
1
 40
1
 10
14.0134
 20
-282.73
 30
0
 10
14.0134
 20
-282.899
 30
0
 10
13.971
 20
-282.942
 30
0
 10
13.8017
 20
-282.942
 30
0
  0
SPLINE
  5
B99
330
A02
100
AcDbEntity
  8
Sketch007
100
AcDbSpline
210
0
220
0
230
1
 70
8
 71
3
 72
8
 73
4
 74
0
 40
0
 40
0
 40
0
 40
0
 40
1
 40
1
 40
1
 40
1
 10
13.8017
 20
-282.942
 30
0
 10
13.6324
 20
-282.942
 30
0
 10
13.59
 20
-282.9
 30
0
 10
13.59
 20
-282.73
 30
0
  0
SPLINE
  5
B9A
330
A02
100
AcDbEntity
  8
Sketch007
100
AcDbSpline
210
0
220
0
230
1
 70
8
 71
3
 72
8
 73
4
 74
0
 40
0
 40
0
 40
0
 40
0
 40
1
 40
1
 40
1
 40
1
 10
14.4367
 20
-281.883
 30
0
 10
14.4367
 20
-281.714
 30
0
 10
14.479
 20
-281.672
 30
0
 10
14.6484
 20
-281.672
 30
0
  0
SPLINE
  5
B9B
330
A02
100
AcDbEntity
  8
Sketch007
100
AcDbSpline
210
0
220
0
230
1
 70
8
 71
3
 72
8
 73
4
 74
0
 40
0
 40
0
 40
0
 40
0
 40
1
 40
1
 40
1
 40
1
 10
14.6484
 20
-281.672
 30
0
 10
14.8177
 20
-281.672
 30
0
 10
14.86
 20
-281.714
 30
0
 10
14.86
 20
-281.883
 30
0
  0
SPLINE
  5
B9C
330
A02
100
AcDbEntity
  8
Sketch007
100
AcDbSpline
210
0
220
0
230
1
 70
8
 71
3
 72
8
 73
4
 74
0
 40
0
 40
0
 40
0
 40
0
 40
1
 40
1
 40
1
 40
1
 10
14.86
 20
-281.883
 30
0
 10
14.86
 20
-282.053
 30
0
 10
14.8177
 20
-282.095
 30
0
 10
14.6484
 20
-282.095
 30
0
  0
SPLINE
  5
B9D
330
A02
100
AcDbEntity
  8
Sketch007
100
AcDbSpline
210
0
220
0
230
1
 70
8
 71
3
 72
8
 73
4
 74
0
 40
0
 40
0
 40
0
 40
0
 40
1
 40
1
 40
1
 40
1
 10
14.6484
 20
-282.095
 30
0
 10
14.479
 20
-282.095
 30
0
 10
14.4367
 20
-282.053
 30
0
 10
14.4367
 20
-281.883
 30
0
  0
ENDSEC
  0
SECTION
  2
OBJECTS
  0
DICTIONARY
  5
F000
330
0
100
AcDbDictionary
  3
ACAD_GROUP
350
F001
  0
DICTIONARY
  5
F001
330
F000
100
AcDbDictionary
  0
ENDSEC
  0
EOF