<?xml version="1.0" encoding="UTF-8" standalone="no"?>
<!-- Created with Inkscape (http://www.inkscape.org/) -->

<svg
   width="210mm"
   height="297mm"
   viewBox="0 0 210 297"
   version="1.1"
   id="svg204725"
   inkscape:version="1.1.2 (0a00cf5339, 2022-02-04)"
   sodipodi:docname="logo.svg"
   xmlns:inkscape="http://www.inkscape.org/namespaces/inkscape"
   xmlns:sodipodi="http://sodipodi.sourceforge.net/DTD/sodipodi-0.dtd"
   xmlns="http://www.w3.org/2000/svg"
   xmlns:svg="http://www.w3.org/2000/svg">
  <sodipodi:namedview
     id="namedview204727"
     pagecolor="#ffffff"
     bordercolor="#666666"
     borderopacity="1.0"
     inkscape:pageshadow="2"
     inkscape:pageopacity="0.0"
     inkscape:pagecheckerboard="0"
     inkscape:document-units="mm"
     showgrid="false"
     inkscape:zoom="0.90583672"
     inkscape:cx="315.17821"
     inkscape:cy="945.53464"
     inkscape:window-width="1850"
     inkscape:window-height="1016"
     inkscape:window-x="70"
     inkscape:window-y="27"
     inkscape:window-maximized="1"
     inkscape:current-layer="layer1" />
  <defs
     id="defs204722" />
  <g
     inkscape:label="Capa 1"
     inkscape:groupmode="layer"
     id="layer1">
    <path
       style="fill:#000000;stroke-width:0.0846667"
       d="m 28.735639,285.70363 c -0.480605,-0.17174 -0.807722,-0.44656 -0.995446,-0.83628 -0.157575,-0.32713 -0.174428,-0.53729 -0.188543,-2.35118 -0.01289,-1.65712 0.0066,-2.03426 0.115885,-2.24367 0.557492,-1.06812 2.074711,-1.34678 2.863882,-0.52599 0.437911,0.45546 0.566286,1.04882 0.517287,2.39093 -0.0034,0.0931 -0.01216,0.72179 -0.01947,1.397 -0.01452,1.34166 -0.09541,1.65797 -0.495138,1.93605 -0.503362,0.35018 -1.213388,0.44223 -1.798459,0.23314 z m 1.365718,-0.3796 c 0.495627,-0.26501 0.577459,-0.50327 0.600098,-1.74725 l 0.02003,-1.10067 -0.776391,-0.0243 c -0.474209,-0.0149 -0.776392,0.008 -0.776392,0.0598 0,0.0463 0.276225,0.0953 0.613833,0.10901 0.566812,0.023 0.615943,0.0397 0.64136,0.21898 0.03377,0.2381 -0.52054,0.82537 -0.859298,0.91039 -0.625031,0.15687 -1.311542,-0.29039 -1.495747,-0.97447 -0.23576,-0.87554 0.368573,-1.78102 1.188685,-1.78102 0.376815,0 0.820097,0.23227 0.989022,0.51824 0.09572,0.16205 0.212865,0.24376 0.349461,0.24376 0.201434,0 0.204399,-0.0104 0.150812,-0.52917 -0.06863,-0.66439 -0.35452,-1.2346 -0.728522,-1.45303 -0.617049,-0.36037 -1.57934,-0.0975 -1.97561,0.53964 -0.180027,0.28946 -0.185338,0.36351 -0.157625,2.19767 0.01577,1.04396 0.06604,1.99639 0.111714,2.11651 0.272936,0.71788 1.379325,1.08375 2.104569,0.69597 z m -0.361154,-2.04266 c 0.151342,-0.0923 0.275167,-0.20469 0.275167,-0.24982 0,-0.0451 -0.257175,-0.0933 -0.5715,-0.10707 l -0.5715,-0.025 -0.02694,-0.2807 c -0.04152,-0.43251 0.09059,-0.52364 0.759151,-0.52364 h 0.584474 l -0.12869,-0.24886 c -0.384974,-0.74445 -1.311882,-0.674 -1.616201,0.12285 -0.185482,0.48568 -0.07419,0.94014 0.309235,1.26278 0.31013,0.26095 0.614919,0.27624 0.986808,0.0495 z m 1.926167,2.44596 c -0.373352,-0.21447 -0.381,-0.2653 -0.381,-2.53237 0,-2.37355 0.06282,-2.80699 0.478404,-3.30088 0.372084,-0.4422 0.815575,-0.61551 1.479104,-0.57802 0.737143,0.0417 1.187701,0.33323 1.53132,0.991 l 0.236505,0.45272 v 2.35485 2.35486 l -0.223085,0.17547 c -0.248934,0.19582 -0.513451,0.22203 -0.821962,0.0815 -0.278762,-0.12701 -0.386755,-0.36759 -0.413856,-0.92198 l -0.02276,-0.46566 -0.3175,-0.0263 c -0.174625,-0.0144 -0.322216,0.005 -0.327981,0.0423 -0.0058,0.0377 -0.01813,0.28947 -0.02748,0.5594 -0.01263,0.3646 -0.06117,0.53497 -0.18876,0.66256 -0.203742,0.20374 -0.762129,0.28772 -1.000943,0.15053 z m 0.755952,-0.3786 c 0.09067,-0.0907 0.133048,-0.29102 0.133048,-0.62895 0,-0.61456 0.124038,-0.762 0.641047,-0.762 0.545168,0 0.713619,0.19915 0.713619,0.84368 0,0.42586 0.02778,0.51989 0.17722,0.59987 0.09747,0.0522 0.26892,0.0718 0.381,0.0437 l 0.20378,-0.0512 -0.0019,-2.26322 c -0.0017,-2.02723 -0.01836,-2.29956 -0.160118,-2.61172 -0.235668,-0.51895 -0.67897,-0.81949 -1.272058,-0.86239 -0.745793,-0.054 -1.229312,0.26896 -1.484103,0.99111 -0.168761,0.47832 -0.193181,4.56759 -0.02826,4.73251 0.143851,0.14385 0.539235,0.12601 0.696686,-0.0314 z m 0.304923,-1.83794 c -0.284666,-0.14404 -0.595209,-0.62556 -0.595209,-0.92292 0,-1.18792 1.423773,-1.53946 1.97134,-0.48674 0.446853,0.85909 -0.515666,1.84506 -1.376131,1.40966 z m 0.83063,-0.36589 c 0.46579,-0.32625 0.397775,-1.05329 -0.118726,-1.2691 -0.80155,-0.3349 -1.338564,0.75756 -0.637116,1.29612 0.188711,0.14488 0.527712,0.13277 0.755842,-0.027 z m 1.914647,2.46772 -0.207819,-0.20781 v -2.96421 c 0,-3.36312 -0.05126,-3.13949 0.719667,-3.13949 0.749788,0 0.719667,-0.0887 0.719667,2.11964 v 1.94436 h 0.550333 c 0.84553,0 1.028997,0.29029 0.959608,1.51832 -0.05097,0.9021 -0.104706,0.93701 -1.442245,0.93701 -1.045874,0 -1.100061,-0.009 -1.299211,-0.20782 z m 2.329203,-0.29461 c 0.123641,-0.23103 0.11043,-1.29762 -0.01819,-1.46839 -0.07875,-0.10455 -0.26835,-0.14661 -0.740834,-0.16435 l -0.635,-0.0238 -0.0227,-2.01083 -0.0227,-2.01083 h -0.379468 -0.379467 v 2.8194 c 0,2.07998 0.02665,2.84604 0.1016,2.921 0.067,0.067 0.426435,0.1016 1.055355,0.1016 0.856295,0 0.96271,-0.0167 1.0414,-0.16377 z m 1.04568,0.42151 c -0.340247,-0.14506 -0.365368,-0.32618 -0.365368,-2.63419 0,-2.46217 0.03416,-2.68449 0.495288,-3.22321 0.361019,-0.42177 0.712575,-0.58101 1.282712,-0.58101 0.753864,0 1.348272,0.36527 1.722253,1.05833 0.172514,0.3197 0.184201,0.46937 0.208719,2.67285 0.02466,2.21665 0.01758,2.34455 -0.140686,2.54 -0.131657,0.16259 -0.246381,0.20582 -0.54625,0.20582 -0.554882,0 -0.735687,-0.19526 -0.737333,-0.79629 -0.0016,-0.60051 -0.06884,-0.70506 -0.430915,-0.67049 l -0.287455,0.0275 -0.04233,0.56865 c -0.02705,0.36341 -0.09161,0.61786 -0.178852,0.70499 -0.16424,0.16403 -0.723104,0.23653 -0.97978,0.1271 z m 0.718365,-0.35934 c 0.05588,-0.0559 0.1016,-0.32258 0.1016,-0.59267 0,-0.62936 0.172308,-0.82973 0.713522,-0.82973 0.506752,0 0.725811,0.26664 0.725811,0.88348 0,0.47125 0.100685,0.64052 0.381,0.64052 0.36585,0 0.381,-0.0943 0.381,-2.37098 0,-2.1641 -3.38e-4,-2.16852 -0.219851,-2.60896 -0.309036,-0.62016 -0.784292,-0.89552 -1.461089,-0.84657 -0.582494,0.0421 -0.936665,0.26193 -1.166121,0.72367 -0.140973,0.28369 -0.161395,0.57182 -0.183701,2.59176 -0.01813,1.64224 0.0024,2.30567 0.07387,2.39183 0.120986,0.14578 0.515189,0.15642 0.653961,0.0176 z m 0.250831,-1.88883 c -0.517068,-0.29122 -0.662491,-1.17576 -0.269991,-1.64222 0.656933,-0.78072 1.812859,-0.3129 1.813777,0.73406 4.23e-4,0.5191 -0.404124,0.95374 -0.933925,1.00332 -0.242712,0.0227 -0.46108,-0.0114 -0.609861,-0.0952 z m 0.997617,-0.41873 c 0.288648,-0.28864 0.28716,-0.78879 -0.0032,-1.06153 -0.454634,-0.42711 -1.14369,-0.11022 -1.14369,0.52596 0,0.41638 0.297955,0.74339 0.677333,0.74339 0.164962,0 0.338516,-0.0768 0.469515,-0.20782 z m 1.816485,2.68611 c -0.06985,-0.0266 -0.154991,-0.0903 -0.189203,-0.14148 -0.08889,-0.1331 -0.07728,-6.08066 0.01214,-6.22187 0.09644,-0.15228 0.829808,-0.21967 1.129561,-0.1038 0.167107,0.0646 0.232834,0.1492 0.232834,0.29971 v 0.20971 l 0.433684,-0.225 c 0.355342,-0.18436 0.550349,-0.22569 1.079501,-0.22878 l 0.645815,-0.004 v 1.00978 1.00978 l -0.608957,0.14969 c -0.737409,0.18126 -1.055128,0.3377 -1.288567,0.63447 -0.509743,0.64804 0.124159,1.33886 1.338786,1.45901 l 0.558738,0.0553 v 1.05833 1.05834 l -0.423333,-0.005 c -0.491013,-0.005 -0.899552,-0.18194 -1.388093,-0.60011 l -0.347574,-0.29751 v 0.42006 c 0,0.36404 -0.0254,0.42686 -0.1905,0.4711 -0.233132,0.0625 -0.821752,0.0575 -0.994834,-0.008 z m 0.846667,-0.87228 c 0,-0.79131 0.123579,-0.83805 0.654516,-0.24752 0.383488,0.42653 1.070598,0.84019 1.398651,0.84202 0.130025,7.6e-4 0.148167,-0.091 0.148167,-0.74938 v -0.75021 l -0.439371,-0.052 c -0.59361,-0.0703 -1.312872,-0.43328 -1.514809,-0.76445 -0.21715,-0.35612 -0.206234,-0.80932 0.02801,-1.16308 0.219878,-0.33205 0.93849,-0.72376 1.50449,-0.82007 l 0.379343,-0.0645 0.02462,-0.74947 0.02462,-0.74947 -0.456225,0.0378 c -0.406861,0.0337 -0.810717,0.18789 -1.311256,0.50048 -0.261931,0.16358 -0.44076,0.0389 -0.44076,-0.30731 v -0.30386 l -0.359833,0.026 -0.359834,0.026 -0.02233,2.83573 c -0.01228,1.55965 -0.004,2.88363 0.01851,2.94217 0.02345,0.0611 0.186183,0.10643 0.382168,0.10643 h 0.341323 z m 3.851607,0.78143 c -0.417291,-0.19614 -0.83584,-0.65969 -0.974213,-1.07896 -0.124715,-0.37789 -0.07267,-1.60707 0.07427,-1.75401 0.07775,-0.0777 0.190461,-0.008 0.49544,0.30552 0.617819,0.63561 1.101033,0.79895 1.245992,0.42119 0.08617,-0.22454 -0.180089,-0.51978 -0.709994,-0.78727 -0.766252,-0.38681 -1.19132,-1.08092 -1.187246,-1.93872 0.0051,-1.06422 0.736301,-1.67817 1.909774,-1.60345 0.996014,0.0634 1.595959,0.71147 1.585792,1.71294 -0.0058,0.56893 -0.204365,1.14999 -0.393033,1.14999 -0.06687,0 -0.183474,-0.0945 -0.259118,-0.20991 -0.296785,-0.45295 -0.99018,-0.5897 -1.107989,-0.21852 -0.08565,0.26984 0.131669,0.49614 0.797875,0.83085 0.869955,0.43708 0.978507,0.60754 0.978507,1.53654 0,0.68186 -0.01904,0.76618 -0.237738,1.05291 -0.478752,0.62768 -1.532004,0.90349 -2.218322,0.5809 z m 1.358896,-0.34525 c 0.188193,-0.0855 0.445368,-0.27807 0.5715,-0.42797 0.200043,-0.23774 0.229331,-0.34595 0.229331,-0.8473 0,-0.71998 -0.160887,-0.95093 -0.894022,-1.28335 -0.580291,-0.26311 -0.968645,-0.65532 -0.968645,-0.97824 0,-0.12306 0.108051,-0.31974 0.258087,-0.46977 0.222848,-0.22285 0.302956,-0.25207 0.586704,-0.21401 0.18074,0.0242 0.459649,0.14401 0.619798,0.26617 l 0.291179,0.22209 0.05768,-0.43477 c 0.04771,-0.35966 0.02403,-0.5018 -0.137051,-0.82267 -0.273164,-0.54415 -0.550402,-0.72034 -1.198399,-0.7616 -1.172325,-0.0746 -1.761548,0.74334 -1.374611,1.90829 0.160671,0.48374 0.417157,0.74831 1.055454,1.08872 0.250344,0.13351 0.509993,0.32642 0.576998,0.42868 0.189662,0.28946 0.110662,0.78571 -0.156725,0.98448 -0.318088,0.23646 -0.718266,0.14117 -1.204499,-0.28683 l -0.39061,-0.34383 v 0.49725 c 0,1.24103 1.011612,1.95898 2.077836,1.47466 z m 1.626331,0.36472 -0.232834,-0.12632 v -3.00101 -3.00101 l 0.213044,-0.13959 c 0.152943,-0.10021 0.331287,-0.12823 0.632191,-0.0993 0.718394,0.069 0.678914,-0.11175 0.67761,3.10287 -6.78e-4,1.56593 -0.0235,2.93046 -0.05082,3.03231 -0.08999,0.33555 -0.802491,0.46898 -1.239195,0.23207 z m 0.843447,-0.31141 c 0.04814,-0.0629 0.07811,-1.23944 0.07387,-2.89983 l -0.0071,-2.794 h -0.381 -0.381 l -0.02233,2.83062 c -0.01742,2.20821 0.0012,2.84555 0.08467,2.89853 0.164139,0.1042 0.5423,0.0831 0.632941,-0.0353 z m 0.807553,0.31948 c -0.181213,-0.13182 -0.1905,-0.19399 -0.1905,-1.27517 v -1.13658 l 0.232833,-0.0478 c 0.128058,-0.0263 0.375708,-0.0857 0.550333,-0.13201 l 0.3175,-0.0842 v -1.7219 c 0,-1.98197 -0.0092,-1.95713 0.725076,-1.94998 0.750675,0.007 0.714258,-0.14096 0.714258,2.9082 0,2.29814 -0.01894,2.70717 -0.132894,2.86986 -0.351331,0.5016 -1.798786,0.87354 -2.216606,0.56959 z M 53.39501,285.267 c 0.617745,-0.31313 0.581027,-0.12533 0.581027,-2.97173 v -2.5676 l -0.20497,-0.0514 c -0.519171,-0.13031 -0.510326,-0.15843 -0.561377,1.78491 -0.02567,0.97734 -0.05425,1.78236 -0.0635,1.78895 -0.109654,0.0781 -0.737352,0.28436 -0.8652,0.28436 -0.156733,0 -0.16762,0.0596 -0.16762,0.91722 0,0.50447 0.02857,0.94657 0.0635,0.98245 0.09983,0.10256 0.9037,-0.008 1.21814,-0.16712 z m 1.396779,0.37796 -0.223085,-0.17547 5.08e-4,-2.30103 c 2.54e-4,-1.36089 0.03717,-2.43319 0.0903,-2.62451 0.109455,-0.39417 0.615754,-0.97378 0.986008,-1.12878 0.149811,-0.0627 0.465359,-0.11406 0.701184,-0.11406 0.753864,0 1.348272,0.36527 1.722254,1.05833 0.171831,0.31844 0.184323,0.47235 0.209151,2.57687 0.01452,1.23101 0.0044,2.32569 -0.02239,2.43262 -0.0679,0.27054 -0.502998,0.47999 -0.858531,0.41329 -0.377411,-0.0708 -0.542192,-0.32791 -0.543777,-0.84845 -0.0017,-0.55106 -0.07465,-0.65646 -0.430916,-0.62244 -0.281383,0.0269 -0.287922,0.0364 -0.309579,0.45078 -0.03406,0.65169 -0.08735,0.79092 -0.355898,0.92979 -0.344206,0.178 -0.701348,0.16063 -0.965226,-0.0469 z m 0.798481,-0.25083 c 0.133812,-0.0716 0.163767,-0.18002 0.163767,-0.59267 0,-0.63929 0.169983,-0.84429 0.6985,-0.84239 0.197909,7.1e-4 0.401755,0.0293 0.452992,0.0635 0.180102,0.12026 0.287842,0.43618 0.287842,0.84404 0,0.44712 0.104079,0.61517 0.381,0.61517 0.365849,0 0.381,-0.0943 0.381,-2.37098 0,-2.1641 -3.39e-4,-2.16852 -0.219852,-2.60896 -0.309036,-0.62016 -0.784292,-0.89552 -1.461089,-0.84657 -0.599912,0.0434 -0.94566,0.26814 -1.190459,0.77383 -0.165394,0.34166 -0.1766,0.50709 -0.1766,2.60714 0,1.63115 0.02769,2.27003 0.1016,2.34394 0.124819,0.12482 0.363441,0.13054 0.581299,0.014 z m 0.312998,-1.90756 c -0.513502,-0.27862 -0.662837,-1.17057 -0.27346,-1.63331 0.655032,-0.77847 1.817563,-0.31155 1.817563,0.73 0,0.32671 -0.04493,0.42337 -0.328706,0.70714 -0.27083,0.27083 -0.386363,0.32811 -0.656167,0.32532 -0.180104,-0.002 -0.431757,-0.06 -0.55923,-0.12915 z m 0.997617,-0.41395 c 0.530617,-0.53061 -0.01119,-1.46714 -0.708208,-1.22416 -0.720097,0.25103 -0.523247,1.43198 0.238694,1.43198 0.164962,0 0.338516,-0.0768 0.469514,-0.20782 z m 4.121542,1.9008 c -0.152502,-0.093 -0.311678,-0.25954 -0.353722,-0.37012 -0.13183,-0.34674 -0.294264,-3.92759 -0.188675,-4.15933 0.194826,-0.4276 0.316723,-0.44894 2.738633,-0.47943 2.182886,-0.0275 2.265576,-0.0225 2.497666,0.14914 0.32512,0.2405 0.40508,0.60786 0.57871,2.65878 0.10882,1.28535 0.1216,1.76482 0.0512,1.9194 -0.18326,0.40221 -0.49485,0.45128 -2.86362,0.45093 -2.032354,-2.5e-4 -2.202006,-0.012 -2.460162,-0.16937 z m 4.976282,-0.25364 c 0.20284,-0.20285 0.20391,-0.258 0.0425,-2.17594 -0.15868,-1.88509 -0.18359,-2.02918 -0.38586,-2.23145 -0.15445,-0.15445 -0.29819,-0.16461 -2.327819,-0.16461 -2.285457,0 -2.588521,0.0455 -2.681909,0.40261 -0.02235,0.0855 0.01117,1.00873 0.07448,2.05171 0.105776,1.74245 0.130009,1.91217 0.298633,2.09167 0.182977,0.19477 0.190303,0.19534 2.497095,0.19534 2.20068,0 2.32183,-0.008 2.48291,-0.16933 z m -2.653363,-0.90359 c -0.01569,-0.0157 -0.474136,-0.0423 -1.01877,-0.0592 -0.544633,-0.0169 -1.014169,-0.0546 -1.043412,-0.0839 -0.05008,-0.0501 0.317312,-0.8082 0.512588,-1.05774 0.134095,-0.17135 1.013524,-0.0877 1.296113,0.12327 l 0.223554,0.16691 0.38914,-0.19719 c 0.27335,-0.13851 0.50127,-0.18981 0.76593,-0.17239 0.34555,0.0227 0.40667,0.0634 0.7374,0.49046 0.19834,0.25612 0.36216,0.51004 0.36405,0.56428 0.003,0.0936 -0.33873,0.13835 -1.71115,0.22371 -0.26781,0.0167 -0.499754,0.0174 -0.515443,0.002 z m 1.876533,-0.32421 c 0.0151,-0.0147 -0.0757,-0.18256 -0.20175,-0.3731 -0.2146,-0.32429 -0.25485,-0.34644 -0.62953,-0.34644 -0.28603,0 -0.48821,0.0597 -0.70841,0.20912 l -0.308152,0.20911 -0.313777,-0.21293 c -0.251431,-0.17063 -0.398187,-0.20797 -0.738606,-0.18795 -0.397834,0.0234 -0.436891,0.0465 -0.614634,0.36365 l -0.189804,0.33867 0.949577,0.0423 c 0.91094,0.0406 2.697806,0.0131 2.755086,-0.0425 z m -2.619803,-1.38691 c -0.417917,-0.41792 -0.442486,-0.75587 -0.08122,-1.11714 0.490616,-0.49062 1.400123,-0.26412 1.620473,0.40354 0.18661,0.56545 -0.22891,1.04231 -0.908238,1.04231 -0.23828,0 -0.371931,-0.0696 -0.631017,-0.32871 z m 1.195293,-0.0946 c 0.24526,-0.24526 0.21274,-0.56229 -0.0886,-0.86362 -0.22052,-0.22052 -0.301866,-0.2508 -0.560837,-0.20877 -0.613345,0.0995 -0.822704,0.62395 -0.412753,1.0339 0.268378,0.26838 0.81257,0.2881 1.06218,0.0385 z m -43.149071,2.18573 c -0.436111,-0.42767 -0.792929,-0.84677 -0.792929,-0.93133 0,-0.14168 0.09926,-0.15373 1.266132,-0.15373 h 1.266132 l 0.02503,0.54337 0.02504,0.54338 0.700715,-0.63869 0.700716,-0.63868 -0.405367,-0.43386 c -0.222952,-0.23862 -0.547053,-0.60531 -0.720225,-0.81486 l -0.314859,-0.381 -0.0017,0.6985 -0.0017,0.6985 h -1.272657 c -1.084944,0 -1.280274,-0.0199 -1.324295,-0.13456 -0.07319,-0.19073 1.463598,-1.7281 1.727447,-1.7281 0.315868,0 0.223881,0.18474 -0.400495,0.80433 -0.325966,0.32347 -0.592666,0.61772 -0.592666,0.65389 0,0.0362 0.3429,0.0658 0.762,0.0658 h 0.762 v -0.762 c 0,-0.74909 0.0035,-0.762 0.204367,-0.762 0.151496,0 0.441728,0.25379 1.121834,0.98096 0.504606,0.53952 0.928823,1.02983 0.942703,1.08956 0.03201,0.13776 -1.88954,1.94188 -2.106966,1.97821 -0.14898,0.0249 -0.161938,-0.031 -0.161938,-0.6985 v -0.72556 h -0.781048 -0.781047 l 0.611714,0.61583 c 0.59471,0.5987 0.755994,0.90817 0.473309,0.90817 -0.07612,0 -0.495223,-0.34992 -0.931333,-0.7776 z m -7.904929,-1.46606 v -1.905 h 1.905 1.905 v 1.905 1.905 h -1.905 -1.905 z m 3.386667,0 v -1.48167 h -1.481667 -1.481667 v 1.48167 1.48167 h 1.481667 1.481667 z m -2.54,0.84667 c 0,-0.16934 0.04233,-0.21167 0.211666,-0.21167 0.169334,0 0.211667,0.0423 0.211667,0.21167 0,0.16933 -0.04233,0.21166 -0.211667,0.21166 -0.169333,0 -0.211666,-0.0423 -0.211666,-0.21166 z m 0.846666,0 c 0,-0.16934 0.04233,-0.21167 0.211667,-0.21167 0.169333,0 0.211667,0.0423 0.211667,0.21167 0,0.16933 -0.04233,0.21166 -0.211667,0.21166 -0.169333,0 -0.211667,-0.0423 -0.211667,-0.21166 z m 0.846667,0 c 0,-0.16934 0.04233,-0.21167 0.211667,-0.21167 0.169333,0 0.211666,0.0423 0.211666,0.21167 0,0.16933 -0.04233,0.21166 -0.211666,0.21166 -0.169334,0 -0.211667,-0.0423 -0.211667,-0.21166 z m -1.693333,-0.84667 c 0,-0.16933 0.04233,-0.21167 0.211666,-0.21167 0.169334,0 0.211667,0.0423 0.211667,0.21167 0,0.16933 -0.04233,0.21167 -0.211667,0.21167 -0.169333,0 -0.211666,-0.0423 -0.211666,-0.21167 z m 0.846666,-0.84667 c 0,-0.16933 0.04233,-0.21166 0.211667,-0.21166 0.169333,0 0.211667,0.0423 0.211667,0.21166 0,0.16934 -0.04233,0.21167 -0.211667,0.21167 -0.169333,0 -0.211667,-0.0423 -0.211667,-0.21167 z"
       id="path204990" />
  </g>
</svg>
