  0
SECTION
  2
BLOCKS
  0
ENDSEC
  0
SECTION
  2
ENTITIES
  0
LINE
  8
0
 10
317.06
 20
223.029
 11
-0.0599823
 21
223.029
  0
LINE
  8
0
 10
-0.0599823
 20
223.029
 11
-0.0599823
 21
-0.0292969
  0
LINE
  8
0
 10
-0.0599823
 20
-0.0292969
 11
317.06
 21
-0.0292969
  0
LINE
  8
0
 10
317.06
 20
-0.0292969
 11
317.06
 21
223.029
  0
LINE
  8
0
 10
308.154
 20
212.855
 11
307.77
 21
213.022
  0
LINE
  8
0
 10
307.77
 20
213.022
 11
307.441
 21
213.287
  0
LINE
  8
0
 10
307.441
 20
213.287
 11
307.188
 21
213.633
  0
LINE
  8
0
 10
307.188
 20
213.633
 11
307.029
 21
214.035
  0
LINE
  8
0
 10
307.029
 20
214.035
 11
306.975
 21
214.467
  0
LINE
  8
0
 10
306.975
 20
214.467
 11
307.029
 21
214.899
  0
LINE
  8
0
 10
307.029
 20
214.899
 11
307.188
 21
215.302
  0
LINE
  8
0
 10
307.188
 20
215.302
 11
307.441
 21
215.648
  0
LINE
  8
0
 10
307.441
 20
215.648
 11
307.77
 21
215.913
  0
LINE
  8
0
 10
307.77
 20
215.913
 11
308.154
 21
216.08
  0
LINE
  8
0
 10
308.154
 20
216.08
 11
308.566
 21
216.137
  0
LINE
  8
0
 10
308.566
 20
216.137
 11
308.977
 21
216.08
  0
LINE
  8
0
 10
308.977
 20
216.08
 11
309.361
 21
215.913
  0
LINE
  8
0
 10
309.361
 20
215.913
 11
309.691
 21
215.648
  0
LINE
  8
0
 10
309.691
 20
215.648
 11
309.943
 21
215.302
  0
LINE
  8
0
 10
309.943
 20
215.302
 11
310.102
 21
214.899
  0
LINE
  8
0
 10
310.102
 20
214.899
 11
310.156
 21
214.467
  0
LINE
  8
0
 10
310.156
 20
214.467
 11
310.102
 21
214.035
  0
LINE
  8
0
 10
310.102
 20
214.035
 11
309.943
 21
213.633
  0
LINE
  8
0
 10
309.943
 20
213.633
 11
309.691
 21
213.287
  0
LINE
  8
0
 10
309.691
 20
213.287
 11
309.361
 21
213.022
  0
LINE
  8
0
 10
309.361
 20
213.022
 11
308.977
 21
212.855
  0
LINE
  8
0
 10
308.977
 20
212.855
 11
308.566
 21
212.798
  0
LINE
  8
0
 10
308.566
 20
212.798
 11
308.154
 21
212.855
  0
LINE
  8
0
 10
11.0739
 20
212.847
 11
10.6711
 21
213.014
  0
LINE
  8
0
 10
10.6711
 20
213.014
 11
10.3251
 21
213.279
  0
LINE
  8
0
 10
10.3251
 20
213.279
 11
10.0597
 21
213.625
  0
LINE
  8
0
 10
10.0597
 20
213.625
 11
9.89282
 21
214.028
  0
LINE
  8
0
 10
9.89282
 20
214.028
 11
9.83594
 21
214.46
  0
LINE
  8
0
 10
9.83594
 20
214.46
 11
9.89282
 21
214.892
  0
LINE
  8
0
 10
9.89282
 20
214.892
 11
10.0597
 21
215.294
  0
LINE
  8
0
 10
10.0597
 20
215.294
 11
10.3251
 21
215.64
  0
LINE
  8
0
 10
10.3251
 20
215.64
 11
10.6711
 21
215.905
  0
LINE
  8
0
 10
10.6711
 20
215.905
 11
11.0739
 21
216.072
  0
LINE
  8
0
 10
11.0739
 20
216.072
 11
11.5062
 21
216.129
  0
LINE
  8
0
 10
11.5062
 20
216.129
 11
11.9385
 21
216.072
  0
LINE
  8
0
 10
11.9385
 20
216.072
 11
12.3414
 21
215.905
  0
LINE
  8
0
 10
12.3414
 20
215.905
 11
12.6873
 21
215.64
  0
LINE
  8
0
 10
12.6873
 20
215.64
 11
12.9527
 21
215.294
  0
LINE
  8
0
 10
12.9527
 20
215.294
 11
13.1196
 21
214.892
  0
LINE
  8
0
 10
13.1196
 20
214.892
 11
13.1765
 21
214.46
  0
LINE
  8
0
 10
13.1765
 20
214.46
 11
13.1196
 21
214.028
  0
LINE
  8
0
 10
13.1196
 20
214.028
 11
12.9527
 21
213.625
  0
LINE
  8
0
 10
12.9527
 20
213.625
 11
12.6873
 21
213.279
  0
LINE
  8
0
 10
12.6873
 20
213.279
 11
12.3414
 21
213.014
  0
LINE
  8
0
 10
12.3414
 20
213.014
 11
11.9385
 21
212.847
  0
LINE
  8
0
 10
11.9385
 20
212.847
 11
11.5062
 21
212.79
  0
LINE
  8
0
 10
11.5062
 20
212.79
 11
11.0739
 21
212.847
  0
LINE
  8
0
 10
72.0001
 20
206.408
 11
71.4682
 21
206.628
  0
LINE
  8
0
 10
71.4682
 20
206.628
 11
71.0114
 21
206.978
  0
LINE
  8
0
 10
71.0114
 20
206.978
 11
70.6609
 21
207.435
  0
LINE
  8
0
 10
70.6609
 20
207.435
 11
70.4406
 21
207.966
  0
LINE
  8
0
 10
70.4406
 20
207.966
 11
70.3654
 21
208.537
  0
LINE
  8
0
 10
70.3654
 20
208.537
 11
70.4406
 21
209.107
  0
LINE
  8
0
 10
70.4406
 20
209.107
 11
70.6609
 21
209.639
  0
LINE
  8
0
 10
70.6609
 20
209.639
 11
71.0114
 21
210.095
  0
LINE
  8
0
 10
71.0114
 20
210.095
 11
71.4682
 21
210.446
  0
LINE
  8
0
 10
71.4682
 20
210.446
 11
72.0001
 21
210.666
  0
LINE
  8
0
 10
72.0001
 20
210.666
 11
72.5709
 21
210.741
  0
LINE
  8
0
 10
72.5709
 20
210.741
 11
73.1417
 21
210.666
  0
LINE
  8
0
 10
73.1417
 20
210.666
 11
73.6736
 21
210.446
  0
LINE
  8
0
 10
73.6736
 20
210.446
 11
74.1304
 21
210.095
  0
LINE
  8
0
 10
74.1304
 20
210.095
 11
74.4808
 21
209.639
  0
LINE
  8
0
 10
74.4808
 20
209.639
 11
74.7012
 21
209.107
  0
LINE
  8
0
 10
74.7012
 20
209.107
 11
74.7763
 21
208.537
  0
LINE
  8
0
 10
74.7763
 20
208.537
 11
74.7012
 21
207.966
  0
LINE
  8
0
 10
74.7012
 20
207.966
 11
74.4808
 21
207.435
  0
LINE
  8
0
 10
74.4808
 20
207.435
 11
74.1304
 21
206.978
  0
LINE
  8
0
 10
74.1304
 20
206.978
 11
73.6736
 21
206.628
  0
LINE
  8
0
 10
73.6736
 20
206.628
 11
73.1417
 21
206.408
  0
LINE
  8
0
 10
73.1417
 20
206.408
 11
72.5709
 21
206.333
  0
LINE
  8
0
 10
72.5709
 20
206.333
 11
72.0001
 21
206.408
  0
LINE
  8
0
 10
102.009
 20
18.6307
 11
102.009
 21
37.6307
  0
LINE
  8
0
 10
102.009
 20
37.6307
 11
37.2456
 21
37.6307
  0
LINE
  8
0
 10
37.2456
 20
37.6307
 11
37.2456
 21
56.6333
  0
LINE
  8
0
 10
37.2456
 20
56.6333
 11
29.0143
 21
56.6333
  0
LINE
  8
0
 10
29.0143
 20
56.6333
 11
29.0143
 21
77.1358
  0
LINE
  8
0
 10
29.0143
 20
77.1358
 11
22.8987
 21
77.1358
  0
LINE
  8
0
 10
22.8987
 20
77.1358
 11
22.8987
 21
97.6384
  0
LINE
  8
0
 10
22.8987
 20
97.6384
 11
33.2456
 21
97.6384
  0
LINE
  8
0
 10
33.2456
 20
97.6384
 11
33.2456
 21
118.141
  0
LINE
  8
0
 10
33.2456
 20
118.141
 11
282.852
 21
118.141
  0
LINE
  8
0
 10
282.852
 20
118.141
 11
282.852
 21
97.6384
  0
LINE
  8
0
 10
282.852
 20
97.6384
 11
288.873
 21
97.6384
  0
LINE
  8
0
 10
288.873
 20
97.6384
 11
289.375
 21
77.1358
  0
LINE
  8
0
 10
289.375
 20
77.1358
 11
297.057
 21
77.1358
  0
LINE
  8
0
 10
297.057
 20
77.1358
 11
297.057
 21
56.6333
  0
LINE
  8
0
 10
297.057
 20
56.6333
 11
287.06
 21
56.6333
  0
LINE
  8
0
 10
287.06
 20
56.6333
 11
287.06
 21
37.6307
  0
LINE
  8
0
 10
287.06
 20
37.6307
 11
224.286
 21
37.6307
  0
LINE
  8
0
 10
224.286
 20
37.6307
 11
224.286
 21
18.6307
  0
LINE
  8
0
 10
224.286
 20
18.6307
 11
102.009
 21
18.6307
  0
LINE
  8
0
 10
252.069
 20
25.5885
 11
251.466
 21
25.8383
  0
LINE
  8
0
 10
251.466
 20
25.8383
 11
250.949
 21
26.2356
  0
LINE
  8
0
 10
250.949
 20
26.2356
 11
250.551
 21
26.7533
  0
LINE
  8
0
 10
250.551
 20
26.7533
 11
250.302
 21
27.3563
  0
LINE
  8
0
 10
250.302
 20
27.3563
 11
250.216
 21
28.0034
  0
LINE
  8
0
 10
250.216
 20
28.0034
 11
250.302
 21
28.6504
  0
LINE
  8
0
 10
250.302
 20
28.6504
 11
250.551
 21
29.2534
  0
LINE
  8
0
 10
250.551
 20
29.2534
 11
250.949
 21
29.7711
  0
LINE
  8
0
 10
250.949
 20
29.7711
 11
251.466
 21
30.1684
  0
LINE
  8
0
 10
251.466
 20
30.1684
 11
252.069
 21
30.4182
  0
LINE
  8
0
 10
252.069
 20
30.4182
 11
252.716
 21
30.5034
  0
LINE
  8
0
 10
252.716
 20
30.5034
 11
253.363
 21
30.4182
  0
LINE
  8
0
 10
253.363
 20
30.4182
 11
253.966
 21
30.1684
  0
LINE
  8
0
 10
253.966
 20
30.1684
 11
254.484
 21
29.7711
  0
LINE
  8
0
 10
254.484
 20
29.7711
 11
254.881
 21
29.2534
  0
LINE
  8
0
 10
254.881
 20
29.2534
 11
255.131
 21
28.6504
  0
LINE
  8
0
 10
255.131
 20
28.6504
 11
255.216
 21
28.0034
  0
LINE
  8
0
 10
255.216
 20
28.0034
 11
255.131
 21
27.3563
  0
LINE
  8
0
 10
255.131
 20
27.3563
 11
254.881
 21
26.7533
  0
LINE
  8
0
 10
254.881
 20
26.7533
 11
254.484
 21
26.2356
  0
LINE
  8
0
 10
254.484
 20
26.2356
 11
253.966
 21
25.8383
  0
LINE
  8
0
 10
253.966
 20
25.8383
 11
253.363
 21
25.5885
  0
LINE
  8
0
 10
253.363
 20
25.5885
 11
252.716
 21
25.5034
  0
LINE
  8
0
 10
252.716
 20
25.5034
 11
252.069
 21
25.5885
  0
LINE
  8
0
 10
9.02531
 20
7.42032
 11
8.62247
 21
7.58707
  0
LINE
  8
0
 10
8.62247
 20
7.58707
 11
8.27652
 21
7.85236
  0
LINE
  8
0
 10
8.27652
 20
7.85236
 11
8.01112
 21
8.19807
  0
LINE
  8
0
 10
8.01112
 20
8.19807
 11
7.84425
 21
8.60066
  0
LINE
  8
0
 10
7.84425
 20
8.60066
 11
7.78732
 21
9.03276
  0
LINE
  8
0
 10
7.78732
 20
9.03276
 11
7.84425
 21
9.46475
  0
LINE
  8
0
 10
7.84425
 20
9.46475
 11
8.01112
 21
9.86734
  0
LINE
  8
0
 10
8.01112
 20
9.86734
 11
8.27652
 21
10.2131
  0
LINE
  8
0
 10
8.27652
 20
10.2131
 11
8.62247
 21
10.4784
  0
LINE
  8
0
 10
8.62247
 20
10.4784
 11
9.02531
 21
10.6451
  0
LINE
  8
0
 10
9.02531
 20
10.6451
 11
9.45763
 21
10.702
  0
LINE
  8
0
 10
9.45763
 20
10.702
 11
9.88994
 21
10.6451
  0
LINE
  8
0
 10
9.88994
 20
10.6451
 11
10.2928
 21
10.4784
  0
LINE
  8
0
 10
10.2928
 20
10.4784
 11
10.6387
 21
10.2131
  0
LINE
  8
0
 10
10.6387
 20
10.2131
 11
10.9041
 21
9.86734
  0
LINE
  8
0
 10
10.9041
 20
9.86734
 11
11.071
 21
9.46475
  0
LINE
  8
0
 10
11.071
 20
9.46475
 11
11.1279
 21
9.03276
  0
LINE
  8
0
 10
11.1279
 20
9.03276
 11
11.071
 21
8.60066
  0
LINE
  8
0
 10
11.071
 20
8.60066
 11
10.9041
 21
8.19807
  0
LINE
  8
0
 10
10.9041
 20
8.19807
 11
10.6387
 21
7.85236
  0
LINE
  8
0
 10
10.6387
 20
7.85236
 11
10.2928
 21
7.58707
  0
LINE
  8
0
 10
10.2928
 20
7.58707
 11
9.88994
 21
7.42032
  0
LINE
  8
0
 10
9.88994
 20
7.42032
 11
9.45763
 21
7.36343
  0
LINE
  8
0
 10
9.45763
 20
7.36343
 11
9.02531
 21
7.42032
  0
LINE
  8
0
 10
310.069
 20
7.00803
 11
309.68
 21
7.16916
  0
LINE
  8
0
 10
309.68
 20
7.16916
 11
309.345
 21
7.4256
  0
LINE
  8
0
 10
309.345
 20
7.4256
 11
309.089
 21
7.75974
  0
LINE
  8
0
 10
309.089
 20
7.75974
 11
308.928
 21
8.14885
  0
LINE
  8
0
 10
308.928
 20
8.14885
 11
308.873
 21
8.56641
  0
LINE
  8
0
 10
308.873
 20
8.56641
 11
308.928
 21
8.98402
  0
LINE
  8
0
 10
308.928
 20
8.98402
 11
309.089
 21
9.37314
  0
LINE
  8
0
 10
309.089
 20
9.37314
 11
309.345
 21
9.70728
  0
LINE
  8
0
 10
309.345
 20
9.70728
 11
309.68
 21
9.96365
  0
LINE
  8
0
 10
309.68
 20
9.96365
 11
310.069
 21
10.1248
  0
LINE
  8
0
 10
310.069
 20
10.1248
 11
310.486
 21
10.1798
  0
LINE
  8
0
 10
310.486
 20
10.1798
 11
310.904
 21
10.1248
  0
LINE
  8
0
 10
310.904
 20
10.1248
 11
311.293
 21
9.96365
  0
LINE
  8
0
 10
311.293
 20
9.96365
 11
311.627
 21
9.70728
  0
LINE
  8
0
 10
311.627
 20
9.70728
 11
311.883
 21
9.37314
  0
LINE
  8
0
 10
311.883
 20
9.37314
 11
312.045
 21
8.98402
  0
LINE
  8
0
 10
312.045
 20
8.98402
 11
312.1
 21
8.56641
  0
LINE
  8
0
 10
312.1
 20
8.56641
 11
312.045
 21
8.14885
  0
LINE
  8
0
 10
312.045
 20
8.14885
 11
311.883
 21
7.75974
  0
LINE
  8
0
 10
311.883
 20
7.75974
 11
311.627
 21
7.4256
  0
LINE
  8
0
 10
311.627
 20
7.4256
 11
311.293
 21
7.16916
  0
LINE
  8
0
 10
311.293
 20
7.16916
 11
310.904
 21
7.00803
  0
LINE
  8
0
 10
310.904
 20
7.00803
 11
310.486
 21
6.95303
  0
LINE
  8
0
 10
310.486
 20
6.95303
 11
310.069
 21
7.00803
  0
ENDSEC
  0
SECTION
  2
OBJECTS
  0
DICTIONARY
  0
ENDSEC
  0
EOF
